M48
; DRILL file {KiCad 9.0.0} date 2025-05-12T01:14:52+0700
; FORMAT={-:-/ absolute / metric / decimal}
; #@! TF.CreationDate,2025-05-12T01:14:52+07:00
; #@! TF.GenerationSoftware,Kicad,Pcbnew,9.0.0
; #@! TF.FileFunction,Plated,1,4,PTH
FMAT,2
METRIC
; #@! TA.AperFunction,Plated,PTH,ViaDrill
T1C0.300
; #@! TA.AperFunction,Plated,PTH,ComponentDrill
T2C0.800
; #@! TA.AperFunction,Plated,PTH,ComponentDrill
T3C1.000
; #@! TA.AperFunction,Plated,PTH,ComponentDrill
T4C1.100
%
G90
G05
T1
X115.0Y-129.0
X117.0Y-129.0
T2
X160.02Y-114.3
X160.02Y-124.46
X167.64Y-114.3
X167.64Y-124.46
T3
X99.06Y-76.2
X99.06Y-78.74
X99.06Y-81.28
X99.06Y-83.82
X99.06Y-111.76
X99.06Y-127.0
X101.6Y-111.76
X101.6Y-127.0
X104.14Y-111.76
X104.14Y-127.0
X106.68Y-111.76
X106.68Y-127.0
X109.22Y-111.76
X109.22Y-127.0
X111.76Y-111.76
X111.76Y-127.0
X114.3Y-111.76
X114.3Y-127.0
X116.84Y-111.76
X116.84Y-127.0
X119.38Y-111.76
X119.38Y-127.0
X121.92Y-111.76
X121.92Y-127.0
X124.46Y-111.76
X124.46Y-127.0
X127.0Y-111.76
X127.0Y-127.0
X129.54Y-111.76
X129.54Y-127.0
X132.08Y-111.76
X132.08Y-127.0
X134.62Y-111.76
X134.62Y-127.0
T4
X147.32Y-111.76
X147.32Y-116.26
X147.32Y-122.5
X147.32Y-127.0
X153.82Y-111.76
X153.82Y-116.26
X153.82Y-122.5
X153.82Y-127.0
M30
