%TF.GenerationSoftware,KiCad,Pcbnew,9.0.0*%
%TF.CreationDate,2025-05-12T01:14:56+07:00*%
%TF.ProjectId,bittheater,62697474-6865-4617-9465-722e6b696361,rev?*%
%TF.SameCoordinates,Original*%
%TF.FileFunction,Legend,Bot*%
%TF.FilePolarity,Positive*%
%FSLAX46Y46*%
G04 Gerber Fmt 4.6, Leading zero omitted, Abs format (unit mm)*
G04 Created by KiCad (PCBNEW 9.0.0) date 2025-05-12 01:14:56*
%MOMM*%
%LPD*%
G01*
G04 APERTURE LIST*
%ADD10C,0.150000*%
%ADD11C,0.250000*%
%ADD12C,0.000000*%
%ADD13C,2.000000*%
%ADD14R,1.600000X1.600000*%
%ADD15O,1.600000X1.600000*%
%ADD16C,1.600000*%
%ADD17R,1.700000X1.700000*%
%ADD18O,1.700000X1.700000*%
G04 APERTURE END LIST*
D10*
X164663220Y-83869819D02*
X164663220Y-82869819D01*
X164234649Y-83869819D02*
X164234649Y-83346009D01*
X164234649Y-83346009D02*
X164282268Y-83250771D01*
X164282268Y-83250771D02*
X164377506Y-83203152D01*
X164377506Y-83203152D02*
X164520363Y-83203152D01*
X164520363Y-83203152D02*
X164615601Y-83250771D01*
X164615601Y-83250771D02*
X164663220Y-83298390D01*
X163901315Y-83203152D02*
X163520363Y-83203152D01*
X163758458Y-82869819D02*
X163758458Y-83726961D01*
X163758458Y-83726961D02*
X163710839Y-83822200D01*
X163710839Y-83822200D02*
X163615601Y-83869819D01*
X163615601Y-83869819D02*
X163520363Y-83869819D01*
X163329886Y-83203152D02*
X162948934Y-83203152D01*
X163187029Y-82869819D02*
X163187029Y-83726961D01*
X163187029Y-83726961D02*
X163139410Y-83822200D01*
X163139410Y-83822200D02*
X163044172Y-83869819D01*
X163044172Y-83869819D02*
X162948934Y-83869819D01*
X162615600Y-83203152D02*
X162615600Y-84203152D01*
X162615600Y-83250771D02*
X162520362Y-83203152D01*
X162520362Y-83203152D02*
X162329886Y-83203152D01*
X162329886Y-83203152D02*
X162234648Y-83250771D01*
X162234648Y-83250771D02*
X162187029Y-83298390D01*
X162187029Y-83298390D02*
X162139410Y-83393628D01*
X162139410Y-83393628D02*
X162139410Y-83679342D01*
X162139410Y-83679342D02*
X162187029Y-83774580D01*
X162187029Y-83774580D02*
X162234648Y-83822200D01*
X162234648Y-83822200D02*
X162329886Y-83869819D01*
X162329886Y-83869819D02*
X162520362Y-83869819D01*
X162520362Y-83869819D02*
X162615600Y-83822200D01*
X161758457Y-83822200D02*
X161663219Y-83869819D01*
X161663219Y-83869819D02*
X161472743Y-83869819D01*
X161472743Y-83869819D02*
X161377505Y-83822200D01*
X161377505Y-83822200D02*
X161329886Y-83726961D01*
X161329886Y-83726961D02*
X161329886Y-83679342D01*
X161329886Y-83679342D02*
X161377505Y-83584104D01*
X161377505Y-83584104D02*
X161472743Y-83536485D01*
X161472743Y-83536485D02*
X161615600Y-83536485D01*
X161615600Y-83536485D02*
X161710838Y-83488866D01*
X161710838Y-83488866D02*
X161758457Y-83393628D01*
X161758457Y-83393628D02*
X161758457Y-83346009D01*
X161758457Y-83346009D02*
X161710838Y-83250771D01*
X161710838Y-83250771D02*
X161615600Y-83203152D01*
X161615600Y-83203152D02*
X161472743Y-83203152D01*
X161472743Y-83203152D02*
X161377505Y-83250771D01*
X160901314Y-83774580D02*
X160853695Y-83822200D01*
X160853695Y-83822200D02*
X160901314Y-83869819D01*
X160901314Y-83869819D02*
X160948933Y-83822200D01*
X160948933Y-83822200D02*
X160901314Y-83774580D01*
X160901314Y-83774580D02*
X160901314Y-83869819D01*
X160901314Y-83250771D02*
X160853695Y-83298390D01*
X160853695Y-83298390D02*
X160901314Y-83346009D01*
X160901314Y-83346009D02*
X160948933Y-83298390D01*
X160948933Y-83298390D02*
X160901314Y-83250771D01*
X160901314Y-83250771D02*
X160901314Y-83346009D01*
X159710839Y-82822200D02*
X160567981Y-84107914D01*
X158663220Y-82822200D02*
X159520362Y-84107914D01*
X157901315Y-83203152D02*
X157901315Y-84012676D01*
X157901315Y-84012676D02*
X157948934Y-84107914D01*
X157948934Y-84107914D02*
X157996553Y-84155533D01*
X157996553Y-84155533D02*
X158091791Y-84203152D01*
X158091791Y-84203152D02*
X158234648Y-84203152D01*
X158234648Y-84203152D02*
X158329886Y-84155533D01*
X157901315Y-83822200D02*
X157996553Y-83869819D01*
X157996553Y-83869819D02*
X158187029Y-83869819D01*
X158187029Y-83869819D02*
X158282267Y-83822200D01*
X158282267Y-83822200D02*
X158329886Y-83774580D01*
X158329886Y-83774580D02*
X158377505Y-83679342D01*
X158377505Y-83679342D02*
X158377505Y-83393628D01*
X158377505Y-83393628D02*
X158329886Y-83298390D01*
X158329886Y-83298390D02*
X158282267Y-83250771D01*
X158282267Y-83250771D02*
X158187029Y-83203152D01*
X158187029Y-83203152D02*
X157996553Y-83203152D01*
X157996553Y-83203152D02*
X157901315Y-83250771D01*
X157425124Y-83869819D02*
X157425124Y-83203152D01*
X157425124Y-82869819D02*
X157472743Y-82917438D01*
X157472743Y-82917438D02*
X157425124Y-82965057D01*
X157425124Y-82965057D02*
X157377505Y-82917438D01*
X157377505Y-82917438D02*
X157425124Y-82869819D01*
X157425124Y-82869819D02*
X157425124Y-82965057D01*
X157091791Y-83203152D02*
X156710839Y-83203152D01*
X156948934Y-82869819D02*
X156948934Y-83726961D01*
X156948934Y-83726961D02*
X156901315Y-83822200D01*
X156901315Y-83822200D02*
X156806077Y-83869819D01*
X156806077Y-83869819D02*
X156710839Y-83869819D01*
X156377505Y-83869819D02*
X156377505Y-82869819D01*
X155948934Y-83869819D02*
X155948934Y-83346009D01*
X155948934Y-83346009D02*
X155996553Y-83250771D01*
X155996553Y-83250771D02*
X156091791Y-83203152D01*
X156091791Y-83203152D02*
X156234648Y-83203152D01*
X156234648Y-83203152D02*
X156329886Y-83250771D01*
X156329886Y-83250771D02*
X156377505Y-83298390D01*
X155044172Y-83203152D02*
X155044172Y-83869819D01*
X155472743Y-83203152D02*
X155472743Y-83726961D01*
X155472743Y-83726961D02*
X155425124Y-83822200D01*
X155425124Y-83822200D02*
X155329886Y-83869819D01*
X155329886Y-83869819D02*
X155187029Y-83869819D01*
X155187029Y-83869819D02*
X155091791Y-83822200D01*
X155091791Y-83822200D02*
X155044172Y-83774580D01*
X154567981Y-83869819D02*
X154567981Y-82869819D01*
X154567981Y-83250771D02*
X154472743Y-83203152D01*
X154472743Y-83203152D02*
X154282267Y-83203152D01*
X154282267Y-83203152D02*
X154187029Y-83250771D01*
X154187029Y-83250771D02*
X154139410Y-83298390D01*
X154139410Y-83298390D02*
X154091791Y-83393628D01*
X154091791Y-83393628D02*
X154091791Y-83679342D01*
X154091791Y-83679342D02*
X154139410Y-83774580D01*
X154139410Y-83774580D02*
X154187029Y-83822200D01*
X154187029Y-83822200D02*
X154282267Y-83869819D01*
X154282267Y-83869819D02*
X154472743Y-83869819D01*
X154472743Y-83869819D02*
X154567981Y-83822200D01*
X153663219Y-83774580D02*
X153615600Y-83822200D01*
X153615600Y-83822200D02*
X153663219Y-83869819D01*
X153663219Y-83869819D02*
X153710838Y-83822200D01*
X153710838Y-83822200D02*
X153663219Y-83774580D01*
X153663219Y-83774580D02*
X153663219Y-83869819D01*
X152758458Y-83822200D02*
X152853696Y-83869819D01*
X152853696Y-83869819D02*
X153044172Y-83869819D01*
X153044172Y-83869819D02*
X153139410Y-83822200D01*
X153139410Y-83822200D02*
X153187029Y-83774580D01*
X153187029Y-83774580D02*
X153234648Y-83679342D01*
X153234648Y-83679342D02*
X153234648Y-83393628D01*
X153234648Y-83393628D02*
X153187029Y-83298390D01*
X153187029Y-83298390D02*
X153139410Y-83250771D01*
X153139410Y-83250771D02*
X153044172Y-83203152D01*
X153044172Y-83203152D02*
X152853696Y-83203152D01*
X152853696Y-83203152D02*
X152758458Y-83250771D01*
X152187029Y-83869819D02*
X152282267Y-83822200D01*
X152282267Y-83822200D02*
X152329886Y-83774580D01*
X152329886Y-83774580D02*
X152377505Y-83679342D01*
X152377505Y-83679342D02*
X152377505Y-83393628D01*
X152377505Y-83393628D02*
X152329886Y-83298390D01*
X152329886Y-83298390D02*
X152282267Y-83250771D01*
X152282267Y-83250771D02*
X152187029Y-83203152D01*
X152187029Y-83203152D02*
X152044172Y-83203152D01*
X152044172Y-83203152D02*
X151948934Y-83250771D01*
X151948934Y-83250771D02*
X151901315Y-83298390D01*
X151901315Y-83298390D02*
X151853696Y-83393628D01*
X151853696Y-83393628D02*
X151853696Y-83679342D01*
X151853696Y-83679342D02*
X151901315Y-83774580D01*
X151901315Y-83774580D02*
X151948934Y-83822200D01*
X151948934Y-83822200D02*
X152044172Y-83869819D01*
X152044172Y-83869819D02*
X152187029Y-83869819D01*
X151425124Y-83869819D02*
X151425124Y-83203152D01*
X151425124Y-83298390D02*
X151377505Y-83250771D01*
X151377505Y-83250771D02*
X151282267Y-83203152D01*
X151282267Y-83203152D02*
X151139410Y-83203152D01*
X151139410Y-83203152D02*
X151044172Y-83250771D01*
X151044172Y-83250771D02*
X150996553Y-83346009D01*
X150996553Y-83346009D02*
X150996553Y-83869819D01*
X150996553Y-83346009D02*
X150948934Y-83250771D01*
X150948934Y-83250771D02*
X150853696Y-83203152D01*
X150853696Y-83203152D02*
X150710839Y-83203152D01*
X150710839Y-83203152D02*
X150615600Y-83250771D01*
X150615600Y-83250771D02*
X150567981Y-83346009D01*
X150567981Y-83346009D02*
X150567981Y-83869819D01*
X149377506Y-82822200D02*
X150234648Y-84107914D01*
X149044172Y-83869819D02*
X149044172Y-82869819D01*
X148948934Y-83488866D02*
X148663220Y-83869819D01*
X148663220Y-83203152D02*
X149044172Y-83584104D01*
X148329886Y-83203152D02*
X148091791Y-83869819D01*
X147853696Y-83203152D02*
X148091791Y-83869819D01*
X148091791Y-83869819D02*
X148187029Y-84107914D01*
X148187029Y-84107914D02*
X148234648Y-84155533D01*
X148234648Y-84155533D02*
X148329886Y-84203152D01*
X147472743Y-83869819D02*
X147472743Y-83203152D01*
X147472743Y-83393628D02*
X147425124Y-83298390D01*
X147425124Y-83298390D02*
X147377505Y-83250771D01*
X147377505Y-83250771D02*
X147282267Y-83203152D01*
X147282267Y-83203152D02*
X147187029Y-83203152D01*
X146853695Y-83869819D02*
X146853695Y-83203152D01*
X146853695Y-82869819D02*
X146901314Y-82917438D01*
X146901314Y-82917438D02*
X146853695Y-82965057D01*
X146853695Y-82965057D02*
X146806076Y-82917438D01*
X146806076Y-82917438D02*
X146853695Y-82869819D01*
X146853695Y-82869819D02*
X146853695Y-82965057D01*
X146234648Y-83869819D02*
X146329886Y-83822200D01*
X146329886Y-83822200D02*
X146377505Y-83774580D01*
X146377505Y-83774580D02*
X146425124Y-83679342D01*
X146425124Y-83679342D02*
X146425124Y-83393628D01*
X146425124Y-83393628D02*
X146377505Y-83298390D01*
X146377505Y-83298390D02*
X146329886Y-83250771D01*
X146329886Y-83250771D02*
X146234648Y-83203152D01*
X146234648Y-83203152D02*
X146091791Y-83203152D01*
X146091791Y-83203152D02*
X145996553Y-83250771D01*
X145996553Y-83250771D02*
X145948934Y-83298390D01*
X145948934Y-83298390D02*
X145901315Y-83393628D01*
X145901315Y-83393628D02*
X145901315Y-83679342D01*
X145901315Y-83679342D02*
X145948934Y-83774580D01*
X145948934Y-83774580D02*
X145996553Y-83822200D01*
X145996553Y-83822200D02*
X146091791Y-83869819D01*
X146091791Y-83869819D02*
X146234648Y-83869819D01*
X145520362Y-83822200D02*
X145425124Y-83869819D01*
X145425124Y-83869819D02*
X145234648Y-83869819D01*
X145234648Y-83869819D02*
X145139410Y-83822200D01*
X145139410Y-83822200D02*
X145091791Y-83726961D01*
X145091791Y-83726961D02*
X145091791Y-83679342D01*
X145091791Y-83679342D02*
X145139410Y-83584104D01*
X145139410Y-83584104D02*
X145234648Y-83536485D01*
X145234648Y-83536485D02*
X145377505Y-83536485D01*
X145377505Y-83536485D02*
X145472743Y-83488866D01*
X145472743Y-83488866D02*
X145520362Y-83393628D01*
X145520362Y-83393628D02*
X145520362Y-83346009D01*
X145520362Y-83346009D02*
X145472743Y-83250771D01*
X145472743Y-83250771D02*
X145377505Y-83203152D01*
X145377505Y-83203152D02*
X145234648Y-83203152D01*
X145234648Y-83203152D02*
X145139410Y-83250771D01*
X144234648Y-83869819D02*
X144234648Y-83346009D01*
X144234648Y-83346009D02*
X144282267Y-83250771D01*
X144282267Y-83250771D02*
X144377505Y-83203152D01*
X144377505Y-83203152D02*
X144567981Y-83203152D01*
X144567981Y-83203152D02*
X144663219Y-83250771D01*
X144234648Y-83822200D02*
X144329886Y-83869819D01*
X144329886Y-83869819D02*
X144567981Y-83869819D01*
X144567981Y-83869819D02*
X144663219Y-83822200D01*
X144663219Y-83822200D02*
X144710838Y-83726961D01*
X144710838Y-83726961D02*
X144710838Y-83631723D01*
X144710838Y-83631723D02*
X144663219Y-83536485D01*
X144663219Y-83536485D02*
X144567981Y-83488866D01*
X144567981Y-83488866D02*
X144329886Y-83488866D01*
X144329886Y-83488866D02*
X144234648Y-83441247D01*
X143329886Y-83869819D02*
X143329886Y-83346009D01*
X143329886Y-83346009D02*
X143377505Y-83250771D01*
X143377505Y-83250771D02*
X143472743Y-83203152D01*
X143472743Y-83203152D02*
X143663219Y-83203152D01*
X143663219Y-83203152D02*
X143758457Y-83250771D01*
X143329886Y-83822200D02*
X143425124Y-83869819D01*
X143425124Y-83869819D02*
X143663219Y-83869819D01*
X143663219Y-83869819D02*
X143758457Y-83822200D01*
X143758457Y-83822200D02*
X143806076Y-83726961D01*
X143806076Y-83726961D02*
X143806076Y-83631723D01*
X143806076Y-83631723D02*
X143758457Y-83536485D01*
X143758457Y-83536485D02*
X143663219Y-83488866D01*
X143663219Y-83488866D02*
X143425124Y-83488866D01*
X143425124Y-83488866D02*
X143329886Y-83441247D01*
X142139410Y-82822200D02*
X142996552Y-84107914D01*
X141806076Y-83869819D02*
X141806076Y-82869819D01*
X141806076Y-83250771D02*
X141710838Y-83203152D01*
X141710838Y-83203152D02*
X141520362Y-83203152D01*
X141520362Y-83203152D02*
X141425124Y-83250771D01*
X141425124Y-83250771D02*
X141377505Y-83298390D01*
X141377505Y-83298390D02*
X141329886Y-83393628D01*
X141329886Y-83393628D02*
X141329886Y-83679342D01*
X141329886Y-83679342D02*
X141377505Y-83774580D01*
X141377505Y-83774580D02*
X141425124Y-83822200D01*
X141425124Y-83822200D02*
X141520362Y-83869819D01*
X141520362Y-83869819D02*
X141710838Y-83869819D01*
X141710838Y-83869819D02*
X141806076Y-83822200D01*
X140901314Y-83869819D02*
X140901314Y-83203152D01*
X140901314Y-82869819D02*
X140948933Y-82917438D01*
X140948933Y-82917438D02*
X140901314Y-82965057D01*
X140901314Y-82965057D02*
X140853695Y-82917438D01*
X140853695Y-82917438D02*
X140901314Y-82869819D01*
X140901314Y-82869819D02*
X140901314Y-82965057D01*
X140567981Y-83203152D02*
X140187029Y-83203152D01*
X140425124Y-82869819D02*
X140425124Y-83726961D01*
X140425124Y-83726961D02*
X140377505Y-83822200D01*
X140377505Y-83822200D02*
X140282267Y-83869819D01*
X140282267Y-83869819D02*
X140187029Y-83869819D01*
X139996552Y-83203152D02*
X139615600Y-83203152D01*
X139853695Y-82869819D02*
X139853695Y-83726961D01*
X139853695Y-83726961D02*
X139806076Y-83822200D01*
X139806076Y-83822200D02*
X139710838Y-83869819D01*
X139710838Y-83869819D02*
X139615600Y-83869819D01*
X139282266Y-83869819D02*
X139282266Y-82869819D01*
X138853695Y-83869819D02*
X138853695Y-83346009D01*
X138853695Y-83346009D02*
X138901314Y-83250771D01*
X138901314Y-83250771D02*
X138996552Y-83203152D01*
X138996552Y-83203152D02*
X139139409Y-83203152D01*
X139139409Y-83203152D02*
X139234647Y-83250771D01*
X139234647Y-83250771D02*
X139282266Y-83298390D01*
X137996552Y-83822200D02*
X138091790Y-83869819D01*
X138091790Y-83869819D02*
X138282266Y-83869819D01*
X138282266Y-83869819D02*
X138377504Y-83822200D01*
X138377504Y-83822200D02*
X138425123Y-83726961D01*
X138425123Y-83726961D02*
X138425123Y-83346009D01*
X138425123Y-83346009D02*
X138377504Y-83250771D01*
X138377504Y-83250771D02*
X138282266Y-83203152D01*
X138282266Y-83203152D02*
X138091790Y-83203152D01*
X138091790Y-83203152D02*
X137996552Y-83250771D01*
X137996552Y-83250771D02*
X137948933Y-83346009D01*
X137948933Y-83346009D02*
X137948933Y-83441247D01*
X137948933Y-83441247D02*
X138425123Y-83536485D01*
X137091790Y-83869819D02*
X137091790Y-83346009D01*
X137091790Y-83346009D02*
X137139409Y-83250771D01*
X137139409Y-83250771D02*
X137234647Y-83203152D01*
X137234647Y-83203152D02*
X137425123Y-83203152D01*
X137425123Y-83203152D02*
X137520361Y-83250771D01*
X137091790Y-83822200D02*
X137187028Y-83869819D01*
X137187028Y-83869819D02*
X137425123Y-83869819D01*
X137425123Y-83869819D02*
X137520361Y-83822200D01*
X137520361Y-83822200D02*
X137567980Y-83726961D01*
X137567980Y-83726961D02*
X137567980Y-83631723D01*
X137567980Y-83631723D02*
X137520361Y-83536485D01*
X137520361Y-83536485D02*
X137425123Y-83488866D01*
X137425123Y-83488866D02*
X137187028Y-83488866D01*
X137187028Y-83488866D02*
X137091790Y-83441247D01*
X136758456Y-83203152D02*
X136377504Y-83203152D01*
X136615599Y-82869819D02*
X136615599Y-83726961D01*
X136615599Y-83726961D02*
X136567980Y-83822200D01*
X136567980Y-83822200D02*
X136472742Y-83869819D01*
X136472742Y-83869819D02*
X136377504Y-83869819D01*
X135663218Y-83822200D02*
X135758456Y-83869819D01*
X135758456Y-83869819D02*
X135948932Y-83869819D01*
X135948932Y-83869819D02*
X136044170Y-83822200D01*
X136044170Y-83822200D02*
X136091789Y-83726961D01*
X136091789Y-83726961D02*
X136091789Y-83346009D01*
X136091789Y-83346009D02*
X136044170Y-83250771D01*
X136044170Y-83250771D02*
X135948932Y-83203152D01*
X135948932Y-83203152D02*
X135758456Y-83203152D01*
X135758456Y-83203152D02*
X135663218Y-83250771D01*
X135663218Y-83250771D02*
X135615599Y-83346009D01*
X135615599Y-83346009D02*
X135615599Y-83441247D01*
X135615599Y-83441247D02*
X136091789Y-83536485D01*
X135187027Y-83869819D02*
X135187027Y-83203152D01*
X135187027Y-83393628D02*
X135139408Y-83298390D01*
X135139408Y-83298390D02*
X135091789Y-83250771D01*
X135091789Y-83250771D02*
X134996551Y-83203152D01*
X134996551Y-83203152D02*
X134901313Y-83203152D01*
X98787030Y-69094295D02*
X98596554Y-69894295D01*
X98596554Y-69894295D02*
X98444173Y-69322866D01*
X98444173Y-69322866D02*
X98291792Y-69894295D01*
X98291792Y-69894295D02*
X98101316Y-69094295D01*
X97453696Y-69894295D02*
X97453696Y-69475247D01*
X97453696Y-69475247D02*
X97491791Y-69399057D01*
X97491791Y-69399057D02*
X97567982Y-69360961D01*
X97567982Y-69360961D02*
X97720363Y-69360961D01*
X97720363Y-69360961D02*
X97796553Y-69399057D01*
X97453696Y-69856200D02*
X97529887Y-69894295D01*
X97529887Y-69894295D02*
X97720363Y-69894295D01*
X97720363Y-69894295D02*
X97796553Y-69856200D01*
X97796553Y-69856200D02*
X97834649Y-69780009D01*
X97834649Y-69780009D02*
X97834649Y-69703819D01*
X97834649Y-69703819D02*
X97796553Y-69627628D01*
X97796553Y-69627628D02*
X97720363Y-69589533D01*
X97720363Y-69589533D02*
X97529887Y-69589533D01*
X97529887Y-69589533D02*
X97453696Y-69551438D01*
X97148934Y-69360961D02*
X96958458Y-69894295D01*
X96767981Y-69360961D02*
X96958458Y-69894295D01*
X96958458Y-69894295D02*
X97034648Y-70084771D01*
X97034648Y-70084771D02*
X97072743Y-70122866D01*
X97072743Y-70122866D02*
X97148934Y-70160961D01*
X96539410Y-69094295D02*
X96348934Y-69894295D01*
X96348934Y-69894295D02*
X96196553Y-69322866D01*
X96196553Y-69322866D02*
X96044172Y-69894295D01*
X96044172Y-69894295D02*
X95853696Y-69094295D01*
X95206076Y-69894295D02*
X95206076Y-69475247D01*
X95206076Y-69475247D02*
X95244171Y-69399057D01*
X95244171Y-69399057D02*
X95320362Y-69360961D01*
X95320362Y-69360961D02*
X95472743Y-69360961D01*
X95472743Y-69360961D02*
X95548933Y-69399057D01*
X95206076Y-69856200D02*
X95282267Y-69894295D01*
X95282267Y-69894295D02*
X95472743Y-69894295D01*
X95472743Y-69894295D02*
X95548933Y-69856200D01*
X95548933Y-69856200D02*
X95587029Y-69780009D01*
X95587029Y-69780009D02*
X95587029Y-69703819D01*
X95587029Y-69703819D02*
X95548933Y-69627628D01*
X95548933Y-69627628D02*
X95472743Y-69589533D01*
X95472743Y-69589533D02*
X95282267Y-69589533D01*
X95282267Y-69589533D02*
X95206076Y-69551438D01*
X94901314Y-69360961D02*
X94710838Y-69894295D01*
X94520361Y-69360961D02*
X94710838Y-69894295D01*
X94710838Y-69894295D02*
X94787028Y-70084771D01*
X94787028Y-70084771D02*
X94825123Y-70122866D01*
X94825123Y-70122866D02*
X94901314Y-70160961D01*
X94291790Y-69094295D02*
X94101314Y-69894295D01*
X94101314Y-69894295D02*
X93948933Y-69322866D01*
X93948933Y-69322866D02*
X93796552Y-69894295D01*
X93796552Y-69894295D02*
X93606076Y-69094295D01*
X92958456Y-69894295D02*
X92958456Y-69475247D01*
X92958456Y-69475247D02*
X92996551Y-69399057D01*
X92996551Y-69399057D02*
X93072742Y-69360961D01*
X93072742Y-69360961D02*
X93225123Y-69360961D01*
X93225123Y-69360961D02*
X93301313Y-69399057D01*
X92958456Y-69856200D02*
X93034647Y-69894295D01*
X93034647Y-69894295D02*
X93225123Y-69894295D01*
X93225123Y-69894295D02*
X93301313Y-69856200D01*
X93301313Y-69856200D02*
X93339409Y-69780009D01*
X93339409Y-69780009D02*
X93339409Y-69703819D01*
X93339409Y-69703819D02*
X93301313Y-69627628D01*
X93301313Y-69627628D02*
X93225123Y-69589533D01*
X93225123Y-69589533D02*
X93034647Y-69589533D01*
X93034647Y-69589533D02*
X92958456Y-69551438D01*
X92653694Y-69360961D02*
X92463218Y-69894295D01*
X92272741Y-69360961D02*
X92463218Y-69894295D01*
X92463218Y-69894295D02*
X92539408Y-70084771D01*
X92539408Y-70084771D02*
X92577503Y-70122866D01*
X92577503Y-70122866D02*
X92653694Y-70160961D01*
D11*
X163621241Y-75048428D02*
X163192669Y-75191285D01*
X163192669Y-75191285D02*
X163049812Y-75334142D01*
X163049812Y-75334142D02*
X162906955Y-75619857D01*
X162906955Y-75619857D02*
X162906955Y-76048428D01*
X162906955Y-76048428D02*
X163049812Y-76334142D01*
X163049812Y-76334142D02*
X163192669Y-76477000D01*
X163192669Y-76477000D02*
X163478384Y-76619857D01*
X163478384Y-76619857D02*
X164621241Y-76619857D01*
X164621241Y-76619857D02*
X164621241Y-73619857D01*
X164621241Y-73619857D02*
X163621241Y-73619857D01*
X163621241Y-73619857D02*
X163335527Y-73762714D01*
X163335527Y-73762714D02*
X163192669Y-73905571D01*
X163192669Y-73905571D02*
X163049812Y-74191285D01*
X163049812Y-74191285D02*
X163049812Y-74477000D01*
X163049812Y-74477000D02*
X163192669Y-74762714D01*
X163192669Y-74762714D02*
X163335527Y-74905571D01*
X163335527Y-74905571D02*
X163621241Y-75048428D01*
X163621241Y-75048428D02*
X164621241Y-75048428D01*
X161621241Y-76619857D02*
X161621241Y-74619857D01*
X161621241Y-73619857D02*
X161764098Y-73762714D01*
X161764098Y-73762714D02*
X161621241Y-73905571D01*
X161621241Y-73905571D02*
X161478384Y-73762714D01*
X161478384Y-73762714D02*
X161621241Y-73619857D01*
X161621241Y-73619857D02*
X161621241Y-73905571D01*
X160621241Y-74619857D02*
X159478384Y-74619857D01*
X160192670Y-73619857D02*
X160192670Y-76191285D01*
X160192670Y-76191285D02*
X160049813Y-76477000D01*
X160049813Y-76477000D02*
X159764098Y-76619857D01*
X159764098Y-76619857D02*
X159478384Y-76619857D01*
X158906955Y-73619857D02*
X157192670Y-73619857D01*
X158049812Y-76619857D02*
X158049812Y-73619857D01*
X156192670Y-76619857D02*
X156192670Y-73619857D01*
X154906956Y-76619857D02*
X154906956Y-75048428D01*
X154906956Y-75048428D02*
X155049813Y-74762714D01*
X155049813Y-74762714D02*
X155335527Y-74619857D01*
X155335527Y-74619857D02*
X155764098Y-74619857D01*
X155764098Y-74619857D02*
X156049813Y-74762714D01*
X156049813Y-74762714D02*
X156192670Y-74905571D01*
X152335527Y-76477000D02*
X152621241Y-76619857D01*
X152621241Y-76619857D02*
X153192670Y-76619857D01*
X153192670Y-76619857D02*
X153478384Y-76477000D01*
X153478384Y-76477000D02*
X153621241Y-76191285D01*
X153621241Y-76191285D02*
X153621241Y-75048428D01*
X153621241Y-75048428D02*
X153478384Y-74762714D01*
X153478384Y-74762714D02*
X153192670Y-74619857D01*
X153192670Y-74619857D02*
X152621241Y-74619857D01*
X152621241Y-74619857D02*
X152335527Y-74762714D01*
X152335527Y-74762714D02*
X152192670Y-75048428D01*
X152192670Y-75048428D02*
X152192670Y-75334142D01*
X152192670Y-75334142D02*
X153621241Y-75619857D01*
X149621241Y-76619857D02*
X149621241Y-75048428D01*
X149621241Y-75048428D02*
X149764098Y-74762714D01*
X149764098Y-74762714D02*
X150049812Y-74619857D01*
X150049812Y-74619857D02*
X150621241Y-74619857D01*
X150621241Y-74619857D02*
X150906955Y-74762714D01*
X149621241Y-76477000D02*
X149906955Y-76619857D01*
X149906955Y-76619857D02*
X150621241Y-76619857D01*
X150621241Y-76619857D02*
X150906955Y-76477000D01*
X150906955Y-76477000D02*
X151049812Y-76191285D01*
X151049812Y-76191285D02*
X151049812Y-75905571D01*
X151049812Y-75905571D02*
X150906955Y-75619857D01*
X150906955Y-75619857D02*
X150621241Y-75477000D01*
X150621241Y-75477000D02*
X149906955Y-75477000D01*
X149906955Y-75477000D02*
X149621241Y-75334142D01*
X148621240Y-74619857D02*
X147478383Y-74619857D01*
X148192669Y-73619857D02*
X148192669Y-76191285D01*
X148192669Y-76191285D02*
X148049812Y-76477000D01*
X148049812Y-76477000D02*
X147764097Y-76619857D01*
X147764097Y-76619857D02*
X147478383Y-76619857D01*
X145335526Y-76477000D02*
X145621240Y-76619857D01*
X145621240Y-76619857D02*
X146192669Y-76619857D01*
X146192669Y-76619857D02*
X146478383Y-76477000D01*
X146478383Y-76477000D02*
X146621240Y-76191285D01*
X146621240Y-76191285D02*
X146621240Y-75048428D01*
X146621240Y-75048428D02*
X146478383Y-74762714D01*
X146478383Y-74762714D02*
X146192669Y-74619857D01*
X146192669Y-74619857D02*
X145621240Y-74619857D01*
X145621240Y-74619857D02*
X145335526Y-74762714D01*
X145335526Y-74762714D02*
X145192669Y-75048428D01*
X145192669Y-75048428D02*
X145192669Y-75334142D01*
X145192669Y-75334142D02*
X146621240Y-75619857D01*
X143906954Y-76619857D02*
X143906954Y-74619857D01*
X143906954Y-75191285D02*
X143764097Y-74905571D01*
X143764097Y-74905571D02*
X143621240Y-74762714D01*
X143621240Y-74762714D02*
X143335525Y-74619857D01*
X143335525Y-74619857D02*
X143049811Y-74619857D01*
D10*
X164139411Y-79869819D02*
X164710839Y-79869819D01*
X164425125Y-79869819D02*
X164425125Y-78869819D01*
X164425125Y-78869819D02*
X164520363Y-79012676D01*
X164520363Y-79012676D02*
X164615601Y-79107914D01*
X164615601Y-79107914D02*
X164710839Y-79155533D01*
X163187030Y-79869819D02*
X163758458Y-79869819D01*
X163472744Y-79869819D02*
X163472744Y-78869819D01*
X163472744Y-78869819D02*
X163567982Y-79012676D01*
X163567982Y-79012676D02*
X163663220Y-79107914D01*
X163663220Y-79107914D02*
X163758458Y-79155533D01*
X162044173Y-78822200D02*
X162901315Y-80107914D01*
X161520363Y-78869819D02*
X161425125Y-78869819D01*
X161425125Y-78869819D02*
X161329887Y-78917438D01*
X161329887Y-78917438D02*
X161282268Y-78965057D01*
X161282268Y-78965057D02*
X161234649Y-79060295D01*
X161234649Y-79060295D02*
X161187030Y-79250771D01*
X161187030Y-79250771D02*
X161187030Y-79488866D01*
X161187030Y-79488866D02*
X161234649Y-79679342D01*
X161234649Y-79679342D02*
X161282268Y-79774580D01*
X161282268Y-79774580D02*
X161329887Y-79822200D01*
X161329887Y-79822200D02*
X161425125Y-79869819D01*
X161425125Y-79869819D02*
X161520363Y-79869819D01*
X161520363Y-79869819D02*
X161615601Y-79822200D01*
X161615601Y-79822200D02*
X161663220Y-79774580D01*
X161663220Y-79774580D02*
X161710839Y-79679342D01*
X161710839Y-79679342D02*
X161758458Y-79488866D01*
X161758458Y-79488866D02*
X161758458Y-79250771D01*
X161758458Y-79250771D02*
X161710839Y-79060295D01*
X161710839Y-79060295D02*
X161663220Y-78965057D01*
X161663220Y-78965057D02*
X161615601Y-78917438D01*
X161615601Y-78917438D02*
X161520363Y-78869819D01*
X160282268Y-78869819D02*
X160758458Y-78869819D01*
X160758458Y-78869819D02*
X160806077Y-79346009D01*
X160806077Y-79346009D02*
X160758458Y-79298390D01*
X160758458Y-79298390D02*
X160663220Y-79250771D01*
X160663220Y-79250771D02*
X160425125Y-79250771D01*
X160425125Y-79250771D02*
X160329887Y-79298390D01*
X160329887Y-79298390D02*
X160282268Y-79346009D01*
X160282268Y-79346009D02*
X160234649Y-79441247D01*
X160234649Y-79441247D02*
X160234649Y-79679342D01*
X160234649Y-79679342D02*
X160282268Y-79774580D01*
X160282268Y-79774580D02*
X160329887Y-79822200D01*
X160329887Y-79822200D02*
X160425125Y-79869819D01*
X160425125Y-79869819D02*
X160663220Y-79869819D01*
X160663220Y-79869819D02*
X160758458Y-79822200D01*
X160758458Y-79822200D02*
X160806077Y-79774580D01*
X159091792Y-78822200D02*
X159948934Y-80107914D01*
X158806077Y-78965057D02*
X158758458Y-78917438D01*
X158758458Y-78917438D02*
X158663220Y-78869819D01*
X158663220Y-78869819D02*
X158425125Y-78869819D01*
X158425125Y-78869819D02*
X158329887Y-78917438D01*
X158329887Y-78917438D02*
X158282268Y-78965057D01*
X158282268Y-78965057D02*
X158234649Y-79060295D01*
X158234649Y-79060295D02*
X158234649Y-79155533D01*
X158234649Y-79155533D02*
X158282268Y-79298390D01*
X158282268Y-79298390D02*
X158853696Y-79869819D01*
X158853696Y-79869819D02*
X158234649Y-79869819D01*
X157615601Y-78869819D02*
X157520363Y-78869819D01*
X157520363Y-78869819D02*
X157425125Y-78917438D01*
X157425125Y-78917438D02*
X157377506Y-78965057D01*
X157377506Y-78965057D02*
X157329887Y-79060295D01*
X157329887Y-79060295D02*
X157282268Y-79250771D01*
X157282268Y-79250771D02*
X157282268Y-79488866D01*
X157282268Y-79488866D02*
X157329887Y-79679342D01*
X157329887Y-79679342D02*
X157377506Y-79774580D01*
X157377506Y-79774580D02*
X157425125Y-79822200D01*
X157425125Y-79822200D02*
X157520363Y-79869819D01*
X157520363Y-79869819D02*
X157615601Y-79869819D01*
X157615601Y-79869819D02*
X157710839Y-79822200D01*
X157710839Y-79822200D02*
X157758458Y-79774580D01*
X157758458Y-79774580D02*
X157806077Y-79679342D01*
X157806077Y-79679342D02*
X157853696Y-79488866D01*
X157853696Y-79488866D02*
X157853696Y-79250771D01*
X157853696Y-79250771D02*
X157806077Y-79060295D01*
X157806077Y-79060295D02*
X157758458Y-78965057D01*
X157758458Y-78965057D02*
X157710839Y-78917438D01*
X157710839Y-78917438D02*
X157615601Y-78869819D01*
X156901315Y-78965057D02*
X156853696Y-78917438D01*
X156853696Y-78917438D02*
X156758458Y-78869819D01*
X156758458Y-78869819D02*
X156520363Y-78869819D01*
X156520363Y-78869819D02*
X156425125Y-78917438D01*
X156425125Y-78917438D02*
X156377506Y-78965057D01*
X156377506Y-78965057D02*
X156329887Y-79060295D01*
X156329887Y-79060295D02*
X156329887Y-79155533D01*
X156329887Y-79155533D02*
X156377506Y-79298390D01*
X156377506Y-79298390D02*
X156948934Y-79869819D01*
X156948934Y-79869819D02*
X156329887Y-79869819D01*
X155425125Y-78869819D02*
X155901315Y-78869819D01*
X155901315Y-78869819D02*
X155948934Y-79346009D01*
X155948934Y-79346009D02*
X155901315Y-79298390D01*
X155901315Y-79298390D02*
X155806077Y-79250771D01*
X155806077Y-79250771D02*
X155567982Y-79250771D01*
X155567982Y-79250771D02*
X155472744Y-79298390D01*
X155472744Y-79298390D02*
X155425125Y-79346009D01*
X155425125Y-79346009D02*
X155377506Y-79441247D01*
X155377506Y-79441247D02*
X155377506Y-79679342D01*
X155377506Y-79679342D02*
X155425125Y-79774580D01*
X155425125Y-79774580D02*
X155472744Y-79822200D01*
X155472744Y-79822200D02*
X155567982Y-79869819D01*
X155567982Y-79869819D02*
X155806077Y-79869819D01*
X155806077Y-79869819D02*
X155901315Y-79822200D01*
X155901315Y-79822200D02*
X155948934Y-79774580D01*
X154187029Y-79488866D02*
X153425125Y-79488866D01*
X152282267Y-79203152D02*
X152044172Y-79869819D01*
X152044172Y-79869819D02*
X151806077Y-79203152D01*
X150901315Y-79869819D02*
X151472743Y-79869819D01*
X151187029Y-79869819D02*
X151187029Y-78869819D01*
X151187029Y-78869819D02*
X151282267Y-79012676D01*
X151282267Y-79012676D02*
X151377505Y-79107914D01*
X151377505Y-79107914D02*
X151472743Y-79155533D01*
X150472743Y-79774580D02*
X150425124Y-79822200D01*
X150425124Y-79822200D02*
X150472743Y-79869819D01*
X150472743Y-79869819D02*
X150520362Y-79822200D01*
X150520362Y-79822200D02*
X150472743Y-79774580D01*
X150472743Y-79774580D02*
X150472743Y-79869819D01*
X149806077Y-78869819D02*
X149710839Y-78869819D01*
X149710839Y-78869819D02*
X149615601Y-78917438D01*
X149615601Y-78917438D02*
X149567982Y-78965057D01*
X149567982Y-78965057D02*
X149520363Y-79060295D01*
X149520363Y-79060295D02*
X149472744Y-79250771D01*
X149472744Y-79250771D02*
X149472744Y-79488866D01*
X149472744Y-79488866D02*
X149520363Y-79679342D01*
X149520363Y-79679342D02*
X149567982Y-79774580D01*
X149567982Y-79774580D02*
X149615601Y-79822200D01*
X149615601Y-79822200D02*
X149710839Y-79869819D01*
X149710839Y-79869819D02*
X149806077Y-79869819D01*
X149806077Y-79869819D02*
X149901315Y-79822200D01*
X149901315Y-79822200D02*
X149948934Y-79774580D01*
X149948934Y-79774580D02*
X149996553Y-79679342D01*
X149996553Y-79679342D02*
X150044172Y-79488866D01*
X150044172Y-79488866D02*
X150044172Y-79250771D01*
X150044172Y-79250771D02*
X149996553Y-79060295D01*
X149996553Y-79060295D02*
X149948934Y-78965057D01*
X149948934Y-78965057D02*
X149901315Y-78917438D01*
X149901315Y-78917438D02*
X149806077Y-78869819D01*
X164663220Y-81869819D02*
X164663220Y-80869819D01*
X164663220Y-80869819D02*
X164329887Y-81584104D01*
X164329887Y-81584104D02*
X163996554Y-80869819D01*
X163996554Y-80869819D02*
X163996554Y-81869819D01*
X163091792Y-81869819D02*
X163091792Y-81346009D01*
X163091792Y-81346009D02*
X163139411Y-81250771D01*
X163139411Y-81250771D02*
X163234649Y-81203152D01*
X163234649Y-81203152D02*
X163425125Y-81203152D01*
X163425125Y-81203152D02*
X163520363Y-81250771D01*
X163091792Y-81822200D02*
X163187030Y-81869819D01*
X163187030Y-81869819D02*
X163425125Y-81869819D01*
X163425125Y-81869819D02*
X163520363Y-81822200D01*
X163520363Y-81822200D02*
X163567982Y-81726961D01*
X163567982Y-81726961D02*
X163567982Y-81631723D01*
X163567982Y-81631723D02*
X163520363Y-81536485D01*
X163520363Y-81536485D02*
X163425125Y-81488866D01*
X163425125Y-81488866D02*
X163187030Y-81488866D01*
X163187030Y-81488866D02*
X163091792Y-81441247D01*
X162187030Y-81869819D02*
X162187030Y-80869819D01*
X162187030Y-81822200D02*
X162282268Y-81869819D01*
X162282268Y-81869819D02*
X162472744Y-81869819D01*
X162472744Y-81869819D02*
X162567982Y-81822200D01*
X162567982Y-81822200D02*
X162615601Y-81774580D01*
X162615601Y-81774580D02*
X162663220Y-81679342D01*
X162663220Y-81679342D02*
X162663220Y-81393628D01*
X162663220Y-81393628D02*
X162615601Y-81298390D01*
X162615601Y-81298390D02*
X162567982Y-81250771D01*
X162567982Y-81250771D02*
X162472744Y-81203152D01*
X162472744Y-81203152D02*
X162282268Y-81203152D01*
X162282268Y-81203152D02*
X162187030Y-81250771D01*
X161329887Y-81822200D02*
X161425125Y-81869819D01*
X161425125Y-81869819D02*
X161615601Y-81869819D01*
X161615601Y-81869819D02*
X161710839Y-81822200D01*
X161710839Y-81822200D02*
X161758458Y-81726961D01*
X161758458Y-81726961D02*
X161758458Y-81346009D01*
X161758458Y-81346009D02*
X161710839Y-81250771D01*
X161710839Y-81250771D02*
X161615601Y-81203152D01*
X161615601Y-81203152D02*
X161425125Y-81203152D01*
X161425125Y-81203152D02*
X161329887Y-81250771D01*
X161329887Y-81250771D02*
X161282268Y-81346009D01*
X161282268Y-81346009D02*
X161282268Y-81441247D01*
X161282268Y-81441247D02*
X161758458Y-81536485D01*
X160091791Y-81869819D02*
X160091791Y-80869819D01*
X160091791Y-81250771D02*
X159996553Y-81203152D01*
X159996553Y-81203152D02*
X159806077Y-81203152D01*
X159806077Y-81203152D02*
X159710839Y-81250771D01*
X159710839Y-81250771D02*
X159663220Y-81298390D01*
X159663220Y-81298390D02*
X159615601Y-81393628D01*
X159615601Y-81393628D02*
X159615601Y-81679342D01*
X159615601Y-81679342D02*
X159663220Y-81774580D01*
X159663220Y-81774580D02*
X159710839Y-81822200D01*
X159710839Y-81822200D02*
X159806077Y-81869819D01*
X159806077Y-81869819D02*
X159996553Y-81869819D01*
X159996553Y-81869819D02*
X160091791Y-81822200D01*
X159282267Y-81203152D02*
X159044172Y-81869819D01*
X158806077Y-81203152D02*
X159044172Y-81869819D01*
X159044172Y-81869819D02*
X159139410Y-82107914D01*
X159139410Y-82107914D02*
X159187029Y-82155533D01*
X159187029Y-82155533D02*
X159282267Y-82203152D01*
X157663219Y-81869819D02*
X157663219Y-80869819D01*
X157091791Y-81869819D02*
X157520362Y-81298390D01*
X157091791Y-80869819D02*
X157663219Y-81441247D01*
X156663219Y-81869819D02*
X156663219Y-81203152D01*
X156663219Y-80869819D02*
X156710838Y-80917438D01*
X156710838Y-80917438D02*
X156663219Y-80965057D01*
X156663219Y-80965057D02*
X156615600Y-80917438D01*
X156615600Y-80917438D02*
X156663219Y-80869819D01*
X156663219Y-80869819D02*
X156663219Y-80965057D01*
X156187029Y-81203152D02*
X156187029Y-81869819D01*
X156187029Y-81298390D02*
X156139410Y-81250771D01*
X156139410Y-81250771D02*
X156044172Y-81203152D01*
X156044172Y-81203152D02*
X155901315Y-81203152D01*
X155901315Y-81203152D02*
X155806077Y-81250771D01*
X155806077Y-81250771D02*
X155758458Y-81346009D01*
X155758458Y-81346009D02*
X155758458Y-81869819D01*
D12*
%TO.C,Ditto*%
G36*
X156568610Y-90222404D02*
G01*
X156568610Y-91078323D01*
X156283304Y-91078323D01*
X155997997Y-91078323D01*
X155997997Y-90222404D01*
X155997997Y-89366484D01*
X156283304Y-89366484D01*
X156568610Y-89366484D01*
X156568610Y-90222404D01*
G37*
G36*
X157139223Y-88795870D02*
G01*
X157139223Y-89366484D01*
X156853917Y-89366484D01*
X156568610Y-89366484D01*
X156568610Y-88795870D01*
X156568610Y-88225257D01*
X156853917Y-88225257D01*
X157139223Y-88225257D01*
X157139223Y-88795870D01*
G37*
G36*
X157709837Y-87939951D02*
G01*
X157709837Y-88225257D01*
X157424530Y-88225257D01*
X157139223Y-88225257D01*
X157139223Y-87939951D01*
X157139223Y-87654644D01*
X157424530Y-87654644D01*
X157709837Y-87654644D01*
X157709837Y-87939951D01*
G37*
G36*
X158280450Y-91934243D02*
G01*
X158280450Y-92219550D01*
X157709837Y-92219550D01*
X157139223Y-92219550D01*
X157139223Y-91934243D01*
X157139223Y-91648937D01*
X157709837Y-91648937D01*
X158280450Y-91648937D01*
X158280450Y-91934243D01*
G37*
G36*
X158851063Y-91363630D02*
G01*
X158851063Y-91648937D01*
X158565757Y-91648937D01*
X158280450Y-91648937D01*
X158280450Y-91363630D01*
X158280450Y-91078323D01*
X158565757Y-91078323D01*
X158851063Y-91078323D01*
X158851063Y-91363630D01*
G37*
G36*
X159421676Y-89081177D02*
G01*
X159421676Y-89366484D01*
X159136370Y-89366484D01*
X158851063Y-89366484D01*
X158851063Y-89081177D01*
X158851063Y-88795870D01*
X159136370Y-88795870D01*
X159421676Y-88795870D01*
X159421676Y-89081177D01*
G37*
G36*
X161133516Y-90222404D02*
G01*
X161133516Y-90507710D01*
X159992290Y-90507710D01*
X158851063Y-90507710D01*
X158851063Y-90222404D01*
X158851063Y-89937097D01*
X159992290Y-89937097D01*
X161133516Y-89937097D01*
X161133516Y-90222404D01*
G37*
G36*
X161704129Y-88510564D02*
G01*
X161704129Y-88795870D01*
X161418823Y-88795870D01*
X161133516Y-88795870D01*
X161133516Y-88510564D01*
X161133516Y-88225257D01*
X161418823Y-88225257D01*
X161704129Y-88225257D01*
X161704129Y-88510564D01*
G37*
G36*
X162274743Y-89651790D02*
G01*
X162274743Y-89937097D01*
X161704129Y-89937097D01*
X161133516Y-89937097D01*
X161133516Y-89651790D01*
X161133516Y-89366484D01*
X161704129Y-89366484D01*
X162274743Y-89366484D01*
X162274743Y-89651790D01*
G37*
G36*
X163986582Y-93075470D02*
G01*
X163986582Y-93360776D01*
X163701276Y-93360776D01*
X163415969Y-93360776D01*
X163415969Y-93075470D01*
X163415969Y-92790163D01*
X163701276Y-92790163D01*
X163986582Y-92790163D01*
X163986582Y-93075470D01*
G37*
G36*
X164271889Y-91078323D02*
G01*
X164557196Y-91078323D01*
X164557196Y-91934243D01*
X164557196Y-92790163D01*
X164271889Y-92790163D01*
X163986582Y-92790163D01*
X163986582Y-91934243D01*
X163986582Y-91078323D01*
X164271889Y-91078323D01*
G37*
G36*
X163986582Y-90507710D02*
G01*
X163986582Y-91078323D01*
X163701276Y-91078323D01*
X163415969Y-91078323D01*
X163415969Y-90507710D01*
X163415969Y-89937097D01*
X163701276Y-89937097D01*
X163986582Y-89937097D01*
X163986582Y-90507710D01*
G37*
G36*
X158851063Y-87369337D02*
G01*
X158851063Y-87654644D01*
X159421676Y-87654644D01*
X159992290Y-87654644D01*
X159992290Y-87369337D01*
X159992290Y-87084031D01*
X160277596Y-87084031D01*
X160562903Y-87084031D01*
X160562903Y-87369337D01*
X160562903Y-87654644D01*
X160277596Y-87654644D01*
X159992290Y-87654644D01*
X159992290Y-87939951D01*
X159992290Y-88225257D01*
X159421676Y-88225257D01*
X158851063Y-88225257D01*
X158851063Y-87939951D01*
X158851063Y-87654644D01*
X158280450Y-87654644D01*
X157709837Y-87654644D01*
X157709837Y-87369337D01*
X157709837Y-87084031D01*
X158280450Y-87084031D01*
X158851063Y-87084031D01*
X158851063Y-87369337D01*
G37*
G36*
X164271889Y-88225257D02*
G01*
X164557196Y-88225257D01*
X164557196Y-89081177D01*
X164557196Y-89937097D01*
X164271889Y-89937097D01*
X163986582Y-89937097D01*
X163986582Y-89081177D01*
X163986582Y-88225257D01*
X164271889Y-88225257D01*
G37*
G36*
X161989436Y-87084031D02*
G01*
X162274743Y-87084031D01*
X162274743Y-87369337D01*
X162274743Y-87654644D01*
X163130662Y-87654644D01*
X163986582Y-87654644D01*
X163986582Y-87939951D01*
X163986582Y-88225257D01*
X163415969Y-88225257D01*
X162845356Y-88225257D01*
X162845356Y-88510564D01*
X162845356Y-88795870D01*
X162560049Y-88795870D01*
X162274743Y-88795870D01*
X162274743Y-88510564D01*
X162274743Y-88225257D01*
X161989436Y-88225257D01*
X161704129Y-88225257D01*
X161704129Y-87654644D01*
X161704129Y-87084031D01*
X161989436Y-87084031D01*
G37*
G36*
X161704129Y-86798724D02*
G01*
X161704129Y-87084031D01*
X161133516Y-87084031D01*
X160562903Y-87084031D01*
X160562903Y-86798724D01*
X160562903Y-86513417D01*
X161133516Y-86513417D01*
X161704129Y-86513417D01*
X161704129Y-86798724D01*
G37*
G36*
X156283304Y-93360776D02*
G01*
X156568610Y-93360776D01*
X156568610Y-93646083D01*
X156568610Y-93931390D01*
X157709837Y-93931390D01*
X158851063Y-93931390D01*
X158851063Y-93646083D01*
X158851063Y-93360776D01*
X159421676Y-93360776D01*
X159992290Y-93360776D01*
X159992290Y-93646083D01*
X159992290Y-93931390D01*
X161133516Y-93931390D01*
X162274743Y-93931390D01*
X162274743Y-93646083D01*
X162274743Y-93360776D01*
X162845356Y-93360776D01*
X163415969Y-93360776D01*
X163415969Y-93646083D01*
X163415969Y-93931390D01*
X162845356Y-93931390D01*
X162274743Y-93931390D01*
X162274743Y-94216696D01*
X162274743Y-94502003D01*
X161133516Y-94502003D01*
X159992290Y-94502003D01*
X159992290Y-94216696D01*
X159992290Y-93931390D01*
X159421676Y-93931390D01*
X158851063Y-93931390D01*
X158851063Y-94216696D01*
X158851063Y-94502003D01*
X157709837Y-94502003D01*
X156568610Y-94502003D01*
X156568610Y-94216696D01*
X156568610Y-93931390D01*
X156283304Y-93931390D01*
X155997997Y-93931390D01*
X155997997Y-93646083D01*
X155997997Y-93360776D01*
X156283304Y-93360776D01*
G37*
G36*
X155997997Y-92219550D02*
G01*
X155997997Y-93360776D01*
X155712690Y-93360776D01*
X155427384Y-93360776D01*
X155427384Y-92219550D01*
X155427384Y-91078323D01*
X155712690Y-91078323D01*
X155997997Y-91078323D01*
X155997997Y-92219550D01*
G37*
%TD*%
%LPC*%
D13*
%TO.C,SELECT*%
X147320000Y-111760000D03*
X153820000Y-111760000D03*
X147320000Y-116260000D03*
X153820000Y-116260000D03*
%TD*%
D14*
%TO.C,NANO*%
X134620000Y-111760000D03*
D15*
X132080000Y-111760000D03*
X129540000Y-111760000D03*
X127000000Y-111760000D03*
X124460000Y-111760000D03*
X121920000Y-111760000D03*
X119380000Y-111760000D03*
X116840000Y-111760000D03*
X114300000Y-111760000D03*
X111760000Y-111760000D03*
X109220000Y-111760000D03*
X106680000Y-111760000D03*
X104140000Y-111760000D03*
X101600000Y-111760000D03*
X99060000Y-111760000D03*
X99060000Y-127000000D03*
X101600000Y-127000000D03*
X104140000Y-127000000D03*
X106680000Y-127000000D03*
X109220000Y-127000000D03*
X111760000Y-127000000D03*
X114300000Y-127000000D03*
X116840000Y-127000000D03*
X119380000Y-127000000D03*
X121920000Y-127000000D03*
X124460000Y-127000000D03*
X127000000Y-127000000D03*
X129540000Y-127000000D03*
X132080000Y-127000000D03*
X134620000Y-127000000D03*
%TD*%
D16*
%TO.C,10K*%
X160020000Y-124460000D03*
D15*
X167640000Y-124460000D03*
%TD*%
D16*
%TO.C,10K*%
X160020000Y-114300000D03*
D15*
X167640000Y-114300000D03*
%TD*%
D17*
%TO.C,I2C Pins*%
X99060000Y-76200000D03*
D18*
X99060000Y-78740000D03*
X99060000Y-81280000D03*
X99060000Y-83820000D03*
%TD*%
D13*
%TO.C,START*%
X147320000Y-122500000D03*
X153820000Y-122500000D03*
X147320000Y-127000000D03*
X153820000Y-127000000D03*
%TD*%
%LPD*%
M02*
