%TF.GenerationSoftware,KiCad,Pcbnew,9.0.0*%
%TF.CreationDate,2025-05-12T01:14:56+07:00*%
%TF.ProjectId,bittheater,62697474-6865-4617-9465-722e6b696361,rev?*%
%TF.SameCoordinates,Original*%
%TF.FileFunction,Profile,NP*%
%FSLAX46Y46*%
G04 Gerber Fmt 4.6, Leading zero omitted, Abs format (unit mm)*
G04 Created by KiCad (PCBNEW 9.0.0) date 2025-05-12 01:14:56*
%MOMM*%
%LPD*%
G01*
G04 APERTURE LIST*
%ADD10C,0.200000*%
%TA.AperFunction,Profile*%
%ADD11C,0.200000*%
%TD*%
G04 APERTURE END LIST*
D10*
X175650000Y-130570000D02*
X175649990Y-130581013D01*
X175649960Y-130592005D01*
X175649910Y-130602978D01*
X175649840Y-130613931D01*
X175649751Y-130624864D01*
X175649641Y-130635777D01*
X175649512Y-130646671D01*
X175649363Y-130657544D01*
X175649194Y-130668398D01*
X175649006Y-130679232D01*
X175648798Y-130690047D01*
X175648570Y-130700842D01*
X175648323Y-130711617D01*
X175648056Y-130722373D01*
X175647770Y-130733109D01*
X175647464Y-130743826D01*
X175647139Y-130754523D01*
X175646795Y-130765201D01*
X175646431Y-130775860D01*
X175646048Y-130786499D01*
X175645645Y-130797119D01*
X175645223Y-130807719D01*
X175644782Y-130818301D01*
X175644322Y-130828863D01*
X175643843Y-130839406D01*
X175643344Y-130849930D01*
X175642826Y-130860435D01*
X175642290Y-130870921D01*
X175641734Y-130881388D01*
X175641159Y-130891835D01*
X175640566Y-130902264D01*
X175639953Y-130912674D01*
X175639321Y-130923066D01*
X175638671Y-130933437D01*
X175638002Y-130943791D01*
X175637314Y-130954126D01*
X175636607Y-130964442D01*
X175635881Y-130974739D01*
X175635137Y-130985018D01*
X175634374Y-130995277D01*
X175633592Y-131005519D01*
X175632792Y-131015741D01*
X175631973Y-131025946D01*
X175631136Y-131036131D01*
X175630280Y-131046299D01*
X175629405Y-131056448D01*
X175628512Y-131066579D01*
X175627601Y-131076690D01*
X175626671Y-131086785D01*
X175625723Y-131096860D01*
X175624757Y-131106917D01*
X175623772Y-131116956D01*
X175622769Y-131126977D01*
X175621747Y-131136980D01*
X175620708Y-131146965D01*
X175619650Y-131156931D01*
X175618574Y-131166880D01*
X175617480Y-131176810D01*
X175616367Y-131186723D01*
X175615237Y-131196617D01*
X175614089Y-131206494D01*
X175612922Y-131216353D01*
X175611738Y-131226194D01*
X175610535Y-131236017D01*
X175609315Y-131245823D01*
X175608077Y-131255610D01*
X175606820Y-131265380D01*
X175605546Y-131275132D01*
X175604254Y-131284867D01*
X175602945Y-131294584D01*
X175601617Y-131304284D01*
X175600272Y-131313965D01*
X175598909Y-131323630D01*
X175597528Y-131333276D01*
X175596129Y-131342907D01*
X175594713Y-131352518D01*
X175593280Y-131362114D01*
X175591828Y-131371690D01*
X175590359Y-131381251D01*
X175588873Y-131390793D01*
X175587369Y-131400319D01*
X175585847Y-131409827D01*
X175584308Y-131419319D01*
X175582752Y-131428792D01*
X175581178Y-131438250D01*
X175579587Y-131447689D01*
X175577978Y-131457113D01*
X175576352Y-131466518D01*
X175574708Y-131475907D01*
X175573048Y-131485278D01*
X175571369Y-131494634D01*
X175569674Y-131503971D01*
X175567962Y-131513293D01*
X175566232Y-131522597D01*
X175564485Y-131531885D01*
X175562721Y-131541155D01*
X175560939Y-131550411D01*
X175559141Y-131559647D01*
X175557325Y-131568869D01*
X175555493Y-131578072D01*
X175553643Y-131587261D01*
X175551777Y-131596431D01*
X175549893Y-131605586D01*
X175547992Y-131614723D01*
X175546074Y-131623846D01*
X175544140Y-131632950D01*
X175542188Y-131642039D01*
X175540219Y-131651111D01*
X175538234Y-131660168D01*
X175536232Y-131669206D01*
X175534212Y-131678231D01*
X175532176Y-131687237D01*
X175530123Y-131696229D01*
X175528054Y-131705202D01*
X175525967Y-131714162D01*
X175523864Y-131723103D01*
X175521744Y-131732031D01*
X175519608Y-131740940D01*
X175517454Y-131749835D01*
X175515285Y-131758712D01*
X175513098Y-131767575D01*
X175510895Y-131776421D01*
X175508675Y-131785252D01*
X175506438Y-131794065D01*
X175504185Y-131802865D01*
X175501916Y-131811647D01*
X175499629Y-131820415D01*
X175497327Y-131829165D01*
X175495007Y-131837902D01*
X175492672Y-131846621D01*
X175490319Y-131855326D01*
X175487951Y-131864013D01*
X175485565Y-131872687D01*
X175483164Y-131881343D01*
X175480745Y-131889986D01*
X175478311Y-131898611D01*
X175475860Y-131907223D01*
X175473393Y-131915817D01*
X175470910Y-131924399D01*
X175468410Y-131932962D01*
X175465894Y-131941512D01*
X175463361Y-131950044D01*
X175460812Y-131958564D01*
X175458248Y-131967066D01*
X175455666Y-131975555D01*
X175453069Y-131984026D01*
X175450455Y-131992485D01*
X175447825Y-132000926D01*
X175445178Y-132009354D01*
X175442517Y-132017764D01*
X175437143Y-132034543D01*
X175431706Y-132051261D01*
X175426203Y-132067920D01*
X175420637Y-132084518D01*
X175415006Y-132101058D01*
X175409310Y-132117537D01*
X175403551Y-132133958D01*
X175397728Y-132150320D01*
X175391841Y-132166624D01*
X175385890Y-132182869D01*
X175379875Y-132199055D01*
X175373797Y-132215184D01*
X175367655Y-132231255D01*
X175361450Y-132247269D01*
X175355181Y-132263225D01*
X175348849Y-132279123D01*
X175342454Y-132294965D01*
X175335995Y-132310750D01*
X175329474Y-132326479D01*
X175322889Y-132342151D01*
X175316241Y-132357767D01*
X175309531Y-132373327D01*
X175302757Y-132388831D01*
X175295920Y-132404280D01*
X175289021Y-132419673D01*
X175282059Y-132435011D01*
X175275034Y-132450294D01*
X175267947Y-132465522D01*
X175260797Y-132480695D01*
X175253584Y-132495814D01*
X175246309Y-132510879D01*
X175238971Y-132525889D01*
X175231571Y-132540846D01*
X175224108Y-132555749D01*
X175216583Y-132570598D01*
X175208995Y-132585393D01*
X175201345Y-132600136D01*
X175193633Y-132614825D01*
X175185858Y-132629462D01*
X175178020Y-132644045D01*
X175170121Y-132658576D01*
X175162159Y-132673055D01*
X175154134Y-132687481D01*
X175146047Y-132701855D01*
X175137898Y-132716177D01*
X175129687Y-132730447D01*
X175121413Y-132744666D01*
X175113076Y-132758833D01*
X175104678Y-132772948D01*
X175096217Y-132787012D01*
X175087693Y-132801025D01*
X175079107Y-132814988D01*
X175070459Y-132828899D01*
X175061748Y-132842759D01*
X175052974Y-132856569D01*
X175044138Y-132870329D01*
X175035239Y-132884038D01*
X175026278Y-132897697D01*
X175017254Y-132911306D01*
X175008168Y-132924865D01*
X174999018Y-132938374D01*
X174989806Y-132951833D01*
X174980532Y-132965243D01*
X174971194Y-132978603D01*
X174961793Y-132991914D01*
X174952330Y-133005176D01*
X174942803Y-133018388D01*
X174933214Y-133031551D01*
X174923561Y-133044666D01*
X174913845Y-133057731D01*
X174904066Y-133070748D01*
X174894223Y-133083716D01*
X174884318Y-133096635D01*
X174874349Y-133109506D01*
X174864316Y-133122328D01*
X174854220Y-133135102D01*
X174844060Y-133147828D01*
X174833836Y-133160505D01*
X174823549Y-133173135D01*
X174813198Y-133185716D01*
X174802783Y-133198249D01*
X174792304Y-133210735D01*
X174781761Y-133223172D01*
X174771153Y-133235562D01*
X174760482Y-133247904D01*
X174749746Y-133260199D01*
X174738946Y-133272445D01*
X174728081Y-133284645D01*
X174717151Y-133296796D01*
X174706157Y-133308901D01*
X174695098Y-133320957D01*
X174683975Y-133332967D01*
X174672786Y-133344929D01*
X174661532Y-133356844D01*
X174650213Y-133368711D01*
X174638829Y-133380532D01*
X174627379Y-133392305D01*
X174615864Y-133404030D01*
X174604283Y-133415709D01*
X174592637Y-133427341D01*
X174580925Y-133438925D01*
X174569147Y-133450462D01*
X174557303Y-133461952D01*
X174545393Y-133473395D01*
X174533416Y-133484791D01*
X174521374Y-133496140D01*
X174509265Y-133507442D01*
X174497089Y-133518696D01*
X174484847Y-133529904D01*
X174472538Y-133541064D01*
X174460162Y-133552177D01*
X174447720Y-133563243D01*
X174435210Y-133574262D01*
X174422633Y-133585234D01*
X174409988Y-133596158D01*
X174397277Y-133607035D01*
X174384497Y-133617865D01*
X174371651Y-133628648D01*
X174358736Y-133639383D01*
X174345754Y-133650071D01*
X174332703Y-133660711D01*
X174319585Y-133671304D01*
X174306398Y-133681849D01*
X174293143Y-133692347D01*
X174279820Y-133702797D01*
X174266428Y-133713199D01*
X174252967Y-133723554D01*
X174239438Y-133733861D01*
X174225840Y-133744119D01*
X174212173Y-133754330D01*
X174198437Y-133764493D01*
X174184632Y-133774608D01*
X174170757Y-133784674D01*
X174156814Y-133794693D01*
X174142800Y-133804663D01*
X174128718Y-133814584D01*
X174114565Y-133824457D01*
X174100343Y-133834281D01*
X174086051Y-133844056D01*
X174071690Y-133853783D01*
X174057258Y-133863460D01*
X174042756Y-133873089D01*
X174028184Y-133882668D01*
X174013542Y-133892198D01*
X173998829Y-133901678D01*
X173984046Y-133911109D01*
X173969193Y-133920491D01*
X173954269Y-133929822D01*
X173939274Y-133939103D01*
X173924209Y-133948335D01*
X173909073Y-133957516D01*
X173893867Y-133966647D01*
X173878589Y-133975727D01*
X173863241Y-133984756D01*
X173847822Y-133993735D01*
X173832331Y-134002663D01*
X173816770Y-134011539D01*
X173801138Y-134020365D01*
X173785435Y-134029138D01*
X173769660Y-134037860D01*
X173753815Y-134046531D01*
X173737898Y-134055149D01*
X173721911Y-134063715D01*
X173705852Y-134072228D01*
X173689722Y-134080689D01*
X173673521Y-134089098D01*
X173657249Y-134097453D01*
X173640907Y-134105755D01*
X173624493Y-134114004D01*
X173608008Y-134122199D01*
X173591452Y-134130340D01*
X173574826Y-134138427D01*
X173558128Y-134146460D01*
X173541360Y-134154439D01*
X173524522Y-134162363D01*
X173507613Y-134170232D01*
X173490633Y-134178045D01*
X173473583Y-134185804D01*
X173456464Y-134193506D01*
X173439274Y-134201153D01*
X173422014Y-134208744D01*
X173404684Y-134216278D01*
X173387285Y-134223756D01*
X173369817Y-134231176D01*
X173352279Y-134238540D01*
X173334672Y-134245846D01*
X173316997Y-134253094D01*
X173299253Y-134260284D01*
X173281441Y-134267416D01*
X173263561Y-134274489D01*
X173245613Y-134281504D01*
X173227598Y-134288459D01*
X173209515Y-134295355D01*
X173191366Y-134302191D01*
X173173151Y-134308967D01*
X173154869Y-134315682D01*
X173136522Y-134322337D01*
X173118110Y-134328930D01*
X173099633Y-134335463D01*
X173081091Y-134341933D01*
X173062486Y-134348342D01*
X173043818Y-134354688D01*
X173025086Y-134360971D01*
X173006293Y-134367191D01*
X172987438Y-134373348D01*
X172968521Y-134379441D01*
X172949545Y-134385470D01*
X172930509Y-134391435D01*
X172911414Y-134397334D01*
X172892261Y-134403168D01*
X172873050Y-134408936D01*
X172853783Y-134414639D01*
X172834460Y-134420275D01*
X172815082Y-134425844D01*
X172795651Y-134431346D01*
X172776166Y-134436780D01*
X172756630Y-134442146D01*
X172737043Y-134447443D01*
X172717407Y-134452672D01*
X172697722Y-134457831D01*
X172677991Y-134462920D01*
X172658213Y-134467940D01*
X172638391Y-134472888D01*
X172618527Y-134477765D01*
X172598621Y-134482571D01*
X172578675Y-134487305D01*
X172558691Y-134491966D01*
X172538671Y-134496554D01*
X172518616Y-134501068D01*
X172498529Y-134505509D01*
X172478411Y-134509875D01*
X172458265Y-134514166D01*
X172438093Y-134518381D01*
X172417898Y-134522521D01*
X172397681Y-134526584D01*
X172377446Y-134530569D01*
X172357195Y-134534477D01*
X172336931Y-134538307D01*
X172316658Y-134542058D01*
X172296378Y-134545730D01*
X172276095Y-134549322D01*
X172255814Y-134552834D01*
X172235536Y-134556264D01*
X172215268Y-134559613D01*
X172195013Y-134562879D01*
X172174776Y-134566063D01*
X172154561Y-134569163D01*
X172134375Y-134572179D01*
X172114222Y-134575110D01*
X172094109Y-134577956D01*
X172074042Y-134580716D01*
X172054028Y-134583389D01*
X172034075Y-134585974D01*
X172014190Y-134588471D01*
X171994382Y-134590880D01*
X171974660Y-134593199D01*
X171955035Y-134595427D01*
X171935518Y-134597565D01*
X171916120Y-134599610D01*
X171896854Y-134601564D01*
X171877736Y-134603423D01*
X171858780Y-134605189D01*
X171840005Y-134606859D01*
X171821431Y-134608434D01*
X171803079Y-134609912D01*
X171784975Y-134611293D01*
X171767146Y-134612575D01*
X171749627Y-134613758D01*
X171732455Y-134614841D01*
X171715675Y-134615823D01*
X171699341Y-134616703D01*
X171683518Y-134617480D01*
X171668290Y-134618153D01*
X171653760Y-134618722D01*
X171640072Y-134619186D01*
X171627427Y-134619544D01*
X171616139Y-134619796D01*
X171606769Y-134619945D01*
X171600000Y-134620000D01*
D11*
X91500000Y-134620000D02*
X171600000Y-134620000D01*
D10*
X91500000Y-64350000D02*
X91489255Y-64350010D01*
X91478529Y-64350040D01*
X91467821Y-64350090D01*
X91457133Y-64350160D01*
X91446463Y-64350249D01*
X91435812Y-64350359D01*
X91425180Y-64350488D01*
X91414567Y-64350637D01*
X91403972Y-64350806D01*
X91393395Y-64350994D01*
X91382838Y-64351202D01*
X91372299Y-64351430D01*
X91361778Y-64351677D01*
X91351276Y-64351944D01*
X91340792Y-64352230D01*
X91330327Y-64352536D01*
X91319880Y-64352862D01*
X91309452Y-64353206D01*
X91299041Y-64353570D01*
X91288649Y-64353954D01*
X91278276Y-64354357D01*
X91267920Y-64354779D01*
X91257583Y-64355220D01*
X91247264Y-64355681D01*
X91236962Y-64356160D01*
X91226680Y-64356659D01*
X91216414Y-64357177D01*
X91206168Y-64357714D01*
X91195938Y-64358271D01*
X91185728Y-64358846D01*
X91175534Y-64359440D01*
X91165359Y-64360053D01*
X91155201Y-64360685D01*
X91145062Y-64361336D01*
X91134940Y-64362006D01*
X91124836Y-64362695D01*
X91114749Y-64363403D01*
X91104680Y-64364129D01*
X91094629Y-64364874D01*
X91084596Y-64365638D01*
X91074579Y-64366421D01*
X91064581Y-64367222D01*
X91054600Y-64368042D01*
X91044637Y-64368881D01*
X91034690Y-64369738D01*
X91024762Y-64370613D01*
X91014850Y-64371508D01*
X91004956Y-64372420D01*
X90995079Y-64373351D01*
X90985220Y-64374301D01*
X90975377Y-64375269D01*
X90965553Y-64376255D01*
X90955744Y-64377260D01*
X90945954Y-64378283D01*
X90936180Y-64379325D01*
X90926424Y-64380384D01*
X90916683Y-64381462D01*
X90906961Y-64382558D01*
X90897255Y-64383673D01*
X90887567Y-64384805D01*
X90877895Y-64385956D01*
X90868240Y-64387125D01*
X90858602Y-64388311D01*
X90848981Y-64389516D01*
X90839376Y-64390739D01*
X90829789Y-64391980D01*
X90820217Y-64393239D01*
X90810663Y-64394516D01*
X90801125Y-64395811D01*
X90791604Y-64397123D01*
X90782099Y-64398454D01*
X90772612Y-64399803D01*
X90763140Y-64401169D01*
X90753685Y-64402553D01*
X90744246Y-64403955D01*
X90734825Y-64405374D01*
X90725418Y-64406812D01*
X90716029Y-64408267D01*
X90706655Y-64409740D01*
X90697299Y-64411230D01*
X90687958Y-64412738D01*
X90678634Y-64414264D01*
X90669325Y-64415807D01*
X90660034Y-64417368D01*
X90650758Y-64418947D01*
X90641499Y-64420543D01*
X90632254Y-64422156D01*
X90623027Y-64423787D01*
X90613815Y-64425435D01*
X90604620Y-64427101D01*
X90595440Y-64428785D01*
X90586277Y-64430485D01*
X90577128Y-64432203D01*
X90567997Y-64433938D01*
X90558880Y-64435691D01*
X90549780Y-64437461D01*
X90540694Y-64439249D01*
X90531626Y-64441053D01*
X90522572Y-64442875D01*
X90513536Y-64444714D01*
X90504513Y-64446570D01*
X90495507Y-64448443D01*
X90486515Y-64450334D01*
X90477541Y-64452242D01*
X90468581Y-64454167D01*
X90459637Y-64456108D01*
X90450708Y-64458068D01*
X90441795Y-64460044D01*
X90432896Y-64462037D01*
X90424015Y-64464047D01*
X90415146Y-64466074D01*
X90406296Y-64468118D01*
X90397458Y-64470180D01*
X90388638Y-64472258D01*
X90379830Y-64474353D01*
X90371041Y-64476465D01*
X90362264Y-64478594D01*
X90353504Y-64480739D01*
X90344757Y-64482902D01*
X90336028Y-64485081D01*
X90327311Y-64487278D01*
X90318612Y-64489491D01*
X90309925Y-64491721D01*
X90301256Y-64493968D01*
X90292599Y-64496231D01*
X90283960Y-64498511D01*
X90275333Y-64500809D01*
X90266723Y-64503122D01*
X90258125Y-64505453D01*
X90249545Y-64507799D01*
X90240977Y-64510164D01*
X90232427Y-64512544D01*
X90223888Y-64514941D01*
X90215367Y-64517354D01*
X90206858Y-64519785D01*
X90198366Y-64522232D01*
X90189886Y-64524696D01*
X90181423Y-64527175D01*
X90164539Y-64532185D01*
X90147712Y-64537261D01*
X90130943Y-64542403D01*
X90114231Y-64547611D01*
X90097577Y-64552884D01*
X90080979Y-64558224D01*
X90064439Y-64563629D01*
X90047955Y-64569099D01*
X90031528Y-64574635D01*
X90015156Y-64580236D01*
X89998841Y-64585903D01*
X89982581Y-64591635D01*
X89966378Y-64597431D01*
X89950229Y-64603293D01*
X89934135Y-64609220D01*
X89918097Y-64615211D01*
X89902113Y-64621268D01*
X89886184Y-64627389D01*
X89870309Y-64633575D01*
X89854488Y-64639825D01*
X89838722Y-64646140D01*
X89823009Y-64652519D01*
X89807349Y-64658963D01*
X89791743Y-64665472D01*
X89776191Y-64672044D01*
X89760691Y-64678681D01*
X89745244Y-64685382D01*
X89729850Y-64692147D01*
X89714508Y-64698977D01*
X89699218Y-64705871D01*
X89683981Y-64712828D01*
X89668796Y-64719850D01*
X89653662Y-64726936D01*
X89638580Y-64734086D01*
X89623549Y-64741300D01*
X89608570Y-64748578D01*
X89593641Y-64755920D01*
X89578764Y-64763326D01*
X89563937Y-64770795D01*
X89549161Y-64778329D01*
X89534435Y-64785927D01*
X89519760Y-64793588D01*
X89505135Y-64801314D01*
X89490559Y-64809103D01*
X89476034Y-64816957D01*
X89461558Y-64824874D01*
X89447132Y-64832855D01*
X89432755Y-64840900D01*
X89418427Y-64849009D01*
X89404148Y-64857183D01*
X89389918Y-64865420D01*
X89375737Y-64873721D01*
X89361605Y-64882086D01*
X89347521Y-64890516D01*
X89333486Y-64899009D01*
X89319499Y-64907567D01*
X89305560Y-64916188D01*
X89291669Y-64924874D01*
X89277826Y-64933625D01*
X89264030Y-64942439D01*
X89250282Y-64951318D01*
X89236582Y-64960261D01*
X89222930Y-64969269D01*
X89209324Y-64978341D01*
X89195766Y-64987477D01*
X89182254Y-64996678D01*
X89168790Y-65005944D01*
X89155373Y-65015275D01*
X89142002Y-65024670D01*
X89128678Y-65034130D01*
X89115401Y-65043655D01*
X89102170Y-65053245D01*
X89088985Y-65062900D01*
X89075847Y-65072620D01*
X89062755Y-65082405D01*
X89049709Y-65092255D01*
X89036709Y-65102171D01*
X89023755Y-65112152D01*
X89010847Y-65122198D01*
X88997985Y-65132310D01*
X88985168Y-65142488D01*
X88972398Y-65152731D01*
X88959672Y-65163040D01*
X88946993Y-65173415D01*
X88934358Y-65183856D01*
X88921769Y-65194363D01*
X88909226Y-65204937D01*
X88896728Y-65215576D01*
X88884274Y-65226282D01*
X88871867Y-65237054D01*
X88859504Y-65247893D01*
X88847186Y-65258799D01*
X88834914Y-65269771D01*
X88822686Y-65280810D01*
X88810504Y-65291916D01*
X88798366Y-65303090D01*
X88786273Y-65314330D01*
X88774225Y-65325638D01*
X88762222Y-65337013D01*
X88750264Y-65348456D01*
X88738351Y-65359966D01*
X88726482Y-65371544D01*
X88714659Y-65383190D01*
X88702880Y-65394904D01*
X88691145Y-65406686D01*
X88679456Y-65418536D01*
X88667811Y-65430454D01*
X88656211Y-65442441D01*
X88644656Y-65454497D01*
X88633145Y-65466621D01*
X88621679Y-65478814D01*
X88610258Y-65491076D01*
X88598882Y-65503407D01*
X88587551Y-65515807D01*
X88576264Y-65528277D01*
X88565022Y-65540816D01*
X88553825Y-65553424D01*
X88542673Y-65566103D01*
X88531566Y-65578851D01*
X88520504Y-65591669D01*
X88509487Y-65604557D01*
X88498515Y-65617515D01*
X88487588Y-65630543D01*
X88476706Y-65643642D01*
X88465869Y-65656812D01*
X88455077Y-65670052D01*
X88444331Y-65683363D01*
X88433630Y-65696745D01*
X88422974Y-65710198D01*
X88412364Y-65723722D01*
X88401800Y-65737317D01*
X88391281Y-65750984D01*
X88380807Y-65764723D01*
X88370380Y-65778533D01*
X88359998Y-65792414D01*
X88349662Y-65806368D01*
X88339372Y-65820394D01*
X88329128Y-65834492D01*
X88318931Y-65848662D01*
X88308779Y-65862904D01*
X88298674Y-65877219D01*
X88288616Y-65891606D01*
X88278604Y-65906067D01*
X88268639Y-65920599D01*
X88258720Y-65935205D01*
X88248849Y-65949884D01*
X88239024Y-65964636D01*
X88229247Y-65979461D01*
X88219517Y-65994359D01*
X88209834Y-66009330D01*
X88200199Y-66024375D01*
X88190611Y-66039494D01*
X88181071Y-66054686D01*
X88171580Y-66069952D01*
X88162136Y-66085291D01*
X88152741Y-66100705D01*
X88143394Y-66116192D01*
X88134095Y-66131754D01*
X88124845Y-66147389D01*
X88115644Y-66163098D01*
X88106492Y-66178882D01*
X88097390Y-66194740D01*
X88088337Y-66210671D01*
X88079333Y-66226678D01*
X88070379Y-66242758D01*
X88061475Y-66258913D01*
X88052621Y-66275142D01*
X88043817Y-66291446D01*
X88035064Y-66307824D01*
X88026361Y-66324276D01*
X88017710Y-66340803D01*
X88009109Y-66357404D01*
X88000560Y-66374079D01*
X87992062Y-66390829D01*
X87983616Y-66407653D01*
X87975222Y-66424551D01*
X87966880Y-66441523D01*
X87958590Y-66458570D01*
X87950354Y-66475691D01*
X87942170Y-66492886D01*
X87934039Y-66510154D01*
X87925961Y-66527497D01*
X87917937Y-66544913D01*
X87909967Y-66562403D01*
X87902051Y-66579967D01*
X87894189Y-66597603D01*
X87886382Y-66615314D01*
X87878630Y-66633097D01*
X87870933Y-66650953D01*
X87863292Y-66668882D01*
X87855706Y-66686883D01*
X87848176Y-66704957D01*
X87840702Y-66723103D01*
X87833285Y-66741321D01*
X87825925Y-66759610D01*
X87818622Y-66777971D01*
X87811376Y-66796403D01*
X87804189Y-66814906D01*
X87797059Y-66833479D01*
X87789988Y-66852122D01*
X87782975Y-66870835D01*
X87776022Y-66889618D01*
X87769128Y-66908469D01*
X87762293Y-66927389D01*
X87755519Y-66946377D01*
X87748805Y-66965433D01*
X87742152Y-66984556D01*
X87735560Y-67003745D01*
X87729029Y-67023001D01*
X87722560Y-67042322D01*
X87716154Y-67061708D01*
X87709810Y-67081158D01*
X87703529Y-67100672D01*
X87697311Y-67120249D01*
X87691157Y-67139888D01*
X87685067Y-67159589D01*
X87679042Y-67179350D01*
X87673082Y-67199171D01*
X87667187Y-67219051D01*
X87661357Y-67238989D01*
X87655594Y-67258984D01*
X87649898Y-67279035D01*
X87644268Y-67299141D01*
X87638706Y-67319301D01*
X87633212Y-67339513D01*
X87627787Y-67359777D01*
X87622430Y-67380091D01*
X87617142Y-67400454D01*
X87611924Y-67420864D01*
X87606777Y-67441320D01*
X87601700Y-67461821D01*
X87596694Y-67482364D01*
X87591760Y-67502948D01*
X87586899Y-67523572D01*
X87582110Y-67544233D01*
X87577394Y-67564929D01*
X87572752Y-67585659D01*
X87568184Y-67606419D01*
X87563692Y-67627209D01*
X87559274Y-67648025D01*
X87554933Y-67668864D01*
X87550668Y-67689725D01*
X87546481Y-67710604D01*
X87542371Y-67731499D01*
X87538339Y-67752405D01*
X87534386Y-67773321D01*
X87530513Y-67794242D01*
X87526720Y-67815164D01*
X87523007Y-67836085D01*
X87519376Y-67856998D01*
X87515828Y-67877901D01*
X87512362Y-67898789D01*
X87508979Y-67919655D01*
X87505681Y-67940496D01*
X87502467Y-67961305D01*
X87499339Y-67982077D01*
X87496298Y-68002804D01*
X87493343Y-68023480D01*
X87490476Y-68044097D01*
X87487699Y-68064648D01*
X87485010Y-68085124D01*
X87482412Y-68105515D01*
X87479905Y-68125812D01*
X87477490Y-68146002D01*
X87475168Y-68166075D01*
X87472940Y-68186017D01*
X87470806Y-68205814D01*
X87468769Y-68225449D01*
X87466828Y-68244906D01*
X87464985Y-68264165D01*
X87463241Y-68283204D01*
X87461597Y-68301997D01*
X87460055Y-68320518D01*
X87458615Y-68338734D01*
X87457279Y-68356607D01*
X87456049Y-68374094D01*
X87454925Y-68391144D01*
X87453911Y-68407692D01*
X87453006Y-68423663D01*
X87452214Y-68438955D01*
X87451536Y-68453439D01*
X87450976Y-68466934D01*
X87450537Y-68479167D01*
X87450223Y-68489684D01*
X87450041Y-68497533D01*
X87450000Y-68500000D01*
D11*
X91500000Y-64350000D02*
X171600000Y-64350000D01*
D10*
X87450000Y-130570000D02*
X87450010Y-130581013D01*
X87450040Y-130592005D01*
X87450090Y-130602978D01*
X87450160Y-130613931D01*
X87450249Y-130624864D01*
X87450359Y-130635777D01*
X87450488Y-130646671D01*
X87450637Y-130657544D01*
X87450806Y-130668398D01*
X87450994Y-130679232D01*
X87451202Y-130690047D01*
X87451430Y-130700842D01*
X87451677Y-130711617D01*
X87451944Y-130722373D01*
X87452230Y-130733109D01*
X87452536Y-130743826D01*
X87452861Y-130754523D01*
X87453205Y-130765201D01*
X87453569Y-130775860D01*
X87453952Y-130786499D01*
X87454355Y-130797119D01*
X87454777Y-130807719D01*
X87455218Y-130818301D01*
X87455678Y-130828863D01*
X87456157Y-130839406D01*
X87456656Y-130849930D01*
X87457174Y-130860435D01*
X87457710Y-130870921D01*
X87458266Y-130881388D01*
X87458841Y-130891835D01*
X87459434Y-130902264D01*
X87460047Y-130912674D01*
X87460679Y-130923066D01*
X87461329Y-130933437D01*
X87461998Y-130943791D01*
X87462686Y-130954126D01*
X87463393Y-130964442D01*
X87464119Y-130974739D01*
X87464863Y-130985018D01*
X87465626Y-130995277D01*
X87466408Y-131005519D01*
X87467208Y-131015741D01*
X87468027Y-131025946D01*
X87468864Y-131036131D01*
X87469720Y-131046299D01*
X87470595Y-131056448D01*
X87471488Y-131066579D01*
X87472399Y-131076690D01*
X87473329Y-131086785D01*
X87474277Y-131096860D01*
X87475243Y-131106917D01*
X87476228Y-131116956D01*
X87477231Y-131126977D01*
X87478253Y-131136980D01*
X87479292Y-131146965D01*
X87480350Y-131156931D01*
X87481426Y-131166880D01*
X87482520Y-131176810D01*
X87483633Y-131186723D01*
X87484763Y-131196617D01*
X87485911Y-131206494D01*
X87487078Y-131216353D01*
X87488262Y-131226194D01*
X87489465Y-131236017D01*
X87490685Y-131245823D01*
X87491923Y-131255610D01*
X87493180Y-131265380D01*
X87494454Y-131275132D01*
X87495746Y-131284867D01*
X87497055Y-131294584D01*
X87498383Y-131304284D01*
X87499728Y-131313965D01*
X87501091Y-131323630D01*
X87502472Y-131333276D01*
X87503871Y-131342907D01*
X87505287Y-131352518D01*
X87506720Y-131362114D01*
X87508172Y-131371690D01*
X87509641Y-131381251D01*
X87511127Y-131390793D01*
X87512631Y-131400319D01*
X87514153Y-131409827D01*
X87515692Y-131419319D01*
X87517248Y-131428792D01*
X87518822Y-131438250D01*
X87520413Y-131447689D01*
X87522022Y-131457113D01*
X87523648Y-131466518D01*
X87525292Y-131475907D01*
X87526952Y-131485278D01*
X87528631Y-131494634D01*
X87530326Y-131503971D01*
X87532038Y-131513293D01*
X87533768Y-131522597D01*
X87535515Y-131531885D01*
X87537279Y-131541155D01*
X87539061Y-131550411D01*
X87540859Y-131559647D01*
X87542675Y-131568869D01*
X87544507Y-131578072D01*
X87546357Y-131587261D01*
X87548223Y-131596431D01*
X87550107Y-131605586D01*
X87552008Y-131614723D01*
X87553926Y-131623846D01*
X87555860Y-131632950D01*
X87557812Y-131642039D01*
X87559781Y-131651111D01*
X87561766Y-131660168D01*
X87563768Y-131669206D01*
X87565788Y-131678231D01*
X87567824Y-131687237D01*
X87569877Y-131696229D01*
X87571946Y-131705202D01*
X87574033Y-131714162D01*
X87576136Y-131723103D01*
X87578256Y-131732031D01*
X87580392Y-131740940D01*
X87582546Y-131749835D01*
X87584715Y-131758712D01*
X87586902Y-131767575D01*
X87589105Y-131776421D01*
X87591325Y-131785252D01*
X87593562Y-131794065D01*
X87595815Y-131802865D01*
X87598084Y-131811647D01*
X87600371Y-131820415D01*
X87602673Y-131829165D01*
X87604993Y-131837902D01*
X87607328Y-131846621D01*
X87609681Y-131855326D01*
X87612049Y-131864013D01*
X87614435Y-131872687D01*
X87616836Y-131881343D01*
X87619255Y-131889986D01*
X87621689Y-131898611D01*
X87624140Y-131907223D01*
X87626607Y-131915817D01*
X87629090Y-131924399D01*
X87631590Y-131932962D01*
X87634106Y-131941512D01*
X87636639Y-131950044D01*
X87639188Y-131958564D01*
X87641752Y-131967066D01*
X87644334Y-131975555D01*
X87646931Y-131984026D01*
X87649545Y-131992485D01*
X87652175Y-132000926D01*
X87654822Y-132009354D01*
X87657483Y-132017764D01*
X87662857Y-132034543D01*
X87668294Y-132051261D01*
X87673797Y-132067920D01*
X87679363Y-132084518D01*
X87684994Y-132101058D01*
X87690690Y-132117537D01*
X87696449Y-132133958D01*
X87702272Y-132150320D01*
X87708159Y-132166624D01*
X87714110Y-132182869D01*
X87720125Y-132199055D01*
X87726203Y-132215184D01*
X87732345Y-132231255D01*
X87738550Y-132247269D01*
X87744819Y-132263225D01*
X87751151Y-132279123D01*
X87757546Y-132294965D01*
X87764005Y-132310750D01*
X87770526Y-132326479D01*
X87777111Y-132342151D01*
X87783759Y-132357767D01*
X87790469Y-132373327D01*
X87797243Y-132388831D01*
X87804080Y-132404280D01*
X87810979Y-132419673D01*
X87817941Y-132435011D01*
X87824966Y-132450294D01*
X87832053Y-132465522D01*
X87839203Y-132480695D01*
X87846416Y-132495814D01*
X87853691Y-132510879D01*
X87861029Y-132525889D01*
X87868429Y-132540846D01*
X87875892Y-132555749D01*
X87883417Y-132570598D01*
X87891005Y-132585393D01*
X87898655Y-132600136D01*
X87906367Y-132614825D01*
X87914142Y-132629462D01*
X87921980Y-132644045D01*
X87929879Y-132658576D01*
X87937841Y-132673055D01*
X87945866Y-132687481D01*
X87953953Y-132701855D01*
X87962102Y-132716177D01*
X87970313Y-132730447D01*
X87978587Y-132744666D01*
X87986924Y-132758833D01*
X87995322Y-132772948D01*
X88003783Y-132787012D01*
X88012307Y-132801025D01*
X88020893Y-132814988D01*
X88029541Y-132828899D01*
X88038252Y-132842759D01*
X88047026Y-132856569D01*
X88055862Y-132870329D01*
X88064761Y-132884038D01*
X88073722Y-132897697D01*
X88082746Y-132911306D01*
X88091832Y-132924865D01*
X88100982Y-132938374D01*
X88110194Y-132951833D01*
X88119468Y-132965243D01*
X88128806Y-132978603D01*
X88138207Y-132991914D01*
X88147670Y-133005176D01*
X88157197Y-133018388D01*
X88166786Y-133031551D01*
X88176439Y-133044666D01*
X88186155Y-133057731D01*
X88195934Y-133070748D01*
X88205777Y-133083716D01*
X88215682Y-133096635D01*
X88225651Y-133109506D01*
X88235684Y-133122328D01*
X88245780Y-133135102D01*
X88255940Y-133147828D01*
X88266164Y-133160505D01*
X88276451Y-133173135D01*
X88286802Y-133185716D01*
X88297217Y-133198249D01*
X88307696Y-133210735D01*
X88318239Y-133223172D01*
X88328847Y-133235562D01*
X88339518Y-133247904D01*
X88350254Y-133260199D01*
X88361054Y-133272445D01*
X88371919Y-133284645D01*
X88382849Y-133296796D01*
X88393843Y-133308901D01*
X88404902Y-133320957D01*
X88416025Y-133332967D01*
X88427214Y-133344929D01*
X88438468Y-133356844D01*
X88449787Y-133368711D01*
X88461171Y-133380532D01*
X88472621Y-133392305D01*
X88484136Y-133404030D01*
X88495717Y-133415709D01*
X88507363Y-133427341D01*
X88519075Y-133438925D01*
X88530853Y-133450462D01*
X88542697Y-133461952D01*
X88554607Y-133473395D01*
X88566584Y-133484791D01*
X88578626Y-133496140D01*
X88590735Y-133507442D01*
X88602911Y-133518696D01*
X88615153Y-133529904D01*
X88627462Y-133541064D01*
X88639838Y-133552177D01*
X88652280Y-133563243D01*
X88664790Y-133574262D01*
X88677367Y-133585234D01*
X88690012Y-133596158D01*
X88702723Y-133607035D01*
X88715503Y-133617865D01*
X88728349Y-133628648D01*
X88741264Y-133639383D01*
X88754246Y-133650071D01*
X88767297Y-133660711D01*
X88780415Y-133671304D01*
X88793602Y-133681849D01*
X88806857Y-133692347D01*
X88820180Y-133702797D01*
X88833572Y-133713199D01*
X88847033Y-133723554D01*
X88860562Y-133733861D01*
X88874160Y-133744119D01*
X88887827Y-133754330D01*
X88901563Y-133764493D01*
X88915368Y-133774608D01*
X88929243Y-133784674D01*
X88943186Y-133794693D01*
X88957200Y-133804663D01*
X88971282Y-133814584D01*
X88985435Y-133824457D01*
X88999657Y-133834281D01*
X89013949Y-133844056D01*
X89028310Y-133853783D01*
X89042742Y-133863460D01*
X89057244Y-133873089D01*
X89071816Y-133882668D01*
X89086458Y-133892198D01*
X89101171Y-133901678D01*
X89115954Y-133911109D01*
X89130807Y-133920491D01*
X89145731Y-133929822D01*
X89160726Y-133939103D01*
X89175791Y-133948335D01*
X89190927Y-133957516D01*
X89206133Y-133966647D01*
X89221411Y-133975727D01*
X89236759Y-133984756D01*
X89252178Y-133993735D01*
X89267669Y-134002663D01*
X89283230Y-134011539D01*
X89298862Y-134020365D01*
X89314565Y-134029138D01*
X89330340Y-134037860D01*
X89346185Y-134046531D01*
X89362102Y-134055149D01*
X89378089Y-134063715D01*
X89394148Y-134072228D01*
X89410278Y-134080689D01*
X89426479Y-134089098D01*
X89442751Y-134097453D01*
X89459093Y-134105755D01*
X89475507Y-134114004D01*
X89491992Y-134122199D01*
X89508548Y-134130340D01*
X89525174Y-134138427D01*
X89541872Y-134146460D01*
X89558640Y-134154439D01*
X89575478Y-134162363D01*
X89592387Y-134170232D01*
X89609367Y-134178045D01*
X89626417Y-134185804D01*
X89643536Y-134193506D01*
X89660726Y-134201153D01*
X89677986Y-134208744D01*
X89695316Y-134216278D01*
X89712715Y-134223756D01*
X89730183Y-134231176D01*
X89747721Y-134238540D01*
X89765328Y-134245846D01*
X89783003Y-134253094D01*
X89800747Y-134260284D01*
X89818559Y-134267416D01*
X89836439Y-134274489D01*
X89854387Y-134281504D01*
X89872402Y-134288459D01*
X89890485Y-134295355D01*
X89908634Y-134302191D01*
X89926849Y-134308967D01*
X89945131Y-134315682D01*
X89963478Y-134322337D01*
X89981890Y-134328930D01*
X90000367Y-134335463D01*
X90018909Y-134341933D01*
X90037514Y-134348342D01*
X90056182Y-134354688D01*
X90074914Y-134360971D01*
X90093707Y-134367191D01*
X90112562Y-134373348D01*
X90131479Y-134379441D01*
X90150455Y-134385470D01*
X90169491Y-134391435D01*
X90188586Y-134397334D01*
X90207739Y-134403168D01*
X90226950Y-134408936D01*
X90246217Y-134414639D01*
X90265540Y-134420275D01*
X90284918Y-134425844D01*
X90304349Y-134431346D01*
X90323834Y-134436780D01*
X90343370Y-134442146D01*
X90362957Y-134447443D01*
X90382593Y-134452672D01*
X90402278Y-134457831D01*
X90422009Y-134462920D01*
X90441787Y-134467940D01*
X90461609Y-134472888D01*
X90481473Y-134477765D01*
X90501379Y-134482571D01*
X90521325Y-134487305D01*
X90541309Y-134491966D01*
X90561329Y-134496554D01*
X90581384Y-134501068D01*
X90601471Y-134505509D01*
X90621589Y-134509875D01*
X90641735Y-134514166D01*
X90661907Y-134518381D01*
X90682102Y-134522521D01*
X90702319Y-134526584D01*
X90722554Y-134530569D01*
X90742805Y-134534477D01*
X90763069Y-134538307D01*
X90783342Y-134542058D01*
X90803622Y-134545730D01*
X90823905Y-134549322D01*
X90844186Y-134552834D01*
X90864464Y-134556264D01*
X90884732Y-134559613D01*
X90904987Y-134562879D01*
X90925224Y-134566063D01*
X90945439Y-134569163D01*
X90965625Y-134572179D01*
X90985778Y-134575110D01*
X91005891Y-134577956D01*
X91025958Y-134580716D01*
X91045972Y-134583389D01*
X91065925Y-134585974D01*
X91085810Y-134588471D01*
X91105618Y-134590880D01*
X91125340Y-134593199D01*
X91144965Y-134595427D01*
X91164482Y-134597565D01*
X91183880Y-134599610D01*
X91203146Y-134601564D01*
X91222264Y-134603423D01*
X91241220Y-134605189D01*
X91259995Y-134606859D01*
X91278569Y-134608434D01*
X91296921Y-134609912D01*
X91315025Y-134611293D01*
X91332854Y-134612575D01*
X91350373Y-134613758D01*
X91367545Y-134614841D01*
X91384325Y-134615823D01*
X91400659Y-134616703D01*
X91416482Y-134617480D01*
X91431710Y-134618153D01*
X91446240Y-134618722D01*
X91459928Y-134619186D01*
X91472573Y-134619544D01*
X91483861Y-134619796D01*
X91493231Y-134619945D01*
X91500000Y-134620000D01*
X171600000Y-64350000D02*
X171610879Y-64350010D01*
X171621739Y-64350040D01*
X171632580Y-64350090D01*
X171643400Y-64350160D01*
X171654202Y-64350249D01*
X171664984Y-64350359D01*
X171675747Y-64350488D01*
X171686491Y-64350637D01*
X171697215Y-64350806D01*
X171707920Y-64350994D01*
X171718606Y-64351202D01*
X171729273Y-64351430D01*
X171739921Y-64351677D01*
X171750549Y-64351944D01*
X171761159Y-64352230D01*
X171771749Y-64352536D01*
X171782321Y-64352861D01*
X171792874Y-64353206D01*
X171803407Y-64353570D01*
X171813922Y-64353953D01*
X171824419Y-64354356D01*
X171834896Y-64354778D01*
X171845354Y-64355219D01*
X171855794Y-64355679D01*
X171866215Y-64356159D01*
X171876618Y-64356657D01*
X171887002Y-64357175D01*
X171897367Y-64357712D01*
X171907714Y-64358268D01*
X171918042Y-64358843D01*
X171928352Y-64359437D01*
X171938643Y-64360050D01*
X171948916Y-64360681D01*
X171959170Y-64361332D01*
X171969407Y-64362002D01*
X171979624Y-64362690D01*
X171989824Y-64363397D01*
X172000005Y-64364123D01*
X172010169Y-64364868D01*
X172020314Y-64365631D01*
X172030441Y-64366413D01*
X172040549Y-64367214D01*
X172050640Y-64368033D01*
X172060713Y-64368871D01*
X172070768Y-64369728D01*
X172080804Y-64370602D01*
X172090823Y-64371496D01*
X172100824Y-64372408D01*
X172110807Y-64373338D01*
X172120772Y-64374287D01*
X172130720Y-64375254D01*
X172140649Y-64376239D01*
X172150562Y-64377243D01*
X172160456Y-64378265D01*
X172170333Y-64379306D01*
X172180191Y-64380364D01*
X172190033Y-64381441D01*
X172199857Y-64382536D01*
X172209664Y-64383649D01*
X172219452Y-64384780D01*
X172229224Y-64385930D01*
X172238977Y-64387097D01*
X172248715Y-64388283D01*
X172258433Y-64389486D01*
X172268136Y-64390708D01*
X172277820Y-64391947D01*
X172287488Y-64393204D01*
X172297137Y-64394480D01*
X172306771Y-64395773D01*
X172316386Y-64397084D01*
X172325986Y-64398413D01*
X172335567Y-64399759D01*
X172345132Y-64401124D01*
X172354679Y-64402506D01*
X172364210Y-64403906D01*
X172373723Y-64405323D01*
X172383221Y-64406759D01*
X172392700Y-64408211D01*
X172402163Y-64409682D01*
X172411609Y-64411170D01*
X172421039Y-64412676D01*
X172430451Y-64414199D01*
X172439847Y-64415740D01*
X172449226Y-64417298D01*
X172458589Y-64418874D01*
X172467934Y-64420467D01*
X172477264Y-64422078D01*
X172486576Y-64423706D01*
X172495873Y-64425352D01*
X172505152Y-64427015D01*
X172514416Y-64428695D01*
X172523661Y-64430392D01*
X172532893Y-64432107D01*
X172542106Y-64433839D01*
X172551304Y-64435589D01*
X172560485Y-64437355D01*
X172569651Y-64439139D01*
X172578798Y-64440940D01*
X172587932Y-64442759D01*
X172597047Y-64444594D01*
X172606148Y-64446446D01*
X172615231Y-64448316D01*
X172624300Y-64450203D01*
X172633351Y-64452106D01*
X172642388Y-64454027D01*
X172651407Y-64455965D01*
X172660412Y-64457920D01*
X172669399Y-64459891D01*
X172678372Y-64461880D01*
X172687327Y-64463886D01*
X172696268Y-64465908D01*
X172705192Y-64467948D01*
X172714102Y-64470004D01*
X172722994Y-64472077D01*
X172731872Y-64474168D01*
X172740732Y-64476274D01*
X172749579Y-64478398D01*
X172758408Y-64480539D01*
X172767224Y-64482696D01*
X172776022Y-64484870D01*
X172784807Y-64487061D01*
X172793574Y-64489268D01*
X172802327Y-64491493D01*
X172811063Y-64493733D01*
X172819786Y-64495991D01*
X172828491Y-64498265D01*
X172837183Y-64500556D01*
X172845857Y-64502863D01*
X172854519Y-64505188D01*
X172863162Y-64507528D01*
X172871793Y-64509886D01*
X172880407Y-64512259D01*
X172889007Y-64514650D01*
X172897590Y-64517056D01*
X172906160Y-64519480D01*
X172914713Y-64521919D01*
X172923253Y-64524376D01*
X172931775Y-64526848D01*
X172940285Y-64529338D01*
X172948778Y-64531843D01*
X172957258Y-64534365D01*
X172965720Y-64536903D01*
X172974171Y-64539458D01*
X172982603Y-64542029D01*
X172991024Y-64544617D01*
X172999427Y-64547221D01*
X173016191Y-64552477D01*
X173032897Y-64557799D01*
X173049544Y-64563186D01*
X173066132Y-64568638D01*
X173082662Y-64574155D01*
X173099134Y-64579737D01*
X173115548Y-64585383D01*
X173131904Y-64591094D01*
X173148203Y-64596870D01*
X173164445Y-64602710D01*
X173180629Y-64608614D01*
X173196757Y-64614583D01*
X173212829Y-64620616D01*
X173228844Y-64626713D01*
X173244802Y-64632874D01*
X173260705Y-64639099D01*
X173276552Y-64645388D01*
X173292344Y-64651741D01*
X173308080Y-64658158D01*
X173323761Y-64664638D01*
X173339386Y-64671183D01*
X173354958Y-64677790D01*
X173370474Y-64684462D01*
X173385936Y-64691196D01*
X173401344Y-64697995D01*
X173416698Y-64704857D01*
X173431998Y-64711782D01*
X173447244Y-64718770D01*
X173462437Y-64725822D01*
X173477577Y-64732938D01*
X173492663Y-64740116D01*
X173507696Y-64747358D01*
X173522677Y-64754663D01*
X173537605Y-64762031D01*
X173552481Y-64769462D01*
X173567304Y-64776957D01*
X173582076Y-64784514D01*
X173596795Y-64792135D01*
X173611462Y-64799819D01*
X173626078Y-64807566D01*
X173640643Y-64815376D01*
X173655156Y-64823250D01*
X173669618Y-64831186D01*
X173684030Y-64839185D01*
X173698390Y-64847248D01*
X173712700Y-64855374D01*
X173726959Y-64863563D01*
X173741167Y-64871815D01*
X173755326Y-64880130D01*
X173769434Y-64888508D01*
X173783493Y-64896950D01*
X173797502Y-64905455D01*
X173811460Y-64914023D01*
X173825370Y-64922655D01*
X173839230Y-64931349D01*
X173853041Y-64940107D01*
X173866802Y-64948929D01*
X173880515Y-64957814D01*
X173894178Y-64966762D01*
X173907793Y-64975774D01*
X173921359Y-64984849D01*
X173934877Y-64993988D01*
X173948346Y-65003191D01*
X173961767Y-65012457D01*
X173975139Y-65021788D01*
X173988464Y-65031181D01*
X174001740Y-65040639D01*
X174014969Y-65050161D01*
X174028150Y-65059747D01*
X174041283Y-65069396D01*
X174054368Y-65079110D01*
X174067406Y-65088888D01*
X174080396Y-65098730D01*
X174093339Y-65108637D01*
X174106235Y-65118608D01*
X174119084Y-65128643D01*
X174131886Y-65138743D01*
X174144640Y-65148907D01*
X174157348Y-65159137D01*
X174170008Y-65169431D01*
X174182622Y-65179790D01*
X174195189Y-65190213D01*
X174207710Y-65200702D01*
X174220184Y-65211256D01*
X174232611Y-65221875D01*
X174244992Y-65232560D01*
X174257327Y-65243310D01*
X174269615Y-65254125D01*
X174281856Y-65265006D01*
X174294052Y-65275953D01*
X174306201Y-65286965D01*
X174318304Y-65298044D01*
X174330361Y-65309188D01*
X174342372Y-65320399D01*
X174354336Y-65331675D01*
X174366255Y-65343018D01*
X174378128Y-65354428D01*
X174389954Y-65365904D01*
X174401735Y-65377446D01*
X174413470Y-65389056D01*
X174425158Y-65400732D01*
X174436801Y-65412475D01*
X174448398Y-65424285D01*
X174459949Y-65436163D01*
X174471454Y-65448108D01*
X174482913Y-65460120D01*
X174494326Y-65472200D01*
X174505694Y-65484347D01*
X174517015Y-65496563D01*
X174528291Y-65508846D01*
X174539520Y-65521197D01*
X174550704Y-65533616D01*
X174561842Y-65546104D01*
X174572934Y-65558660D01*
X174583979Y-65571285D01*
X174594979Y-65583978D01*
X174605933Y-65596740D01*
X174616840Y-65609570D01*
X174627702Y-65622470D01*
X174638517Y-65635439D01*
X174649286Y-65648477D01*
X174660009Y-65661585D01*
X174670686Y-65674762D01*
X174681316Y-65688009D01*
X174691900Y-65701325D01*
X174702437Y-65714711D01*
X174712928Y-65728167D01*
X174723372Y-65741694D01*
X174733770Y-65755290D01*
X174744121Y-65768957D01*
X174754425Y-65782694D01*
X174764683Y-65796502D01*
X174774893Y-65810381D01*
X174785056Y-65824330D01*
X174795173Y-65838350D01*
X174805242Y-65852441D01*
X174815264Y-65866604D01*
X174825238Y-65880837D01*
X174835165Y-65895142D01*
X174845045Y-65909518D01*
X174854876Y-65923966D01*
X174864660Y-65938486D01*
X174874397Y-65953077D01*
X174884085Y-65967740D01*
X174893725Y-65982475D01*
X174903316Y-65997282D01*
X174912860Y-66012161D01*
X174922355Y-66027113D01*
X174931801Y-66042136D01*
X174941199Y-66057232D01*
X174950547Y-66072401D01*
X174959847Y-66087642D01*
X174969097Y-66102956D01*
X174978299Y-66118342D01*
X174987450Y-66133801D01*
X174996552Y-66149333D01*
X175005605Y-66164938D01*
X175014607Y-66180615D01*
X175023559Y-66196366D01*
X175032461Y-66212189D01*
X175041313Y-66228086D01*
X175050114Y-66244056D01*
X175058864Y-66260098D01*
X175067563Y-66276214D01*
X175076211Y-66292404D01*
X175084808Y-66308666D01*
X175093353Y-66325001D01*
X175101846Y-66341410D01*
X175110288Y-66357892D01*
X175118677Y-66374446D01*
X175127014Y-66391075D01*
X175135299Y-66407776D01*
X175143530Y-66424550D01*
X175151709Y-66441397D01*
X175159835Y-66458318D01*
X175167907Y-66475311D01*
X175175925Y-66492377D01*
X175183890Y-66509516D01*
X175191800Y-66526727D01*
X175199656Y-66544012D01*
X175207457Y-66561368D01*
X175215204Y-66578797D01*
X175222895Y-66596299D01*
X175230531Y-66613873D01*
X175238112Y-66631518D01*
X175245637Y-66649236D01*
X175253105Y-66667025D01*
X175260517Y-66684885D01*
X175267872Y-66702817D01*
X175275171Y-66720820D01*
X175282412Y-66738894D01*
X175289595Y-66757038D01*
X175296721Y-66775253D01*
X175303788Y-66793538D01*
X175310798Y-66811893D01*
X175317748Y-66830317D01*
X175324639Y-66848810D01*
X175331471Y-66867373D01*
X175338244Y-66886003D01*
X175344956Y-66904702D01*
X175351608Y-66923468D01*
X175358199Y-66942302D01*
X175364730Y-66961203D01*
X175371199Y-66980170D01*
X175377606Y-66999202D01*
X175383952Y-67018301D01*
X175390235Y-67037463D01*
X175396455Y-67056691D01*
X175402612Y-67075981D01*
X175408706Y-67095335D01*
X175414736Y-67114751D01*
X175420702Y-67134229D01*
X175426603Y-67153767D01*
X175432440Y-67173366D01*
X175438211Y-67193024D01*
X175443916Y-67212740D01*
X175449555Y-67232514D01*
X175455127Y-67252345D01*
X175460633Y-67272231D01*
X175466071Y-67292172D01*
X175471442Y-67312167D01*
X175476744Y-67332214D01*
X175481977Y-67352312D01*
X175487142Y-67372461D01*
X175492237Y-67392658D01*
X175497262Y-67412903D01*
X175502217Y-67433193D01*
X175507100Y-67453529D01*
X175511913Y-67473907D01*
X175516653Y-67494326D01*
X175521322Y-67514786D01*
X175525917Y-67535283D01*
X175530439Y-67555816D01*
X175534888Y-67576383D01*
X175539262Y-67596982D01*
X175543561Y-67617610D01*
X175547785Y-67638266D01*
X175551934Y-67658947D01*
X175556005Y-67679650D01*
X175560000Y-67700373D01*
X175563918Y-67721113D01*
X175567758Y-67741866D01*
X175571519Y-67762631D01*
X175575201Y-67783402D01*
X175578803Y-67804178D01*
X175582325Y-67824953D01*
X175585766Y-67845725D01*
X175589126Y-67866489D01*
X175592403Y-67887240D01*
X175595598Y-67907974D01*
X175598710Y-67928685D01*
X175601738Y-67949369D01*
X175604681Y-67970020D01*
X175607539Y-67990631D01*
X175610310Y-68011196D01*
X175612996Y-68031708D01*
X175615594Y-68052160D01*
X175618104Y-68072543D01*
X175620525Y-68092849D01*
X175622857Y-68113068D01*
X175625099Y-68133190D01*
X175627250Y-68153204D01*
X175629309Y-68173097D01*
X175631276Y-68192857D01*
X175633149Y-68212469D01*
X175634929Y-68231917D01*
X175636614Y-68251182D01*
X175638203Y-68270246D01*
X175639696Y-68289086D01*
X175641091Y-68307676D01*
X175642388Y-68325988D01*
X175643586Y-68343989D01*
X175644684Y-68361640D01*
X175645681Y-68378898D01*
X175646576Y-68395708D01*
X175647369Y-68412005D01*
X175648058Y-68427707D01*
X175648643Y-68442712D01*
X175649122Y-68456879D01*
X175649496Y-68470015D01*
X175649765Y-68481820D01*
X175649929Y-68491774D01*
X175649996Y-68498713D01*
X175650000Y-68500000D01*
D11*
X175650000Y-68500000D02*
X175650000Y-130570000D01*
X87450000Y-68500000D02*
X87450000Y-130570000D01*
M02*
