%TF.GenerationSoftware,KiCad,Pcbnew,9.0.0*%
%TF.CreationDate,2025-05-12T01:14:56+07:00*%
%TF.ProjectId,bittheater,62697474-6865-4617-9465-722e6b696361,rev?*%
%TF.SameCoordinates,Original*%
%TF.FileFunction,Legend,Top*%
%TF.FilePolarity,Positive*%
%FSLAX46Y46*%
G04 Gerber Fmt 4.6, Leading zero omitted, Abs format (unit mm)*
G04 Created by KiCad (PCBNEW 9.0.0) date 2025-05-12 01:14:56*
%MOMM*%
%LPD*%
G01*
G04 APERTURE LIST*
%ADD10C,0.200000*%
%ADD11C,0.150000*%
%ADD12C,0.120000*%
%ADD13C,2.000000*%
%ADD14R,1.600000X1.600000*%
%ADD15O,1.600000X1.600000*%
%ADD16C,1.600000*%
%ADD17R,1.700000X1.700000*%
%ADD18O,1.700000X1.700000*%
G04 APERTURE END LIST*
D10*
X96790000Y-70510000D02*
X139190000Y-70510000D01*
X139190000Y-89510000D01*
X96790000Y-89510000D01*
X96790000Y-70510000D01*
X91440000Y-68500000D02*
X171640000Y-68500000D01*
X171640000Y-104500000D01*
X91440000Y-104500000D01*
X91440000Y-68500000D01*
X164675863Y-104007219D02*
X164199673Y-104007219D01*
X164199673Y-104007219D02*
X164199673Y-103007219D01*
X165580625Y-103911980D02*
X165533006Y-103959600D01*
X165533006Y-103959600D02*
X165390149Y-104007219D01*
X165390149Y-104007219D02*
X165294911Y-104007219D01*
X165294911Y-104007219D02*
X165152054Y-103959600D01*
X165152054Y-103959600D02*
X165056816Y-103864361D01*
X165056816Y-103864361D02*
X165009197Y-103769123D01*
X165009197Y-103769123D02*
X164961578Y-103578647D01*
X164961578Y-103578647D02*
X164961578Y-103435790D01*
X164961578Y-103435790D02*
X165009197Y-103245314D01*
X165009197Y-103245314D02*
X165056816Y-103150076D01*
X165056816Y-103150076D02*
X165152054Y-103054838D01*
X165152054Y-103054838D02*
X165294911Y-103007219D01*
X165294911Y-103007219D02*
X165390149Y-103007219D01*
X165390149Y-103007219D02*
X165533006Y-103054838D01*
X165533006Y-103054838D02*
X165580625Y-103102457D01*
X166009197Y-104007219D02*
X166009197Y-103007219D01*
X166009197Y-103007219D02*
X166247292Y-103007219D01*
X166247292Y-103007219D02*
X166390149Y-103054838D01*
X166390149Y-103054838D02*
X166485387Y-103150076D01*
X166485387Y-103150076D02*
X166533006Y-103245314D01*
X166533006Y-103245314D02*
X166580625Y-103435790D01*
X166580625Y-103435790D02*
X166580625Y-103578647D01*
X166580625Y-103578647D02*
X166533006Y-103769123D01*
X166533006Y-103769123D02*
X166485387Y-103864361D01*
X166485387Y-103864361D02*
X166390149Y-103959600D01*
X166390149Y-103959600D02*
X166247292Y-104007219D01*
X166247292Y-104007219D02*
X166009197Y-104007219D01*
X168294911Y-104007219D02*
X167723483Y-104007219D01*
X168009197Y-104007219D02*
X168009197Y-103007219D01*
X168009197Y-103007219D02*
X167913959Y-103150076D01*
X167913959Y-103150076D02*
X167818721Y-103245314D01*
X167818721Y-103245314D02*
X167723483Y-103292933D01*
X169152054Y-103007219D02*
X168961578Y-103007219D01*
X168961578Y-103007219D02*
X168866340Y-103054838D01*
X168866340Y-103054838D02*
X168818721Y-103102457D01*
X168818721Y-103102457D02*
X168723483Y-103245314D01*
X168723483Y-103245314D02*
X168675864Y-103435790D01*
X168675864Y-103435790D02*
X168675864Y-103816742D01*
X168675864Y-103816742D02*
X168723483Y-103911980D01*
X168723483Y-103911980D02*
X168771102Y-103959600D01*
X168771102Y-103959600D02*
X168866340Y-104007219D01*
X168866340Y-104007219D02*
X169056816Y-104007219D01*
X169056816Y-104007219D02*
X169152054Y-103959600D01*
X169152054Y-103959600D02*
X169199673Y-103911980D01*
X169199673Y-103911980D02*
X169247292Y-103816742D01*
X169247292Y-103816742D02*
X169247292Y-103578647D01*
X169247292Y-103578647D02*
X169199673Y-103483409D01*
X169199673Y-103483409D02*
X169152054Y-103435790D01*
X169152054Y-103435790D02*
X169056816Y-103388171D01*
X169056816Y-103388171D02*
X168866340Y-103388171D01*
X168866340Y-103388171D02*
X168771102Y-103435790D01*
X168771102Y-103435790D02*
X168723483Y-103483409D01*
X168723483Y-103483409D02*
X168675864Y-103578647D01*
X169580626Y-104007219D02*
X170104435Y-103340552D01*
X169580626Y-103340552D02*
X170104435Y-104007219D01*
X170437769Y-103102457D02*
X170485388Y-103054838D01*
X170485388Y-103054838D02*
X170580626Y-103007219D01*
X170580626Y-103007219D02*
X170818721Y-103007219D01*
X170818721Y-103007219D02*
X170913959Y-103054838D01*
X170913959Y-103054838D02*
X170961578Y-103102457D01*
X170961578Y-103102457D02*
X171009197Y-103197695D01*
X171009197Y-103197695D02*
X171009197Y-103292933D01*
X171009197Y-103292933D02*
X170961578Y-103435790D01*
X170961578Y-103435790D02*
X170390150Y-104007219D01*
X170390150Y-104007219D02*
X171009197Y-104007219D01*
X129909673Y-88767219D02*
X129909673Y-87767219D01*
X130338244Y-87862457D02*
X130385863Y-87814838D01*
X130385863Y-87814838D02*
X130481101Y-87767219D01*
X130481101Y-87767219D02*
X130719196Y-87767219D01*
X130719196Y-87767219D02*
X130814434Y-87814838D01*
X130814434Y-87814838D02*
X130862053Y-87862457D01*
X130862053Y-87862457D02*
X130909672Y-87957695D01*
X130909672Y-87957695D02*
X130909672Y-88052933D01*
X130909672Y-88052933D02*
X130862053Y-88195790D01*
X130862053Y-88195790D02*
X130290625Y-88767219D01*
X130290625Y-88767219D02*
X130909672Y-88767219D01*
X131909672Y-88671980D02*
X131862053Y-88719600D01*
X131862053Y-88719600D02*
X131719196Y-88767219D01*
X131719196Y-88767219D02*
X131623958Y-88767219D01*
X131623958Y-88767219D02*
X131481101Y-88719600D01*
X131481101Y-88719600D02*
X131385863Y-88624361D01*
X131385863Y-88624361D02*
X131338244Y-88529123D01*
X131338244Y-88529123D02*
X131290625Y-88338647D01*
X131290625Y-88338647D02*
X131290625Y-88195790D01*
X131290625Y-88195790D02*
X131338244Y-88005314D01*
X131338244Y-88005314D02*
X131385863Y-87910076D01*
X131385863Y-87910076D02*
X131481101Y-87814838D01*
X131481101Y-87814838D02*
X131623958Y-87767219D01*
X131623958Y-87767219D02*
X131719196Y-87767219D01*
X131719196Y-87767219D02*
X131862053Y-87814838D01*
X131862053Y-87814838D02*
X131909672Y-87862457D01*
X133052530Y-88481504D02*
X133528720Y-88481504D01*
X132957292Y-88767219D02*
X133290625Y-87767219D01*
X133290625Y-87767219D02*
X133623958Y-88767219D01*
X134385863Y-88767219D02*
X134385863Y-87767219D01*
X134385863Y-88719600D02*
X134290625Y-88767219D01*
X134290625Y-88767219D02*
X134100149Y-88767219D01*
X134100149Y-88767219D02*
X134004911Y-88719600D01*
X134004911Y-88719600D02*
X133957292Y-88671980D01*
X133957292Y-88671980D02*
X133909673Y-88576742D01*
X133909673Y-88576742D02*
X133909673Y-88291028D01*
X133909673Y-88291028D02*
X133957292Y-88195790D01*
X133957292Y-88195790D02*
X134004911Y-88148171D01*
X134004911Y-88148171D02*
X134100149Y-88100552D01*
X134100149Y-88100552D02*
X134290625Y-88100552D01*
X134290625Y-88100552D02*
X134385863Y-88148171D01*
X135290625Y-88767219D02*
X135290625Y-88243409D01*
X135290625Y-88243409D02*
X135243006Y-88148171D01*
X135243006Y-88148171D02*
X135147768Y-88100552D01*
X135147768Y-88100552D02*
X134957292Y-88100552D01*
X134957292Y-88100552D02*
X134862054Y-88148171D01*
X135290625Y-88719600D02*
X135195387Y-88767219D01*
X135195387Y-88767219D02*
X134957292Y-88767219D01*
X134957292Y-88767219D02*
X134862054Y-88719600D01*
X134862054Y-88719600D02*
X134814435Y-88624361D01*
X134814435Y-88624361D02*
X134814435Y-88529123D01*
X134814435Y-88529123D02*
X134862054Y-88433885D01*
X134862054Y-88433885D02*
X134957292Y-88386266D01*
X134957292Y-88386266D02*
X135195387Y-88386266D01*
X135195387Y-88386266D02*
X135290625Y-88338647D01*
X135766816Y-88100552D02*
X135766816Y-89100552D01*
X135766816Y-88148171D02*
X135862054Y-88100552D01*
X135862054Y-88100552D02*
X136052530Y-88100552D01*
X136052530Y-88100552D02*
X136147768Y-88148171D01*
X136147768Y-88148171D02*
X136195387Y-88195790D01*
X136195387Y-88195790D02*
X136243006Y-88291028D01*
X136243006Y-88291028D02*
X136243006Y-88576742D01*
X136243006Y-88576742D02*
X136195387Y-88671980D01*
X136195387Y-88671980D02*
X136147768Y-88719600D01*
X136147768Y-88719600D02*
X136052530Y-88767219D01*
X136052530Y-88767219D02*
X135862054Y-88767219D01*
X135862054Y-88767219D02*
X135766816Y-88719600D01*
X136528721Y-88100552D02*
X136909673Y-88100552D01*
X136671578Y-87767219D02*
X136671578Y-88624361D01*
X136671578Y-88624361D02*
X136719197Y-88719600D01*
X136719197Y-88719600D02*
X136814435Y-88767219D01*
X136814435Y-88767219D02*
X136909673Y-88767219D01*
X137623959Y-88719600D02*
X137528721Y-88767219D01*
X137528721Y-88767219D02*
X137338245Y-88767219D01*
X137338245Y-88767219D02*
X137243007Y-88719600D01*
X137243007Y-88719600D02*
X137195388Y-88624361D01*
X137195388Y-88624361D02*
X137195388Y-88243409D01*
X137195388Y-88243409D02*
X137243007Y-88148171D01*
X137243007Y-88148171D02*
X137338245Y-88100552D01*
X137338245Y-88100552D02*
X137528721Y-88100552D01*
X137528721Y-88100552D02*
X137623959Y-88148171D01*
X137623959Y-88148171D02*
X137671578Y-88243409D01*
X137671578Y-88243409D02*
X137671578Y-88338647D01*
X137671578Y-88338647D02*
X137195388Y-88433885D01*
X138100150Y-88767219D02*
X138100150Y-88100552D01*
X138100150Y-88291028D02*
X138147769Y-88195790D01*
X138147769Y-88195790D02*
X138195388Y-88148171D01*
X138195388Y-88148171D02*
X138290626Y-88100552D01*
X138290626Y-88100552D02*
X138385864Y-88100552D01*
D11*
X148093809Y-110167200D02*
X148236666Y-110214819D01*
X148236666Y-110214819D02*
X148474761Y-110214819D01*
X148474761Y-110214819D02*
X148569999Y-110167200D01*
X148569999Y-110167200D02*
X148617618Y-110119580D01*
X148617618Y-110119580D02*
X148665237Y-110024342D01*
X148665237Y-110024342D02*
X148665237Y-109929104D01*
X148665237Y-109929104D02*
X148617618Y-109833866D01*
X148617618Y-109833866D02*
X148569999Y-109786247D01*
X148569999Y-109786247D02*
X148474761Y-109738628D01*
X148474761Y-109738628D02*
X148284285Y-109691009D01*
X148284285Y-109691009D02*
X148189047Y-109643390D01*
X148189047Y-109643390D02*
X148141428Y-109595771D01*
X148141428Y-109595771D02*
X148093809Y-109500533D01*
X148093809Y-109500533D02*
X148093809Y-109405295D01*
X148093809Y-109405295D02*
X148141428Y-109310057D01*
X148141428Y-109310057D02*
X148189047Y-109262438D01*
X148189047Y-109262438D02*
X148284285Y-109214819D01*
X148284285Y-109214819D02*
X148522380Y-109214819D01*
X148522380Y-109214819D02*
X148665237Y-109262438D01*
X149093809Y-109691009D02*
X149427142Y-109691009D01*
X149569999Y-110214819D02*
X149093809Y-110214819D01*
X149093809Y-110214819D02*
X149093809Y-109214819D01*
X149093809Y-109214819D02*
X149569999Y-109214819D01*
X150474761Y-110214819D02*
X149998571Y-110214819D01*
X149998571Y-110214819D02*
X149998571Y-109214819D01*
X150808095Y-109691009D02*
X151141428Y-109691009D01*
X151284285Y-110214819D02*
X150808095Y-110214819D01*
X150808095Y-110214819D02*
X150808095Y-109214819D01*
X150808095Y-109214819D02*
X151284285Y-109214819D01*
X152284285Y-110119580D02*
X152236666Y-110167200D01*
X152236666Y-110167200D02*
X152093809Y-110214819D01*
X152093809Y-110214819D02*
X151998571Y-110214819D01*
X151998571Y-110214819D02*
X151855714Y-110167200D01*
X151855714Y-110167200D02*
X151760476Y-110071961D01*
X151760476Y-110071961D02*
X151712857Y-109976723D01*
X151712857Y-109976723D02*
X151665238Y-109786247D01*
X151665238Y-109786247D02*
X151665238Y-109643390D01*
X151665238Y-109643390D02*
X151712857Y-109452914D01*
X151712857Y-109452914D02*
X151760476Y-109357676D01*
X151760476Y-109357676D02*
X151855714Y-109262438D01*
X151855714Y-109262438D02*
X151998571Y-109214819D01*
X151998571Y-109214819D02*
X152093809Y-109214819D01*
X152093809Y-109214819D02*
X152236666Y-109262438D01*
X152236666Y-109262438D02*
X152284285Y-109310057D01*
X152570000Y-109214819D02*
X153141428Y-109214819D01*
X152855714Y-110214819D02*
X152855714Y-109214819D01*
X132858095Y-119834819D02*
X132858095Y-118834819D01*
X132858095Y-118834819D02*
X133429523Y-119834819D01*
X133429523Y-119834819D02*
X133429523Y-118834819D01*
X133858095Y-119549104D02*
X134334285Y-119549104D01*
X133762857Y-119834819D02*
X134096190Y-118834819D01*
X134096190Y-118834819D02*
X134429523Y-119834819D01*
X134762857Y-119834819D02*
X134762857Y-118834819D01*
X134762857Y-118834819D02*
X135334285Y-119834819D01*
X135334285Y-119834819D02*
X135334285Y-118834819D01*
X136000952Y-118834819D02*
X136191428Y-118834819D01*
X136191428Y-118834819D02*
X136286666Y-118882438D01*
X136286666Y-118882438D02*
X136381904Y-118977676D01*
X136381904Y-118977676D02*
X136429523Y-119168152D01*
X136429523Y-119168152D02*
X136429523Y-119501485D01*
X136429523Y-119501485D02*
X136381904Y-119691961D01*
X136381904Y-119691961D02*
X136286666Y-119787200D01*
X136286666Y-119787200D02*
X136191428Y-119834819D01*
X136191428Y-119834819D02*
X136000952Y-119834819D01*
X136000952Y-119834819D02*
X135905714Y-119787200D01*
X135905714Y-119787200D02*
X135810476Y-119691961D01*
X135810476Y-119691961D02*
X135762857Y-119501485D01*
X135762857Y-119501485D02*
X135762857Y-119168152D01*
X135762857Y-119168152D02*
X135810476Y-118977676D01*
X135810476Y-118977676D02*
X135905714Y-118882438D01*
X135905714Y-118882438D02*
X136000952Y-118834819D01*
X99605180Y-118118095D02*
X98795657Y-118118095D01*
X98795657Y-118118095D02*
X98700419Y-118165714D01*
X98700419Y-118165714D02*
X98652800Y-118213333D01*
X98652800Y-118213333D02*
X98605180Y-118308571D01*
X98605180Y-118308571D02*
X98605180Y-118499047D01*
X98605180Y-118499047D02*
X98652800Y-118594285D01*
X98652800Y-118594285D02*
X98700419Y-118641904D01*
X98700419Y-118641904D02*
X98795657Y-118689523D01*
X98795657Y-118689523D02*
X99605180Y-118689523D01*
X98652800Y-119118095D02*
X98605180Y-119260952D01*
X98605180Y-119260952D02*
X98605180Y-119499047D01*
X98605180Y-119499047D02*
X98652800Y-119594285D01*
X98652800Y-119594285D02*
X98700419Y-119641904D01*
X98700419Y-119641904D02*
X98795657Y-119689523D01*
X98795657Y-119689523D02*
X98890895Y-119689523D01*
X98890895Y-119689523D02*
X98986133Y-119641904D01*
X98986133Y-119641904D02*
X99033752Y-119594285D01*
X99033752Y-119594285D02*
X99081371Y-119499047D01*
X99081371Y-119499047D02*
X99128990Y-119308571D01*
X99128990Y-119308571D02*
X99176609Y-119213333D01*
X99176609Y-119213333D02*
X99224228Y-119165714D01*
X99224228Y-119165714D02*
X99319466Y-119118095D01*
X99319466Y-119118095D02*
X99414704Y-119118095D01*
X99414704Y-119118095D02*
X99509942Y-119165714D01*
X99509942Y-119165714D02*
X99557561Y-119213333D01*
X99557561Y-119213333D02*
X99605180Y-119308571D01*
X99605180Y-119308571D02*
X99605180Y-119546666D01*
X99605180Y-119546666D02*
X99557561Y-119689523D01*
X99128990Y-120451428D02*
X99081371Y-120594285D01*
X99081371Y-120594285D02*
X99033752Y-120641904D01*
X99033752Y-120641904D02*
X98938514Y-120689523D01*
X98938514Y-120689523D02*
X98795657Y-120689523D01*
X98795657Y-120689523D02*
X98700419Y-120641904D01*
X98700419Y-120641904D02*
X98652800Y-120594285D01*
X98652800Y-120594285D02*
X98605180Y-120499047D01*
X98605180Y-120499047D02*
X98605180Y-120118095D01*
X98605180Y-120118095D02*
X99605180Y-120118095D01*
X99605180Y-120118095D02*
X99605180Y-120451428D01*
X99605180Y-120451428D02*
X99557561Y-120546666D01*
X99557561Y-120546666D02*
X99509942Y-120594285D01*
X99509942Y-120594285D02*
X99414704Y-120641904D01*
X99414704Y-120641904D02*
X99319466Y-120641904D01*
X99319466Y-120641904D02*
X99224228Y-120594285D01*
X99224228Y-120594285D02*
X99176609Y-120546666D01*
X99176609Y-120546666D02*
X99128990Y-120451428D01*
X99128990Y-120451428D02*
X99128990Y-120118095D01*
X163139523Y-122544819D02*
X162568095Y-122544819D01*
X162853809Y-122544819D02*
X162853809Y-121544819D01*
X162853809Y-121544819D02*
X162758571Y-121687676D01*
X162758571Y-121687676D02*
X162663333Y-121782914D01*
X162663333Y-121782914D02*
X162568095Y-121830533D01*
X163758571Y-121544819D02*
X163853809Y-121544819D01*
X163853809Y-121544819D02*
X163949047Y-121592438D01*
X163949047Y-121592438D02*
X163996666Y-121640057D01*
X163996666Y-121640057D02*
X164044285Y-121735295D01*
X164044285Y-121735295D02*
X164091904Y-121925771D01*
X164091904Y-121925771D02*
X164091904Y-122163866D01*
X164091904Y-122163866D02*
X164044285Y-122354342D01*
X164044285Y-122354342D02*
X163996666Y-122449580D01*
X163996666Y-122449580D02*
X163949047Y-122497200D01*
X163949047Y-122497200D02*
X163853809Y-122544819D01*
X163853809Y-122544819D02*
X163758571Y-122544819D01*
X163758571Y-122544819D02*
X163663333Y-122497200D01*
X163663333Y-122497200D02*
X163615714Y-122449580D01*
X163615714Y-122449580D02*
X163568095Y-122354342D01*
X163568095Y-122354342D02*
X163520476Y-122163866D01*
X163520476Y-122163866D02*
X163520476Y-121925771D01*
X163520476Y-121925771D02*
X163568095Y-121735295D01*
X163568095Y-121735295D02*
X163615714Y-121640057D01*
X163615714Y-121640057D02*
X163663333Y-121592438D01*
X163663333Y-121592438D02*
X163758571Y-121544819D01*
X164520476Y-122544819D02*
X164520476Y-121544819D01*
X165091904Y-122544819D02*
X164663333Y-121973390D01*
X165091904Y-121544819D02*
X164520476Y-122116247D01*
X163139523Y-112384819D02*
X162568095Y-112384819D01*
X162853809Y-112384819D02*
X162853809Y-111384819D01*
X162853809Y-111384819D02*
X162758571Y-111527676D01*
X162758571Y-111527676D02*
X162663333Y-111622914D01*
X162663333Y-111622914D02*
X162568095Y-111670533D01*
X163758571Y-111384819D02*
X163853809Y-111384819D01*
X163853809Y-111384819D02*
X163949047Y-111432438D01*
X163949047Y-111432438D02*
X163996666Y-111480057D01*
X163996666Y-111480057D02*
X164044285Y-111575295D01*
X164044285Y-111575295D02*
X164091904Y-111765771D01*
X164091904Y-111765771D02*
X164091904Y-112003866D01*
X164091904Y-112003866D02*
X164044285Y-112194342D01*
X164044285Y-112194342D02*
X163996666Y-112289580D01*
X163996666Y-112289580D02*
X163949047Y-112337200D01*
X163949047Y-112337200D02*
X163853809Y-112384819D01*
X163853809Y-112384819D02*
X163758571Y-112384819D01*
X163758571Y-112384819D02*
X163663333Y-112337200D01*
X163663333Y-112337200D02*
X163615714Y-112289580D01*
X163615714Y-112289580D02*
X163568095Y-112194342D01*
X163568095Y-112194342D02*
X163520476Y-112003866D01*
X163520476Y-112003866D02*
X163520476Y-111765771D01*
X163520476Y-111765771D02*
X163568095Y-111575295D01*
X163568095Y-111575295D02*
X163615714Y-111480057D01*
X163615714Y-111480057D02*
X163663333Y-111432438D01*
X163663333Y-111432438D02*
X163758571Y-111384819D01*
X164520476Y-112384819D02*
X164520476Y-111384819D01*
X165091904Y-112384819D02*
X164663333Y-111813390D01*
X165091904Y-111384819D02*
X164520476Y-111956247D01*
X103324819Y-82962380D02*
X102324819Y-82962380D01*
X102420057Y-82533809D02*
X102372438Y-82486190D01*
X102372438Y-82486190D02*
X102324819Y-82390952D01*
X102324819Y-82390952D02*
X102324819Y-82152857D01*
X102324819Y-82152857D02*
X102372438Y-82057619D01*
X102372438Y-82057619D02*
X102420057Y-82010000D01*
X102420057Y-82010000D02*
X102515295Y-81962381D01*
X102515295Y-81962381D02*
X102610533Y-81962381D01*
X102610533Y-81962381D02*
X102753390Y-82010000D01*
X102753390Y-82010000D02*
X103324819Y-82581428D01*
X103324819Y-82581428D02*
X103324819Y-81962381D01*
X103229580Y-80962381D02*
X103277200Y-81010000D01*
X103277200Y-81010000D02*
X103324819Y-81152857D01*
X103324819Y-81152857D02*
X103324819Y-81248095D01*
X103324819Y-81248095D02*
X103277200Y-81390952D01*
X103277200Y-81390952D02*
X103181961Y-81486190D01*
X103181961Y-81486190D02*
X103086723Y-81533809D01*
X103086723Y-81533809D02*
X102896247Y-81581428D01*
X102896247Y-81581428D02*
X102753390Y-81581428D01*
X102753390Y-81581428D02*
X102562914Y-81533809D01*
X102562914Y-81533809D02*
X102467676Y-81486190D01*
X102467676Y-81486190D02*
X102372438Y-81390952D01*
X102372438Y-81390952D02*
X102324819Y-81248095D01*
X102324819Y-81248095D02*
X102324819Y-81152857D01*
X102324819Y-81152857D02*
X102372438Y-81010000D01*
X102372438Y-81010000D02*
X102420057Y-80962381D01*
X103324819Y-79771904D02*
X102324819Y-79771904D01*
X102324819Y-79771904D02*
X102324819Y-79390952D01*
X102324819Y-79390952D02*
X102372438Y-79295714D01*
X102372438Y-79295714D02*
X102420057Y-79248095D01*
X102420057Y-79248095D02*
X102515295Y-79200476D01*
X102515295Y-79200476D02*
X102658152Y-79200476D01*
X102658152Y-79200476D02*
X102753390Y-79248095D01*
X102753390Y-79248095D02*
X102801009Y-79295714D01*
X102801009Y-79295714D02*
X102848628Y-79390952D01*
X102848628Y-79390952D02*
X102848628Y-79771904D01*
X103324819Y-78771904D02*
X102658152Y-78771904D01*
X102324819Y-78771904D02*
X102372438Y-78819523D01*
X102372438Y-78819523D02*
X102420057Y-78771904D01*
X102420057Y-78771904D02*
X102372438Y-78724285D01*
X102372438Y-78724285D02*
X102324819Y-78771904D01*
X102324819Y-78771904D02*
X102420057Y-78771904D01*
X102658152Y-78295714D02*
X103324819Y-78295714D01*
X102753390Y-78295714D02*
X102705771Y-78248095D01*
X102705771Y-78248095D02*
X102658152Y-78152857D01*
X102658152Y-78152857D02*
X102658152Y-78010000D01*
X102658152Y-78010000D02*
X102705771Y-77914762D01*
X102705771Y-77914762D02*
X102801009Y-77867143D01*
X102801009Y-77867143D02*
X103324819Y-77867143D01*
X103277200Y-77438571D02*
X103324819Y-77343333D01*
X103324819Y-77343333D02*
X103324819Y-77152857D01*
X103324819Y-77152857D02*
X103277200Y-77057619D01*
X103277200Y-77057619D02*
X103181961Y-77010000D01*
X103181961Y-77010000D02*
X103134342Y-77010000D01*
X103134342Y-77010000D02*
X103039104Y-77057619D01*
X103039104Y-77057619D02*
X102991485Y-77152857D01*
X102991485Y-77152857D02*
X102991485Y-77295714D01*
X102991485Y-77295714D02*
X102943866Y-77390952D01*
X102943866Y-77390952D02*
X102848628Y-77438571D01*
X102848628Y-77438571D02*
X102801009Y-77438571D01*
X102801009Y-77438571D02*
X102705771Y-77390952D01*
X102705771Y-77390952D02*
X102658152Y-77295714D01*
X102658152Y-77295714D02*
X102658152Y-77152857D01*
X102658152Y-77152857D02*
X102705771Y-77057619D01*
X148593809Y-120907200D02*
X148736666Y-120954819D01*
X148736666Y-120954819D02*
X148974761Y-120954819D01*
X148974761Y-120954819D02*
X149069999Y-120907200D01*
X149069999Y-120907200D02*
X149117618Y-120859580D01*
X149117618Y-120859580D02*
X149165237Y-120764342D01*
X149165237Y-120764342D02*
X149165237Y-120669104D01*
X149165237Y-120669104D02*
X149117618Y-120573866D01*
X149117618Y-120573866D02*
X149069999Y-120526247D01*
X149069999Y-120526247D02*
X148974761Y-120478628D01*
X148974761Y-120478628D02*
X148784285Y-120431009D01*
X148784285Y-120431009D02*
X148689047Y-120383390D01*
X148689047Y-120383390D02*
X148641428Y-120335771D01*
X148641428Y-120335771D02*
X148593809Y-120240533D01*
X148593809Y-120240533D02*
X148593809Y-120145295D01*
X148593809Y-120145295D02*
X148641428Y-120050057D01*
X148641428Y-120050057D02*
X148689047Y-120002438D01*
X148689047Y-120002438D02*
X148784285Y-119954819D01*
X148784285Y-119954819D02*
X149022380Y-119954819D01*
X149022380Y-119954819D02*
X149165237Y-120002438D01*
X149450952Y-119954819D02*
X150022380Y-119954819D01*
X149736666Y-120954819D02*
X149736666Y-119954819D01*
X150308095Y-120669104D02*
X150784285Y-120669104D01*
X150212857Y-120954819D02*
X150546190Y-119954819D01*
X150546190Y-119954819D02*
X150879523Y-120954819D01*
X151784285Y-120954819D02*
X151450952Y-120478628D01*
X151212857Y-120954819D02*
X151212857Y-119954819D01*
X151212857Y-119954819D02*
X151593809Y-119954819D01*
X151593809Y-119954819D02*
X151689047Y-120002438D01*
X151689047Y-120002438D02*
X151736666Y-120050057D01*
X151736666Y-120050057D02*
X151784285Y-120145295D01*
X151784285Y-120145295D02*
X151784285Y-120288152D01*
X151784285Y-120288152D02*
X151736666Y-120383390D01*
X151736666Y-120383390D02*
X151689047Y-120431009D01*
X151689047Y-120431009D02*
X151593809Y-120478628D01*
X151593809Y-120478628D02*
X151212857Y-120478628D01*
X152070000Y-119954819D02*
X152641428Y-119954819D01*
X152355714Y-120954819D02*
X152355714Y-119954819D01*
D12*
%TO.C,SELECT*%
X147070000Y-113260000D02*
X147070000Y-114760000D01*
X148320000Y-117260000D02*
X152820000Y-117260000D01*
X152820000Y-110760000D02*
X148320000Y-110760000D01*
X154070000Y-114760000D02*
X154070000Y-113260000D01*
%TO.C,NANO*%
X92580000Y-115440000D02*
X103000000Y-115440000D01*
X92580000Y-123320000D02*
X92580000Y-115440000D01*
X95120000Y-110360000D02*
X95120000Y-115440000D01*
X95120000Y-128400000D02*
X95120000Y-123320000D01*
X95120000Y-128400000D02*
X138560000Y-128400000D01*
X97790000Y-113030000D02*
X97790000Y-110360000D01*
X97790000Y-125730000D02*
X97790000Y-128400000D01*
X103000000Y-115440000D02*
X103000000Y-123320000D01*
X103000000Y-123320000D02*
X92580000Y-123320000D01*
X133350000Y-110360000D02*
X95120000Y-110360000D01*
X133350000Y-113030000D02*
X97790000Y-113030000D01*
X133350000Y-113030000D02*
X133350000Y-110360000D01*
X133350000Y-113030000D02*
X135890000Y-113030000D01*
X135890000Y-113030000D02*
X135890000Y-110360000D01*
X135890000Y-125730000D02*
X97790000Y-125730000D01*
X135890000Y-125730000D02*
X135890000Y-128400000D01*
X138560000Y-110360000D02*
X135890000Y-110360000D01*
X138560000Y-128400000D02*
X138560000Y-110360000D01*
%TO.C,10K*%
X160560000Y-123090000D02*
X167100000Y-123090000D01*
X160560000Y-123420000D02*
X160560000Y-123090000D01*
X160560000Y-125500000D02*
X160560000Y-125830000D01*
X160560000Y-125830000D02*
X167100000Y-125830000D01*
X167100000Y-123090000D02*
X167100000Y-123420000D01*
X167100000Y-125830000D02*
X167100000Y-125500000D01*
X160560000Y-112930000D02*
X167100000Y-112930000D01*
X160560000Y-113260000D02*
X160560000Y-112930000D01*
X160560000Y-115340000D02*
X160560000Y-115670000D01*
X160560000Y-115670000D02*
X167100000Y-115670000D01*
X167100000Y-112930000D02*
X167100000Y-113260000D01*
X167100000Y-115670000D02*
X167100000Y-115340000D01*
%TO.C,I2C Pins*%
X97730000Y-77470000D02*
X97730000Y-85150000D01*
X97730000Y-77470000D02*
X100390000Y-77470000D01*
X97730000Y-85150000D02*
X100390000Y-85150000D01*
X99060000Y-74870000D02*
X100390000Y-74870000D01*
X100390000Y-74870000D02*
X100390000Y-76200000D01*
X100390000Y-77470000D02*
X100390000Y-85150000D01*
%TO.C,START*%
X147070000Y-124000000D02*
X147070000Y-125500000D01*
X148320000Y-128000000D02*
X152820000Y-128000000D01*
X152820000Y-121500000D02*
X148320000Y-121500000D01*
X154070000Y-125500000D02*
X154070000Y-124000000D01*
%TD*%
%LPC*%
D13*
%TO.C,SELECT*%
X147320000Y-111760000D03*
X153820000Y-111760000D03*
X147320000Y-116260000D03*
X153820000Y-116260000D03*
%TD*%
D14*
%TO.C,NANO*%
X134620000Y-111760000D03*
D15*
X132080000Y-111760000D03*
X129540000Y-111760000D03*
X127000000Y-111760000D03*
X124460000Y-111760000D03*
X121920000Y-111760000D03*
X119380000Y-111760000D03*
X116840000Y-111760000D03*
X114300000Y-111760000D03*
X111760000Y-111760000D03*
X109220000Y-111760000D03*
X106680000Y-111760000D03*
X104140000Y-111760000D03*
X101600000Y-111760000D03*
X99060000Y-111760000D03*
X99060000Y-127000000D03*
X101600000Y-127000000D03*
X104140000Y-127000000D03*
X106680000Y-127000000D03*
X109220000Y-127000000D03*
X111760000Y-127000000D03*
X114300000Y-127000000D03*
X116840000Y-127000000D03*
X119380000Y-127000000D03*
X121920000Y-127000000D03*
X124460000Y-127000000D03*
X127000000Y-127000000D03*
X129540000Y-127000000D03*
X132080000Y-127000000D03*
X134620000Y-127000000D03*
%TD*%
D16*
%TO.C,10K*%
X160020000Y-124460000D03*
D15*
X167640000Y-124460000D03*
%TD*%
D16*
%TO.C,10K*%
X160020000Y-114300000D03*
D15*
X167640000Y-114300000D03*
%TD*%
D17*
%TO.C,I2C Pins*%
X99060000Y-76200000D03*
D18*
X99060000Y-78740000D03*
X99060000Y-81280000D03*
X99060000Y-83820000D03*
%TD*%
D13*
%TO.C,START*%
X147320000Y-122500000D03*
X153820000Y-122500000D03*
X147320000Y-127000000D03*
X153820000Y-127000000D03*
%TD*%
%LPD*%
M02*
