%TF.GenerationSoftware,KiCad,Pcbnew,9.0.0*%
%TF.CreationDate,2025-05-12T01:14:56+07:00*%
%TF.ProjectId,bittheater,62697474-6865-4617-9465-722e6b696361,rev?*%
%TF.SameCoordinates,Original*%
%TF.FileFunction,Soldermask,Top*%
%TF.FilePolarity,Negative*%
%FSLAX46Y46*%
G04 Gerber Fmt 4.6, Leading zero omitted, Abs format (unit mm)*
G04 Created by KiCad (PCBNEW 9.0.0) date 2025-05-12 01:14:56*
%MOMM*%
%LPD*%
G01*
G04 APERTURE LIST*
G04 APERTURE END LIST*
G36*
X147610285Y-126043060D02*
G01*
X147791397Y-126118079D01*
X147954393Y-126226990D01*
X148093010Y-126365607D01*
X148201921Y-126528603D01*
X148276940Y-126709715D01*
X148315185Y-126901983D01*
X148315185Y-127098017D01*
X148276940Y-127290285D01*
X148201921Y-127471397D01*
X148093010Y-127634393D01*
X147954393Y-127773010D01*
X147791397Y-127881921D01*
X147610285Y-127956940D01*
X147418017Y-127995185D01*
X147221983Y-127995185D01*
X147029715Y-127956940D01*
X146848603Y-127881921D01*
X146685607Y-127773010D01*
X146546990Y-127634393D01*
X146438079Y-127471397D01*
X146363060Y-127290285D01*
X146324815Y-127098017D01*
X146324815Y-126901983D01*
X146363060Y-126709715D01*
X146438079Y-126528603D01*
X146546990Y-126365607D01*
X146685607Y-126226990D01*
X146848603Y-126118079D01*
X147029715Y-126043060D01*
X147221983Y-126004815D01*
X147418017Y-126004815D01*
X147610285Y-126043060D01*
G37*
G36*
X154110285Y-126043060D02*
G01*
X154291397Y-126118079D01*
X154454393Y-126226990D01*
X154593010Y-126365607D01*
X154701921Y-126528603D01*
X154776940Y-126709715D01*
X154815185Y-126901983D01*
X154815185Y-127098017D01*
X154776940Y-127290285D01*
X154701921Y-127471397D01*
X154593010Y-127634393D01*
X154454393Y-127773010D01*
X154291397Y-127881921D01*
X154110285Y-127956940D01*
X153918017Y-127995185D01*
X153721983Y-127995185D01*
X153529715Y-127956940D01*
X153348603Y-127881921D01*
X153185607Y-127773010D01*
X153046990Y-127634393D01*
X152938079Y-127471397D01*
X152863060Y-127290285D01*
X152824815Y-127098017D01*
X152824815Y-126901983D01*
X152863060Y-126709715D01*
X152938079Y-126528603D01*
X153046990Y-126365607D01*
X153185607Y-126226990D01*
X153348603Y-126118079D01*
X153529715Y-126043060D01*
X153721983Y-126004815D01*
X153918017Y-126004815D01*
X154110285Y-126043060D01*
G37*
G36*
X99292228Y-126234448D02*
G01*
X99437117Y-126294463D01*
X99567515Y-126381592D01*
X99678408Y-126492485D01*
X99765537Y-126622883D01*
X99825552Y-126767772D01*
X99856148Y-126921586D01*
X99856148Y-127078414D01*
X99825552Y-127232228D01*
X99765537Y-127377117D01*
X99678408Y-127507515D01*
X99567515Y-127618408D01*
X99437117Y-127705537D01*
X99292228Y-127765552D01*
X99138414Y-127796148D01*
X98981586Y-127796148D01*
X98827772Y-127765552D01*
X98682883Y-127705537D01*
X98552485Y-127618408D01*
X98441592Y-127507515D01*
X98354463Y-127377117D01*
X98294448Y-127232228D01*
X98263852Y-127078414D01*
X98263852Y-126921586D01*
X98294448Y-126767772D01*
X98354463Y-126622883D01*
X98441592Y-126492485D01*
X98552485Y-126381592D01*
X98682883Y-126294463D01*
X98827772Y-126234448D01*
X98981586Y-126203852D01*
X99138414Y-126203852D01*
X99292228Y-126234448D01*
G37*
G36*
X101832228Y-126234448D02*
G01*
X101977117Y-126294463D01*
X102107515Y-126381592D01*
X102218408Y-126492485D01*
X102305537Y-126622883D01*
X102365552Y-126767772D01*
X102396148Y-126921586D01*
X102396148Y-127078414D01*
X102365552Y-127232228D01*
X102305537Y-127377117D01*
X102218408Y-127507515D01*
X102107515Y-127618408D01*
X101977117Y-127705537D01*
X101832228Y-127765552D01*
X101678414Y-127796148D01*
X101521586Y-127796148D01*
X101367772Y-127765552D01*
X101222883Y-127705537D01*
X101092485Y-127618408D01*
X100981592Y-127507515D01*
X100894463Y-127377117D01*
X100834448Y-127232228D01*
X100803852Y-127078414D01*
X100803852Y-126921586D01*
X100834448Y-126767772D01*
X100894463Y-126622883D01*
X100981592Y-126492485D01*
X101092485Y-126381592D01*
X101222883Y-126294463D01*
X101367772Y-126234448D01*
X101521586Y-126203852D01*
X101678414Y-126203852D01*
X101832228Y-126234448D01*
G37*
G36*
X104372228Y-126234448D02*
G01*
X104517117Y-126294463D01*
X104647515Y-126381592D01*
X104758408Y-126492485D01*
X104845537Y-126622883D01*
X104905552Y-126767772D01*
X104936148Y-126921586D01*
X104936148Y-127078414D01*
X104905552Y-127232228D01*
X104845537Y-127377117D01*
X104758408Y-127507515D01*
X104647515Y-127618408D01*
X104517117Y-127705537D01*
X104372228Y-127765552D01*
X104218414Y-127796148D01*
X104061586Y-127796148D01*
X103907772Y-127765552D01*
X103762883Y-127705537D01*
X103632485Y-127618408D01*
X103521592Y-127507515D01*
X103434463Y-127377117D01*
X103374448Y-127232228D01*
X103343852Y-127078414D01*
X103343852Y-126921586D01*
X103374448Y-126767772D01*
X103434463Y-126622883D01*
X103521592Y-126492485D01*
X103632485Y-126381592D01*
X103762883Y-126294463D01*
X103907772Y-126234448D01*
X104061586Y-126203852D01*
X104218414Y-126203852D01*
X104372228Y-126234448D01*
G37*
G36*
X106912228Y-126234448D02*
G01*
X107057117Y-126294463D01*
X107187515Y-126381592D01*
X107298408Y-126492485D01*
X107385537Y-126622883D01*
X107445552Y-126767772D01*
X107476148Y-126921586D01*
X107476148Y-127078414D01*
X107445552Y-127232228D01*
X107385537Y-127377117D01*
X107298408Y-127507515D01*
X107187515Y-127618408D01*
X107057117Y-127705537D01*
X106912228Y-127765552D01*
X106758414Y-127796148D01*
X106601586Y-127796148D01*
X106447772Y-127765552D01*
X106302883Y-127705537D01*
X106172485Y-127618408D01*
X106061592Y-127507515D01*
X105974463Y-127377117D01*
X105914448Y-127232228D01*
X105883852Y-127078414D01*
X105883852Y-126921586D01*
X105914448Y-126767772D01*
X105974463Y-126622883D01*
X106061592Y-126492485D01*
X106172485Y-126381592D01*
X106302883Y-126294463D01*
X106447772Y-126234448D01*
X106601586Y-126203852D01*
X106758414Y-126203852D01*
X106912228Y-126234448D01*
G37*
G36*
X109452228Y-126234448D02*
G01*
X109597117Y-126294463D01*
X109727515Y-126381592D01*
X109838408Y-126492485D01*
X109925537Y-126622883D01*
X109985552Y-126767772D01*
X110016148Y-126921586D01*
X110016148Y-127078414D01*
X109985552Y-127232228D01*
X109925537Y-127377117D01*
X109838408Y-127507515D01*
X109727515Y-127618408D01*
X109597117Y-127705537D01*
X109452228Y-127765552D01*
X109298414Y-127796148D01*
X109141586Y-127796148D01*
X108987772Y-127765552D01*
X108842883Y-127705537D01*
X108712485Y-127618408D01*
X108601592Y-127507515D01*
X108514463Y-127377117D01*
X108454448Y-127232228D01*
X108423852Y-127078414D01*
X108423852Y-126921586D01*
X108454448Y-126767772D01*
X108514463Y-126622883D01*
X108601592Y-126492485D01*
X108712485Y-126381592D01*
X108842883Y-126294463D01*
X108987772Y-126234448D01*
X109141586Y-126203852D01*
X109298414Y-126203852D01*
X109452228Y-126234448D01*
G37*
G36*
X111992228Y-126234448D02*
G01*
X112137117Y-126294463D01*
X112267515Y-126381592D01*
X112378408Y-126492485D01*
X112465537Y-126622883D01*
X112525552Y-126767772D01*
X112556148Y-126921586D01*
X112556148Y-127078414D01*
X112525552Y-127232228D01*
X112465537Y-127377117D01*
X112378408Y-127507515D01*
X112267515Y-127618408D01*
X112137117Y-127705537D01*
X111992228Y-127765552D01*
X111838414Y-127796148D01*
X111681586Y-127796148D01*
X111527772Y-127765552D01*
X111382883Y-127705537D01*
X111252485Y-127618408D01*
X111141592Y-127507515D01*
X111054463Y-127377117D01*
X110994448Y-127232228D01*
X110963852Y-127078414D01*
X110963852Y-126921586D01*
X110994448Y-126767772D01*
X111054463Y-126622883D01*
X111141592Y-126492485D01*
X111252485Y-126381592D01*
X111382883Y-126294463D01*
X111527772Y-126234448D01*
X111681586Y-126203852D01*
X111838414Y-126203852D01*
X111992228Y-126234448D01*
G37*
G36*
X114532228Y-126234448D02*
G01*
X114677117Y-126294463D01*
X114807515Y-126381592D01*
X114918408Y-126492485D01*
X115005537Y-126622883D01*
X115065552Y-126767772D01*
X115096148Y-126921586D01*
X115096148Y-127078414D01*
X115065552Y-127232228D01*
X115005537Y-127377117D01*
X114918408Y-127507515D01*
X114807515Y-127618408D01*
X114677117Y-127705537D01*
X114532228Y-127765552D01*
X114378414Y-127796148D01*
X114221586Y-127796148D01*
X114067772Y-127765552D01*
X113922883Y-127705537D01*
X113792485Y-127618408D01*
X113681592Y-127507515D01*
X113594463Y-127377117D01*
X113534448Y-127232228D01*
X113503852Y-127078414D01*
X113503852Y-126921586D01*
X113534448Y-126767772D01*
X113594463Y-126622883D01*
X113681592Y-126492485D01*
X113792485Y-126381592D01*
X113922883Y-126294463D01*
X114067772Y-126234448D01*
X114221586Y-126203852D01*
X114378414Y-126203852D01*
X114532228Y-126234448D01*
G37*
G36*
X117072228Y-126234448D02*
G01*
X117217117Y-126294463D01*
X117347515Y-126381592D01*
X117458408Y-126492485D01*
X117545537Y-126622883D01*
X117605552Y-126767772D01*
X117636148Y-126921586D01*
X117636148Y-127078414D01*
X117605552Y-127232228D01*
X117545537Y-127377117D01*
X117458408Y-127507515D01*
X117347515Y-127618408D01*
X117217117Y-127705537D01*
X117072228Y-127765552D01*
X116918414Y-127796148D01*
X116761586Y-127796148D01*
X116607772Y-127765552D01*
X116462883Y-127705537D01*
X116332485Y-127618408D01*
X116221592Y-127507515D01*
X116134463Y-127377117D01*
X116074448Y-127232228D01*
X116043852Y-127078414D01*
X116043852Y-126921586D01*
X116074448Y-126767772D01*
X116134463Y-126622883D01*
X116221592Y-126492485D01*
X116332485Y-126381592D01*
X116462883Y-126294463D01*
X116607772Y-126234448D01*
X116761586Y-126203852D01*
X116918414Y-126203852D01*
X117072228Y-126234448D01*
G37*
G36*
X119612228Y-126234448D02*
G01*
X119757117Y-126294463D01*
X119887515Y-126381592D01*
X119998408Y-126492485D01*
X120085537Y-126622883D01*
X120145552Y-126767772D01*
X120176148Y-126921586D01*
X120176148Y-127078414D01*
X120145552Y-127232228D01*
X120085537Y-127377117D01*
X119998408Y-127507515D01*
X119887515Y-127618408D01*
X119757117Y-127705537D01*
X119612228Y-127765552D01*
X119458414Y-127796148D01*
X119301586Y-127796148D01*
X119147772Y-127765552D01*
X119002883Y-127705537D01*
X118872485Y-127618408D01*
X118761592Y-127507515D01*
X118674463Y-127377117D01*
X118614448Y-127232228D01*
X118583852Y-127078414D01*
X118583852Y-126921586D01*
X118614448Y-126767772D01*
X118674463Y-126622883D01*
X118761592Y-126492485D01*
X118872485Y-126381592D01*
X119002883Y-126294463D01*
X119147772Y-126234448D01*
X119301586Y-126203852D01*
X119458414Y-126203852D01*
X119612228Y-126234448D01*
G37*
G36*
X122152228Y-126234448D02*
G01*
X122297117Y-126294463D01*
X122427515Y-126381592D01*
X122538408Y-126492485D01*
X122625537Y-126622883D01*
X122685552Y-126767772D01*
X122716148Y-126921586D01*
X122716148Y-127078414D01*
X122685552Y-127232228D01*
X122625537Y-127377117D01*
X122538408Y-127507515D01*
X122427515Y-127618408D01*
X122297117Y-127705537D01*
X122152228Y-127765552D01*
X121998414Y-127796148D01*
X121841586Y-127796148D01*
X121687772Y-127765552D01*
X121542883Y-127705537D01*
X121412485Y-127618408D01*
X121301592Y-127507515D01*
X121214463Y-127377117D01*
X121154448Y-127232228D01*
X121123852Y-127078414D01*
X121123852Y-126921586D01*
X121154448Y-126767772D01*
X121214463Y-126622883D01*
X121301592Y-126492485D01*
X121412485Y-126381592D01*
X121542883Y-126294463D01*
X121687772Y-126234448D01*
X121841586Y-126203852D01*
X121998414Y-126203852D01*
X122152228Y-126234448D01*
G37*
G36*
X124692228Y-126234448D02*
G01*
X124837117Y-126294463D01*
X124967515Y-126381592D01*
X125078408Y-126492485D01*
X125165537Y-126622883D01*
X125225552Y-126767772D01*
X125256148Y-126921586D01*
X125256148Y-127078414D01*
X125225552Y-127232228D01*
X125165537Y-127377117D01*
X125078408Y-127507515D01*
X124967515Y-127618408D01*
X124837117Y-127705537D01*
X124692228Y-127765552D01*
X124538414Y-127796148D01*
X124381586Y-127796148D01*
X124227772Y-127765552D01*
X124082883Y-127705537D01*
X123952485Y-127618408D01*
X123841592Y-127507515D01*
X123754463Y-127377117D01*
X123694448Y-127232228D01*
X123663852Y-127078414D01*
X123663852Y-126921586D01*
X123694448Y-126767772D01*
X123754463Y-126622883D01*
X123841592Y-126492485D01*
X123952485Y-126381592D01*
X124082883Y-126294463D01*
X124227772Y-126234448D01*
X124381586Y-126203852D01*
X124538414Y-126203852D01*
X124692228Y-126234448D01*
G37*
G36*
X127232228Y-126234448D02*
G01*
X127377117Y-126294463D01*
X127507515Y-126381592D01*
X127618408Y-126492485D01*
X127705537Y-126622883D01*
X127765552Y-126767772D01*
X127796148Y-126921586D01*
X127796148Y-127078414D01*
X127765552Y-127232228D01*
X127705537Y-127377117D01*
X127618408Y-127507515D01*
X127507515Y-127618408D01*
X127377117Y-127705537D01*
X127232228Y-127765552D01*
X127078414Y-127796148D01*
X126921586Y-127796148D01*
X126767772Y-127765552D01*
X126622883Y-127705537D01*
X126492485Y-127618408D01*
X126381592Y-127507515D01*
X126294463Y-127377117D01*
X126234448Y-127232228D01*
X126203852Y-127078414D01*
X126203852Y-126921586D01*
X126234448Y-126767772D01*
X126294463Y-126622883D01*
X126381592Y-126492485D01*
X126492485Y-126381592D01*
X126622883Y-126294463D01*
X126767772Y-126234448D01*
X126921586Y-126203852D01*
X127078414Y-126203852D01*
X127232228Y-126234448D01*
G37*
G36*
X129772228Y-126234448D02*
G01*
X129917117Y-126294463D01*
X130047515Y-126381592D01*
X130158408Y-126492485D01*
X130245537Y-126622883D01*
X130305552Y-126767772D01*
X130336148Y-126921586D01*
X130336148Y-127078414D01*
X130305552Y-127232228D01*
X130245537Y-127377117D01*
X130158408Y-127507515D01*
X130047515Y-127618408D01*
X129917117Y-127705537D01*
X129772228Y-127765552D01*
X129618414Y-127796148D01*
X129461586Y-127796148D01*
X129307772Y-127765552D01*
X129162883Y-127705537D01*
X129032485Y-127618408D01*
X128921592Y-127507515D01*
X128834463Y-127377117D01*
X128774448Y-127232228D01*
X128743852Y-127078414D01*
X128743852Y-126921586D01*
X128774448Y-126767772D01*
X128834463Y-126622883D01*
X128921592Y-126492485D01*
X129032485Y-126381592D01*
X129162883Y-126294463D01*
X129307772Y-126234448D01*
X129461586Y-126203852D01*
X129618414Y-126203852D01*
X129772228Y-126234448D01*
G37*
G36*
X132312228Y-126234448D02*
G01*
X132457117Y-126294463D01*
X132587515Y-126381592D01*
X132698408Y-126492485D01*
X132785537Y-126622883D01*
X132845552Y-126767772D01*
X132876148Y-126921586D01*
X132876148Y-127078414D01*
X132845552Y-127232228D01*
X132785537Y-127377117D01*
X132698408Y-127507515D01*
X132587515Y-127618408D01*
X132457117Y-127705537D01*
X132312228Y-127765552D01*
X132158414Y-127796148D01*
X132001586Y-127796148D01*
X131847772Y-127765552D01*
X131702883Y-127705537D01*
X131572485Y-127618408D01*
X131461592Y-127507515D01*
X131374463Y-127377117D01*
X131314448Y-127232228D01*
X131283852Y-127078414D01*
X131283852Y-126921586D01*
X131314448Y-126767772D01*
X131374463Y-126622883D01*
X131461592Y-126492485D01*
X131572485Y-126381592D01*
X131702883Y-126294463D01*
X131847772Y-126234448D01*
X132001586Y-126203852D01*
X132158414Y-126203852D01*
X132312228Y-126234448D01*
G37*
G36*
X134852228Y-126234448D02*
G01*
X134997117Y-126294463D01*
X135127515Y-126381592D01*
X135238408Y-126492485D01*
X135325537Y-126622883D01*
X135385552Y-126767772D01*
X135416148Y-126921586D01*
X135416148Y-127078414D01*
X135385552Y-127232228D01*
X135325537Y-127377117D01*
X135238408Y-127507515D01*
X135127515Y-127618408D01*
X134997117Y-127705537D01*
X134852228Y-127765552D01*
X134698414Y-127796148D01*
X134541586Y-127796148D01*
X134387772Y-127765552D01*
X134242883Y-127705537D01*
X134112485Y-127618408D01*
X134001592Y-127507515D01*
X133914463Y-127377117D01*
X133854448Y-127232228D01*
X133823852Y-127078414D01*
X133823852Y-126921586D01*
X133854448Y-126767772D01*
X133914463Y-126622883D01*
X134001592Y-126492485D01*
X134112485Y-126381592D01*
X134242883Y-126294463D01*
X134387772Y-126234448D01*
X134541586Y-126203852D01*
X134698414Y-126203852D01*
X134852228Y-126234448D01*
G37*
G36*
X160252228Y-123694448D02*
G01*
X160397117Y-123754463D01*
X160527515Y-123841592D01*
X160638408Y-123952485D01*
X160725537Y-124082883D01*
X160785552Y-124227772D01*
X160816148Y-124381586D01*
X160816148Y-124538414D01*
X160785552Y-124692228D01*
X160725537Y-124837117D01*
X160638408Y-124967515D01*
X160527515Y-125078408D01*
X160397117Y-125165537D01*
X160252228Y-125225552D01*
X160098414Y-125256148D01*
X159941586Y-125256148D01*
X159787772Y-125225552D01*
X159642883Y-125165537D01*
X159512485Y-125078408D01*
X159401592Y-124967515D01*
X159314463Y-124837117D01*
X159254448Y-124692228D01*
X159223852Y-124538414D01*
X159223852Y-124381586D01*
X159254448Y-124227772D01*
X159314463Y-124082883D01*
X159401592Y-123952485D01*
X159512485Y-123841592D01*
X159642883Y-123754463D01*
X159787772Y-123694448D01*
X159941586Y-123663852D01*
X160098414Y-123663852D01*
X160252228Y-123694448D01*
G37*
G36*
X167872228Y-123694448D02*
G01*
X168017117Y-123754463D01*
X168147515Y-123841592D01*
X168258408Y-123952485D01*
X168345537Y-124082883D01*
X168405552Y-124227772D01*
X168436148Y-124381586D01*
X168436148Y-124538414D01*
X168405552Y-124692228D01*
X168345537Y-124837117D01*
X168258408Y-124967515D01*
X168147515Y-125078408D01*
X168017117Y-125165537D01*
X167872228Y-125225552D01*
X167718414Y-125256148D01*
X167561586Y-125256148D01*
X167407772Y-125225552D01*
X167262883Y-125165537D01*
X167132485Y-125078408D01*
X167021592Y-124967515D01*
X166934463Y-124837117D01*
X166874448Y-124692228D01*
X166843852Y-124538414D01*
X166843852Y-124381586D01*
X166874448Y-124227772D01*
X166934463Y-124082883D01*
X167021592Y-123952485D01*
X167132485Y-123841592D01*
X167262883Y-123754463D01*
X167407772Y-123694448D01*
X167561586Y-123663852D01*
X167718414Y-123663852D01*
X167872228Y-123694448D01*
G37*
G36*
X147610285Y-121543060D02*
G01*
X147791397Y-121618079D01*
X147954393Y-121726990D01*
X148093010Y-121865607D01*
X148201921Y-122028603D01*
X148276940Y-122209715D01*
X148315185Y-122401983D01*
X148315185Y-122598017D01*
X148276940Y-122790285D01*
X148201921Y-122971397D01*
X148093010Y-123134393D01*
X147954393Y-123273010D01*
X147791397Y-123381921D01*
X147610285Y-123456940D01*
X147418017Y-123495185D01*
X147221983Y-123495185D01*
X147029715Y-123456940D01*
X146848603Y-123381921D01*
X146685607Y-123273010D01*
X146546990Y-123134393D01*
X146438079Y-122971397D01*
X146363060Y-122790285D01*
X146324815Y-122598017D01*
X146324815Y-122401983D01*
X146363060Y-122209715D01*
X146438079Y-122028603D01*
X146546990Y-121865607D01*
X146685607Y-121726990D01*
X146848603Y-121618079D01*
X147029715Y-121543060D01*
X147221983Y-121504815D01*
X147418017Y-121504815D01*
X147610285Y-121543060D01*
G37*
G36*
X154110285Y-121543060D02*
G01*
X154291397Y-121618079D01*
X154454393Y-121726990D01*
X154593010Y-121865607D01*
X154701921Y-122028603D01*
X154776940Y-122209715D01*
X154815185Y-122401983D01*
X154815185Y-122598017D01*
X154776940Y-122790285D01*
X154701921Y-122971397D01*
X154593010Y-123134393D01*
X154454393Y-123273010D01*
X154291397Y-123381921D01*
X154110285Y-123456940D01*
X153918017Y-123495185D01*
X153721983Y-123495185D01*
X153529715Y-123456940D01*
X153348603Y-123381921D01*
X153185607Y-123273010D01*
X153046990Y-123134393D01*
X152938079Y-122971397D01*
X152863060Y-122790285D01*
X152824815Y-122598017D01*
X152824815Y-122401983D01*
X152863060Y-122209715D01*
X152938079Y-122028603D01*
X153046990Y-121865607D01*
X153185607Y-121726990D01*
X153348603Y-121618079D01*
X153529715Y-121543060D01*
X153721983Y-121504815D01*
X153918017Y-121504815D01*
X154110285Y-121543060D01*
G37*
G36*
X147610285Y-115303060D02*
G01*
X147791397Y-115378079D01*
X147954393Y-115486990D01*
X148093010Y-115625607D01*
X148201921Y-115788603D01*
X148276940Y-115969715D01*
X148315185Y-116161983D01*
X148315185Y-116358017D01*
X148276940Y-116550285D01*
X148201921Y-116731397D01*
X148093010Y-116894393D01*
X147954393Y-117033010D01*
X147791397Y-117141921D01*
X147610285Y-117216940D01*
X147418017Y-117255185D01*
X147221983Y-117255185D01*
X147029715Y-117216940D01*
X146848603Y-117141921D01*
X146685607Y-117033010D01*
X146546990Y-116894393D01*
X146438079Y-116731397D01*
X146363060Y-116550285D01*
X146324815Y-116358017D01*
X146324815Y-116161983D01*
X146363060Y-115969715D01*
X146438079Y-115788603D01*
X146546990Y-115625607D01*
X146685607Y-115486990D01*
X146848603Y-115378079D01*
X147029715Y-115303060D01*
X147221983Y-115264815D01*
X147418017Y-115264815D01*
X147610285Y-115303060D01*
G37*
G36*
X154110285Y-115303060D02*
G01*
X154291397Y-115378079D01*
X154454393Y-115486990D01*
X154593010Y-115625607D01*
X154701921Y-115788603D01*
X154776940Y-115969715D01*
X154815185Y-116161983D01*
X154815185Y-116358017D01*
X154776940Y-116550285D01*
X154701921Y-116731397D01*
X154593010Y-116894393D01*
X154454393Y-117033010D01*
X154291397Y-117141921D01*
X154110285Y-117216940D01*
X153918017Y-117255185D01*
X153721983Y-117255185D01*
X153529715Y-117216940D01*
X153348603Y-117141921D01*
X153185607Y-117033010D01*
X153046990Y-116894393D01*
X152938079Y-116731397D01*
X152863060Y-116550285D01*
X152824815Y-116358017D01*
X152824815Y-116161983D01*
X152863060Y-115969715D01*
X152938079Y-115788603D01*
X153046990Y-115625607D01*
X153185607Y-115486990D01*
X153348603Y-115378079D01*
X153529715Y-115303060D01*
X153721983Y-115264815D01*
X153918017Y-115264815D01*
X154110285Y-115303060D01*
G37*
G36*
X160252228Y-113534448D02*
G01*
X160397117Y-113594463D01*
X160527515Y-113681592D01*
X160638408Y-113792485D01*
X160725537Y-113922883D01*
X160785552Y-114067772D01*
X160816148Y-114221586D01*
X160816148Y-114378414D01*
X160785552Y-114532228D01*
X160725537Y-114677117D01*
X160638408Y-114807515D01*
X160527515Y-114918408D01*
X160397117Y-115005537D01*
X160252228Y-115065552D01*
X160098414Y-115096148D01*
X159941586Y-115096148D01*
X159787772Y-115065552D01*
X159642883Y-115005537D01*
X159512485Y-114918408D01*
X159401592Y-114807515D01*
X159314463Y-114677117D01*
X159254448Y-114532228D01*
X159223852Y-114378414D01*
X159223852Y-114221586D01*
X159254448Y-114067772D01*
X159314463Y-113922883D01*
X159401592Y-113792485D01*
X159512485Y-113681592D01*
X159642883Y-113594463D01*
X159787772Y-113534448D01*
X159941586Y-113503852D01*
X160098414Y-113503852D01*
X160252228Y-113534448D01*
G37*
G36*
X167872228Y-113534448D02*
G01*
X168017117Y-113594463D01*
X168147515Y-113681592D01*
X168258408Y-113792485D01*
X168345537Y-113922883D01*
X168405552Y-114067772D01*
X168436148Y-114221586D01*
X168436148Y-114378414D01*
X168405552Y-114532228D01*
X168345537Y-114677117D01*
X168258408Y-114807515D01*
X168147515Y-114918408D01*
X168017117Y-115005537D01*
X167872228Y-115065552D01*
X167718414Y-115096148D01*
X167561586Y-115096148D01*
X167407772Y-115065552D01*
X167262883Y-115005537D01*
X167132485Y-114918408D01*
X167021592Y-114807515D01*
X166934463Y-114677117D01*
X166874448Y-114532228D01*
X166843852Y-114378414D01*
X166843852Y-114221586D01*
X166874448Y-114067772D01*
X166934463Y-113922883D01*
X167021592Y-113792485D01*
X167132485Y-113681592D01*
X167262883Y-113594463D01*
X167407772Y-113534448D01*
X167561586Y-113503852D01*
X167718414Y-113503852D01*
X167872228Y-113534448D01*
G37*
G36*
X147610285Y-110803060D02*
G01*
X147791397Y-110878079D01*
X147954393Y-110986990D01*
X148093010Y-111125607D01*
X148201921Y-111288603D01*
X148276940Y-111469715D01*
X148315185Y-111661983D01*
X148315185Y-111858017D01*
X148276940Y-112050285D01*
X148201921Y-112231397D01*
X148093010Y-112394393D01*
X147954393Y-112533010D01*
X147791397Y-112641921D01*
X147610285Y-112716940D01*
X147418017Y-112755185D01*
X147221983Y-112755185D01*
X147029715Y-112716940D01*
X146848603Y-112641921D01*
X146685607Y-112533010D01*
X146546990Y-112394393D01*
X146438079Y-112231397D01*
X146363060Y-112050285D01*
X146324815Y-111858017D01*
X146324815Y-111661983D01*
X146363060Y-111469715D01*
X146438079Y-111288603D01*
X146546990Y-111125607D01*
X146685607Y-110986990D01*
X146848603Y-110878079D01*
X147029715Y-110803060D01*
X147221983Y-110764815D01*
X147418017Y-110764815D01*
X147610285Y-110803060D01*
G37*
G36*
X154110285Y-110803060D02*
G01*
X154291397Y-110878079D01*
X154454393Y-110986990D01*
X154593010Y-111125607D01*
X154701921Y-111288603D01*
X154776940Y-111469715D01*
X154815185Y-111661983D01*
X154815185Y-111858017D01*
X154776940Y-112050285D01*
X154701921Y-112231397D01*
X154593010Y-112394393D01*
X154454393Y-112533010D01*
X154291397Y-112641921D01*
X154110285Y-112716940D01*
X153918017Y-112755185D01*
X153721983Y-112755185D01*
X153529715Y-112716940D01*
X153348603Y-112641921D01*
X153185607Y-112533010D01*
X153046990Y-112394393D01*
X152938079Y-112231397D01*
X152863060Y-112050285D01*
X152824815Y-111858017D01*
X152824815Y-111661983D01*
X152863060Y-111469715D01*
X152938079Y-111288603D01*
X153046990Y-111125607D01*
X153185607Y-110986990D01*
X153348603Y-110878079D01*
X153529715Y-110803060D01*
X153721983Y-110764815D01*
X153918017Y-110764815D01*
X154110285Y-110803060D01*
G37*
G36*
X135420000Y-112560000D02*
G01*
X133820000Y-112560000D01*
X133820000Y-110960000D01*
X135420000Y-110960000D01*
X135420000Y-112560000D01*
G37*
G36*
X99292228Y-110994448D02*
G01*
X99437117Y-111054463D01*
X99567515Y-111141592D01*
X99678408Y-111252485D01*
X99765537Y-111382883D01*
X99825552Y-111527772D01*
X99856148Y-111681586D01*
X99856148Y-111838414D01*
X99825552Y-111992228D01*
X99765537Y-112137117D01*
X99678408Y-112267515D01*
X99567515Y-112378408D01*
X99437117Y-112465537D01*
X99292228Y-112525552D01*
X99138414Y-112556148D01*
X98981586Y-112556148D01*
X98827772Y-112525552D01*
X98682883Y-112465537D01*
X98552485Y-112378408D01*
X98441592Y-112267515D01*
X98354463Y-112137117D01*
X98294448Y-111992228D01*
X98263852Y-111838414D01*
X98263852Y-111681586D01*
X98294448Y-111527772D01*
X98354463Y-111382883D01*
X98441592Y-111252485D01*
X98552485Y-111141592D01*
X98682883Y-111054463D01*
X98827772Y-110994448D01*
X98981586Y-110963852D01*
X99138414Y-110963852D01*
X99292228Y-110994448D01*
G37*
G36*
X101832228Y-110994448D02*
G01*
X101977117Y-111054463D01*
X102107515Y-111141592D01*
X102218408Y-111252485D01*
X102305537Y-111382883D01*
X102365552Y-111527772D01*
X102396148Y-111681586D01*
X102396148Y-111838414D01*
X102365552Y-111992228D01*
X102305537Y-112137117D01*
X102218408Y-112267515D01*
X102107515Y-112378408D01*
X101977117Y-112465537D01*
X101832228Y-112525552D01*
X101678414Y-112556148D01*
X101521586Y-112556148D01*
X101367772Y-112525552D01*
X101222883Y-112465537D01*
X101092485Y-112378408D01*
X100981592Y-112267515D01*
X100894463Y-112137117D01*
X100834448Y-111992228D01*
X100803852Y-111838414D01*
X100803852Y-111681586D01*
X100834448Y-111527772D01*
X100894463Y-111382883D01*
X100981592Y-111252485D01*
X101092485Y-111141592D01*
X101222883Y-111054463D01*
X101367772Y-110994448D01*
X101521586Y-110963852D01*
X101678414Y-110963852D01*
X101832228Y-110994448D01*
G37*
G36*
X104372228Y-110994448D02*
G01*
X104517117Y-111054463D01*
X104647515Y-111141592D01*
X104758408Y-111252485D01*
X104845537Y-111382883D01*
X104905552Y-111527772D01*
X104936148Y-111681586D01*
X104936148Y-111838414D01*
X104905552Y-111992228D01*
X104845537Y-112137117D01*
X104758408Y-112267515D01*
X104647515Y-112378408D01*
X104517117Y-112465537D01*
X104372228Y-112525552D01*
X104218414Y-112556148D01*
X104061586Y-112556148D01*
X103907772Y-112525552D01*
X103762883Y-112465537D01*
X103632485Y-112378408D01*
X103521592Y-112267515D01*
X103434463Y-112137117D01*
X103374448Y-111992228D01*
X103343852Y-111838414D01*
X103343852Y-111681586D01*
X103374448Y-111527772D01*
X103434463Y-111382883D01*
X103521592Y-111252485D01*
X103632485Y-111141592D01*
X103762883Y-111054463D01*
X103907772Y-110994448D01*
X104061586Y-110963852D01*
X104218414Y-110963852D01*
X104372228Y-110994448D01*
G37*
G36*
X106912228Y-110994448D02*
G01*
X107057117Y-111054463D01*
X107187515Y-111141592D01*
X107298408Y-111252485D01*
X107385537Y-111382883D01*
X107445552Y-111527772D01*
X107476148Y-111681586D01*
X107476148Y-111838414D01*
X107445552Y-111992228D01*
X107385537Y-112137117D01*
X107298408Y-112267515D01*
X107187515Y-112378408D01*
X107057117Y-112465537D01*
X106912228Y-112525552D01*
X106758414Y-112556148D01*
X106601586Y-112556148D01*
X106447772Y-112525552D01*
X106302883Y-112465537D01*
X106172485Y-112378408D01*
X106061592Y-112267515D01*
X105974463Y-112137117D01*
X105914448Y-111992228D01*
X105883852Y-111838414D01*
X105883852Y-111681586D01*
X105914448Y-111527772D01*
X105974463Y-111382883D01*
X106061592Y-111252485D01*
X106172485Y-111141592D01*
X106302883Y-111054463D01*
X106447772Y-110994448D01*
X106601586Y-110963852D01*
X106758414Y-110963852D01*
X106912228Y-110994448D01*
G37*
G36*
X109452228Y-110994448D02*
G01*
X109597117Y-111054463D01*
X109727515Y-111141592D01*
X109838408Y-111252485D01*
X109925537Y-111382883D01*
X109985552Y-111527772D01*
X110016148Y-111681586D01*
X110016148Y-111838414D01*
X109985552Y-111992228D01*
X109925537Y-112137117D01*
X109838408Y-112267515D01*
X109727515Y-112378408D01*
X109597117Y-112465537D01*
X109452228Y-112525552D01*
X109298414Y-112556148D01*
X109141586Y-112556148D01*
X108987772Y-112525552D01*
X108842883Y-112465537D01*
X108712485Y-112378408D01*
X108601592Y-112267515D01*
X108514463Y-112137117D01*
X108454448Y-111992228D01*
X108423852Y-111838414D01*
X108423852Y-111681586D01*
X108454448Y-111527772D01*
X108514463Y-111382883D01*
X108601592Y-111252485D01*
X108712485Y-111141592D01*
X108842883Y-111054463D01*
X108987772Y-110994448D01*
X109141586Y-110963852D01*
X109298414Y-110963852D01*
X109452228Y-110994448D01*
G37*
G36*
X111992228Y-110994448D02*
G01*
X112137117Y-111054463D01*
X112267515Y-111141592D01*
X112378408Y-111252485D01*
X112465537Y-111382883D01*
X112525552Y-111527772D01*
X112556148Y-111681586D01*
X112556148Y-111838414D01*
X112525552Y-111992228D01*
X112465537Y-112137117D01*
X112378408Y-112267515D01*
X112267515Y-112378408D01*
X112137117Y-112465537D01*
X111992228Y-112525552D01*
X111838414Y-112556148D01*
X111681586Y-112556148D01*
X111527772Y-112525552D01*
X111382883Y-112465537D01*
X111252485Y-112378408D01*
X111141592Y-112267515D01*
X111054463Y-112137117D01*
X110994448Y-111992228D01*
X110963852Y-111838414D01*
X110963852Y-111681586D01*
X110994448Y-111527772D01*
X111054463Y-111382883D01*
X111141592Y-111252485D01*
X111252485Y-111141592D01*
X111382883Y-111054463D01*
X111527772Y-110994448D01*
X111681586Y-110963852D01*
X111838414Y-110963852D01*
X111992228Y-110994448D01*
G37*
G36*
X114532228Y-110994448D02*
G01*
X114677117Y-111054463D01*
X114807515Y-111141592D01*
X114918408Y-111252485D01*
X115005537Y-111382883D01*
X115065552Y-111527772D01*
X115096148Y-111681586D01*
X115096148Y-111838414D01*
X115065552Y-111992228D01*
X115005537Y-112137117D01*
X114918408Y-112267515D01*
X114807515Y-112378408D01*
X114677117Y-112465537D01*
X114532228Y-112525552D01*
X114378414Y-112556148D01*
X114221586Y-112556148D01*
X114067772Y-112525552D01*
X113922883Y-112465537D01*
X113792485Y-112378408D01*
X113681592Y-112267515D01*
X113594463Y-112137117D01*
X113534448Y-111992228D01*
X113503852Y-111838414D01*
X113503852Y-111681586D01*
X113534448Y-111527772D01*
X113594463Y-111382883D01*
X113681592Y-111252485D01*
X113792485Y-111141592D01*
X113922883Y-111054463D01*
X114067772Y-110994448D01*
X114221586Y-110963852D01*
X114378414Y-110963852D01*
X114532228Y-110994448D01*
G37*
G36*
X117072228Y-110994448D02*
G01*
X117217117Y-111054463D01*
X117347515Y-111141592D01*
X117458408Y-111252485D01*
X117545537Y-111382883D01*
X117605552Y-111527772D01*
X117636148Y-111681586D01*
X117636148Y-111838414D01*
X117605552Y-111992228D01*
X117545537Y-112137117D01*
X117458408Y-112267515D01*
X117347515Y-112378408D01*
X117217117Y-112465537D01*
X117072228Y-112525552D01*
X116918414Y-112556148D01*
X116761586Y-112556148D01*
X116607772Y-112525552D01*
X116462883Y-112465537D01*
X116332485Y-112378408D01*
X116221592Y-112267515D01*
X116134463Y-112137117D01*
X116074448Y-111992228D01*
X116043852Y-111838414D01*
X116043852Y-111681586D01*
X116074448Y-111527772D01*
X116134463Y-111382883D01*
X116221592Y-111252485D01*
X116332485Y-111141592D01*
X116462883Y-111054463D01*
X116607772Y-110994448D01*
X116761586Y-110963852D01*
X116918414Y-110963852D01*
X117072228Y-110994448D01*
G37*
G36*
X119612228Y-110994448D02*
G01*
X119757117Y-111054463D01*
X119887515Y-111141592D01*
X119998408Y-111252485D01*
X120085537Y-111382883D01*
X120145552Y-111527772D01*
X120176148Y-111681586D01*
X120176148Y-111838414D01*
X120145552Y-111992228D01*
X120085537Y-112137117D01*
X119998408Y-112267515D01*
X119887515Y-112378408D01*
X119757117Y-112465537D01*
X119612228Y-112525552D01*
X119458414Y-112556148D01*
X119301586Y-112556148D01*
X119147772Y-112525552D01*
X119002883Y-112465537D01*
X118872485Y-112378408D01*
X118761592Y-112267515D01*
X118674463Y-112137117D01*
X118614448Y-111992228D01*
X118583852Y-111838414D01*
X118583852Y-111681586D01*
X118614448Y-111527772D01*
X118674463Y-111382883D01*
X118761592Y-111252485D01*
X118872485Y-111141592D01*
X119002883Y-111054463D01*
X119147772Y-110994448D01*
X119301586Y-110963852D01*
X119458414Y-110963852D01*
X119612228Y-110994448D01*
G37*
G36*
X122152228Y-110994448D02*
G01*
X122297117Y-111054463D01*
X122427515Y-111141592D01*
X122538408Y-111252485D01*
X122625537Y-111382883D01*
X122685552Y-111527772D01*
X122716148Y-111681586D01*
X122716148Y-111838414D01*
X122685552Y-111992228D01*
X122625537Y-112137117D01*
X122538408Y-112267515D01*
X122427515Y-112378408D01*
X122297117Y-112465537D01*
X122152228Y-112525552D01*
X121998414Y-112556148D01*
X121841586Y-112556148D01*
X121687772Y-112525552D01*
X121542883Y-112465537D01*
X121412485Y-112378408D01*
X121301592Y-112267515D01*
X121214463Y-112137117D01*
X121154448Y-111992228D01*
X121123852Y-111838414D01*
X121123852Y-111681586D01*
X121154448Y-111527772D01*
X121214463Y-111382883D01*
X121301592Y-111252485D01*
X121412485Y-111141592D01*
X121542883Y-111054463D01*
X121687772Y-110994448D01*
X121841586Y-110963852D01*
X121998414Y-110963852D01*
X122152228Y-110994448D01*
G37*
G36*
X124692228Y-110994448D02*
G01*
X124837117Y-111054463D01*
X124967515Y-111141592D01*
X125078408Y-111252485D01*
X125165537Y-111382883D01*
X125225552Y-111527772D01*
X125256148Y-111681586D01*
X125256148Y-111838414D01*
X125225552Y-111992228D01*
X125165537Y-112137117D01*
X125078408Y-112267515D01*
X124967515Y-112378408D01*
X124837117Y-112465537D01*
X124692228Y-112525552D01*
X124538414Y-112556148D01*
X124381586Y-112556148D01*
X124227772Y-112525552D01*
X124082883Y-112465537D01*
X123952485Y-112378408D01*
X123841592Y-112267515D01*
X123754463Y-112137117D01*
X123694448Y-111992228D01*
X123663852Y-111838414D01*
X123663852Y-111681586D01*
X123694448Y-111527772D01*
X123754463Y-111382883D01*
X123841592Y-111252485D01*
X123952485Y-111141592D01*
X124082883Y-111054463D01*
X124227772Y-110994448D01*
X124381586Y-110963852D01*
X124538414Y-110963852D01*
X124692228Y-110994448D01*
G37*
G36*
X127232228Y-110994448D02*
G01*
X127377117Y-111054463D01*
X127507515Y-111141592D01*
X127618408Y-111252485D01*
X127705537Y-111382883D01*
X127765552Y-111527772D01*
X127796148Y-111681586D01*
X127796148Y-111838414D01*
X127765552Y-111992228D01*
X127705537Y-112137117D01*
X127618408Y-112267515D01*
X127507515Y-112378408D01*
X127377117Y-112465537D01*
X127232228Y-112525552D01*
X127078414Y-112556148D01*
X126921586Y-112556148D01*
X126767772Y-112525552D01*
X126622883Y-112465537D01*
X126492485Y-112378408D01*
X126381592Y-112267515D01*
X126294463Y-112137117D01*
X126234448Y-111992228D01*
X126203852Y-111838414D01*
X126203852Y-111681586D01*
X126234448Y-111527772D01*
X126294463Y-111382883D01*
X126381592Y-111252485D01*
X126492485Y-111141592D01*
X126622883Y-111054463D01*
X126767772Y-110994448D01*
X126921586Y-110963852D01*
X127078414Y-110963852D01*
X127232228Y-110994448D01*
G37*
G36*
X129772228Y-110994448D02*
G01*
X129917117Y-111054463D01*
X130047515Y-111141592D01*
X130158408Y-111252485D01*
X130245537Y-111382883D01*
X130305552Y-111527772D01*
X130336148Y-111681586D01*
X130336148Y-111838414D01*
X130305552Y-111992228D01*
X130245537Y-112137117D01*
X130158408Y-112267515D01*
X130047515Y-112378408D01*
X129917117Y-112465537D01*
X129772228Y-112525552D01*
X129618414Y-112556148D01*
X129461586Y-112556148D01*
X129307772Y-112525552D01*
X129162883Y-112465537D01*
X129032485Y-112378408D01*
X128921592Y-112267515D01*
X128834463Y-112137117D01*
X128774448Y-111992228D01*
X128743852Y-111838414D01*
X128743852Y-111681586D01*
X128774448Y-111527772D01*
X128834463Y-111382883D01*
X128921592Y-111252485D01*
X129032485Y-111141592D01*
X129162883Y-111054463D01*
X129307772Y-110994448D01*
X129461586Y-110963852D01*
X129618414Y-110963852D01*
X129772228Y-110994448D01*
G37*
G36*
X132312228Y-110994448D02*
G01*
X132457117Y-111054463D01*
X132587515Y-111141592D01*
X132698408Y-111252485D01*
X132785537Y-111382883D01*
X132845552Y-111527772D01*
X132876148Y-111681586D01*
X132876148Y-111838414D01*
X132845552Y-111992228D01*
X132785537Y-112137117D01*
X132698408Y-112267515D01*
X132587515Y-112378408D01*
X132457117Y-112465537D01*
X132312228Y-112525552D01*
X132158414Y-112556148D01*
X132001586Y-112556148D01*
X131847772Y-112525552D01*
X131702883Y-112465537D01*
X131572485Y-112378408D01*
X131461592Y-112267515D01*
X131374463Y-112137117D01*
X131314448Y-111992228D01*
X131283852Y-111838414D01*
X131283852Y-111681586D01*
X131314448Y-111527772D01*
X131374463Y-111382883D01*
X131461592Y-111252485D01*
X131572485Y-111141592D01*
X131702883Y-111054463D01*
X131847772Y-110994448D01*
X132001586Y-110963852D01*
X132158414Y-110963852D01*
X132312228Y-110994448D01*
G37*
G36*
X99306742Y-83006601D02*
G01*
X99460687Y-83070367D01*
X99599234Y-83162941D01*
X99717059Y-83280766D01*
X99809633Y-83419313D01*
X99873399Y-83573258D01*
X99905907Y-83736685D01*
X99905907Y-83903315D01*
X99873399Y-84066742D01*
X99809633Y-84220687D01*
X99717059Y-84359234D01*
X99599234Y-84477059D01*
X99460687Y-84569633D01*
X99306742Y-84633399D01*
X99143315Y-84665907D01*
X98976685Y-84665907D01*
X98813258Y-84633399D01*
X98659313Y-84569633D01*
X98520766Y-84477059D01*
X98402941Y-84359234D01*
X98310367Y-84220687D01*
X98246601Y-84066742D01*
X98214093Y-83903315D01*
X98214093Y-83736685D01*
X98246601Y-83573258D01*
X98310367Y-83419313D01*
X98402941Y-83280766D01*
X98520766Y-83162941D01*
X98659313Y-83070367D01*
X98813258Y-83006601D01*
X98976685Y-82974093D01*
X99143315Y-82974093D01*
X99306742Y-83006601D01*
G37*
G36*
X99306742Y-80466601D02*
G01*
X99460687Y-80530367D01*
X99599234Y-80622941D01*
X99717059Y-80740766D01*
X99809633Y-80879313D01*
X99873399Y-81033258D01*
X99905907Y-81196685D01*
X99905907Y-81363315D01*
X99873399Y-81526742D01*
X99809633Y-81680687D01*
X99717059Y-81819234D01*
X99599234Y-81937059D01*
X99460687Y-82029633D01*
X99306742Y-82093399D01*
X99143315Y-82125907D01*
X98976685Y-82125907D01*
X98813258Y-82093399D01*
X98659313Y-82029633D01*
X98520766Y-81937059D01*
X98402941Y-81819234D01*
X98310367Y-81680687D01*
X98246601Y-81526742D01*
X98214093Y-81363315D01*
X98214093Y-81196685D01*
X98246601Y-81033258D01*
X98310367Y-80879313D01*
X98402941Y-80740766D01*
X98520766Y-80622941D01*
X98659313Y-80530367D01*
X98813258Y-80466601D01*
X98976685Y-80434093D01*
X99143315Y-80434093D01*
X99306742Y-80466601D01*
G37*
G36*
X99306742Y-77926601D02*
G01*
X99460687Y-77990367D01*
X99599234Y-78082941D01*
X99717059Y-78200766D01*
X99809633Y-78339313D01*
X99873399Y-78493258D01*
X99905907Y-78656685D01*
X99905907Y-78823315D01*
X99873399Y-78986742D01*
X99809633Y-79140687D01*
X99717059Y-79279234D01*
X99599234Y-79397059D01*
X99460687Y-79489633D01*
X99306742Y-79553399D01*
X99143315Y-79585907D01*
X98976685Y-79585907D01*
X98813258Y-79553399D01*
X98659313Y-79489633D01*
X98520766Y-79397059D01*
X98402941Y-79279234D01*
X98310367Y-79140687D01*
X98246601Y-78986742D01*
X98214093Y-78823315D01*
X98214093Y-78656685D01*
X98246601Y-78493258D01*
X98310367Y-78339313D01*
X98402941Y-78200766D01*
X98520766Y-78082941D01*
X98659313Y-77990367D01*
X98813258Y-77926601D01*
X98976685Y-77894093D01*
X99143315Y-77894093D01*
X99306742Y-77926601D01*
G37*
G36*
X99910000Y-77050000D02*
G01*
X98210000Y-77050000D01*
X98210000Y-75350000D01*
X99910000Y-75350000D01*
X99910000Y-77050000D01*
G37*
M02*
